<svg xmlns="http://www.w3.org/2000/svg" viewBox="0 0 512 512"><path d="M205.647 10v470c0 5.523-4.477 10-10 10h-10c-5.523 0-10-4.477-10-10V10c0-5.523 4.477-10 10-10h10c5.523 0 10 4.477 10 10z" fill="#b86342"/><path d="M266.647 455v20a5 5 0 0 1-5 5H75a5 5 0 0 1-5-5v-20a5 5 0 0 1 5-5h186.647a5 5 0 0 1 5 5z" fill="#8c4032"/><path d="M486 170H26c-11.046 0-20-8.954-20-20V50c0-11.046 8.954-20 20-20h460c11.046 0 20 8.954 20 20v100c0 11.046-8.954 20-20 20z" fill="#7dc86e"/><path d="M506 50v100c0 11.046-8.954 20-20 20h-24.333c11.046 0 20-8.954 20-20V50c0-11.046-8.954-20-20-20H486c11.046 0 20 8.954 20 20z" fill="#7db764"/><path d="M176.921 70.526v58.947c0 4.142-3.357 7.5-7.5 7.5s-7.5-3.358-7.5-7.5V107.5h-29.21v21.974c0 4.142-3.357 7.5-7.5 7.5s-7.5-3.358-7.5-7.5V70.526a7.5 7.5 0 0 1 7.5-7.5 7.5 7.5 0 0 1 7.5 7.5V92.5h29.21V70.526c0-4.142 3.357-7.5 7.5-7.5s7.5 3.358 7.5 7.5zm45.79 0a7.5 7.5 0 0 0-7.5-7.5h-14.737a7.5 7.5 0 0 0-7.5 7.5 7.495 7.495 0 0 0 7.368 7.493v43.961a7.496 7.496 0 0 0-7.368 7.493 7.5 7.5 0 0 0 7.5 7.5h14.737a7.5 7.5 0 0 0 7.5-7.5 7.496 7.496 0 0 0-7.369-7.493V78.02a7.497 7.497 0 0 0 7.369-7.494zm-156.974 7.5h21.975a7.5 7.5 0 0 0 7.499 7.368 7.5 7.5 0 0 0 7.5-7.5c0-8.198-6.67-14.868-14.869-14.868H65.737c-12.262 0-22.237 9.976-22.237 22.237v29.474c0 12.261 9.976 22.237 22.237 22.237h22.104c8.199 0 14.869-6.67 14.869-14.868a7.5 7.5 0 1 0-14.999-.132H65.737c-3.99 0-7.237-3.247-7.237-7.237V85.263c0-3.99 3.247-7.237 7.237-7.237zm306.974 14.605v36.842c0 4.142-3.357 7.5-7.5 7.5s-7.5-3.358-7.5-7.5V107.5H328.5v21.974c0 4.142-3.357 7.5-7.5 7.5s-7.5-3.358-7.5-7.5V92.631c0-16.324 13.281-29.605 29.605-29.605s29.606 13.281 29.606 29.605zm-15.007-.131c-.072-7.992-6.59-14.474-14.599-14.474s-14.527 6.481-14.599 14.474h29.198zm109.117 2.771l-24.063-29.615a7.5 7.5 0 1 0-11.643 9.459L445.243 92.5h-48.41c-4.143 0-7.5 3.358-7.5 7.5s3.357 7.5 7.5 7.5h48.41l-14.127 17.386a7.5 7.5 0 0 0 11.643 9.458l24.063-29.615a7.5 7.5 0 0 0-.001-9.458zm-177.4-32.245a7.5 7.5 0 0 0-7.5 7.5v36.447l-30.71-40.947a7.5 7.5 0 0 0-13.5 4.5v58.947c0 4.142 3.357 7.5 7.5 7.5s7.5-3.358 7.5-7.5V93.026l30.71 40.947a7.499 7.499 0 0 0 13.5-4.5V70.526a7.5 7.5 0 0 0-7.5-7.5z" fill="#ffebbe"/><path d="M491 330v142c0 22.091-17.909 40-40 40H202c-22.091 0-40-17.909-40-40V330c0-22.091 17.909-40 40-40h249c22.091 0 40 17.909 40 40z" fill="#ff4b4b"/><path d="M491 330v142c0 22.091-17.909 40-40 40h-27.333c22.091 0 40-17.909 40-40V330c0-22.091-17.909-40-40-40H451c22.091 0 40 17.909 40 40z" fill="#d24a4a"/><g fill="#aa4141"><path d="M264 309.499V285c0-34.462 28.037-62.5 62.5-62.5S389 250.538 389 285v24.499h-15V285c0-26.191-21.309-47.5-47.5-47.5S279 258.809 279 285v24.499h-15z"/><path d="M421.313 290v222H373.98V290h47.333zM231.687 512h47.333V290h-47.333v222z"/></g></svg>