<svg xmlns="http://www.w3.org/2000/svg" xmlns:xlink="http://www.w3.org/1999/xlink" viewBox="0 0 640 640" width="640" height="640"><defs><path d="M182.09 352.18l2.15.22 2.12.3 2.1.38 2.07.47 2.04.55 2 .62 1.97.7 1.93.77 1.9.85 1.85.91 1.82.99 1.77 1.05 1.72 1.12 1.68 1.18 1.63 1.24 1.58 1.31 1.53 1.36 1.48 1.42 1.42 1.48 1.36 1.52 1.3 1.59 1.25 1.63 1.18 1.67 1.12 1.73 1.05 1.77.98 1.81.92 1.86.85 1.89.77 1.94.7 1.97.62 2 .55 2.04.46 2.06.39 2.1.3 2.13.22 2.15.13 2.17.05 2.2-.05 2.2-.13 2.18-.23 2.15-.3 2.12-.39 2.1-.47 2.06-.54 2.04-.63 2-.7 1.97-.77 1.93-.85 1.9-.91 1.85-.99 1.81-1.05 1.77-1.12 1.73-1.18 1.67-1.25 1.63-1.3 1.58-1.36 1.53-1.42 1.48-1.48 1.42-1.53 1.36-1.58 1.3-1.63 1.25-1.67 1.18-1.73 1.12-1.77 1.05-1.81.99-1.85.91-1.9.85-1.93.77-1.97.7-2 .63-2.04.54-2.06.47-2.1.39-2.12.3-2.15.23-2.18.13-2.2.05-2.2-.05-2.17-.13-2.15-.22-2.13-.3-2.1-.39-2.06-.46-2.04-.55-2-.62-1.97-.7-1.94-.77-1.89-.85-1.86-.92-1.81-.98-1.77-1.05-1.73-1.12-1.67-1.18-1.63-1.25-1.59-1.3-1.52-1.36-1.48-1.42-1.42-1.48-1.36-1.53-1.31-1.58-1.24-1.63-1.18-1.68-1.12-1.72-1.05-1.77-.99-1.82-.91-1.85-.85-1.9-.77-1.93-.7-1.97-.62-2-.55-2.04-.47-2.07-.38-2.1-.3-2.12-.22-2.15-.14-2.18-.04-2.2.04-2.2.14-2.17.22-2.15.3-2.13.38-2.1.47-2.06.55-2.04.62-2 .7-1.97.77-1.94.85-1.89.91-1.86.99-1.81 1.05-1.77 1.12-1.73 1.18-1.67 1.24-1.63 1.31-1.59 1.36-1.52 1.42-1.48 1.48-1.42 1.52-1.36 1.59-1.31 1.63-1.24 1.67-1.18 1.73-1.12 1.77-1.05 1.81-.99 1.86-.91 1.89-.85 1.94-.77 1.97-.7 2-.62 2.04-.55 2.06-.47 2.1-.38 2.13-.3 2.15-.22 2.17-.14 2.2-.04 2.2.04 2.18.14zm-7 21.26l-1.29.13-1.28.18-1.26.23-1.24.28-1.22.33-1.2.37-1.18.42-1.16.47-1.14.51-1.11.55-1.09.59-1.06.63-1.04.67-1.01.71-.97.74-.95.79-.92.81-.88.86-.86.88-.81.92-.79.95-.74.97-.71 1.01-.67 1.04-.63 1.06-.59 1.09-.55 1.11-.51 1.14-.47 1.16-.42 1.18-.37 1.2-.33 1.22-.28 1.24-.23 1.26-.18 1.28-.13 1.29-.08 1.3-.03 1.32.03 1.32.08 1.31.13 1.29.18 1.27.23 1.26.28 1.24.33 1.23.37 1.2.42 1.18.47 1.16.51 1.14.55 1.11.59 1.09.63 1.06.67 1.03.71 1.01.74.98.79.95.81.92.86.88.88.85.92.82.95.78.97.75 1.01.71 1.04.67 1.06.63 1.09.59 1.11.55 1.14.51 1.16.46 1.18.42 1.2.38 1.22.32 1.24.28 1.26.23 1.28.19 1.29.13 1.3.08 1.32.02 1.32-.02 1.31-.08 1.29-.13 1.27-.19 1.26-.23 1.24-.28 1.23-.32 1.2-.38 1.18-.42 1.16-.46 1.14-.51 1.11-.55 1.09-.59 1.06-.63 1.03-.67 1.01-.71.98-.75.95-.78.92-.82.88-.85.85-.88.82-.92.78-.95.75-.98.71-1.01.67-1.03.63-1.06.59-1.09.55-1.11.51-1.14.46-1.16.42-1.18.38-1.2.32-1.23.28-1.24.23-1.26.19-1.27.13-1.29.08-1.31.02-1.32-.02-1.32-.08-1.3-.13-1.29-.19-1.28-.23-1.26-.28-1.24-.32-1.22-.38-1.2-.42-1.18-.46-1.16-.51-1.14-.55-1.11-.59-1.09-.63-1.06-.67-1.04-.71-1.01-.75-.97-.78-.95-.82-.92-.85-.88-.88-.86-.92-.81-.95-.79-.98-.74-1.01-.71-1.03-.67-1.06-.63-1.09-.59-1.11-.55-1.14-.51-1.16-.47-1.18-.42-1.2-.37-1.23-.33-1.24-.28-1.26-.23-1.27-.18-1.29-.13-1.31-.08-1.32-.03-1.32.03-1.3.08z" id="a"/><path d="M89.09 391.41l1.14.11 1.14.15 1.13.2 1.13.24 1.13.29 1.11.34 1.11.37 1.1.43 1.09.47 1.07.51 1.06.56 1.05.61 1.02.66 1.02.7.99.75.94.77.9.81.87.83.83.87.79.89.74.92.71.95.67.96.62.99.59 1.01.55 1.03.5 1.05.46 1.07.42 1.08.38 1.09.34 1.11.29 1.12.25 1.13.21 1.13.16 1.15.12 1.15.07 1.15.04 1.16-.02 1.16-.06 1.16-.1 1.16-.15 1.16-.19 1.16-.24 1.15-.29 1.14-.33 1.14-.38 1.13-.43 1.12-.47 1.1-.52 1.1-.57 1.08-.62 1.06-.67 1.05-20.82 31.24h173.48l-20.82-31.24-.65-1.03-.61-1.04-.56-1.06-.52-1.08-.47-1.08-.42-1.1-.38-1.11-.33-1.12-.29-1.12-.24-1.13-.2-1.14-.16-1.14-.11-1.14-.07-1.14-.02-1.14.02-1.14.06-1.14.11-1.14.14-1.12.19-1.13.23-1.11.28-1.11.31-1.09.36-1.08.4-1.07.43-1.06.48-1.04.52-1.02.56-1 .6-.99.64-.96.68-.95.71-.91.76-.9.79-.87.83-.84.88-.81.9-.79.95-.75.98-.72 1.04-.69 1.04-.65 1.07-.59 1.08-.55 1.09-.5 1.11-.46 1.12-.41 1.13-.36 1.13-.32 1.15-.27 1.15-.22 1.15-.18 1.16-.13 1.16-.09 1.16-.04h1.16l1.16.05 1.15.09 1.15.13 1.14.18 1.13.22 1.13.26 1.12.31 1.1.35 1.09.39 1.08.44 1.06.47 1.04.52 1.03.56 1 .6.98.65.97.68.93.72.92.77.88.8.86.85.83.88.8.92.77.97.73 1 52.17 74.55.3.44.3.44.29.45.28.45.27.46.27.46.26.46.25.46.25.47.23.48.23.47.23.48.21.49.21.48.2.49.19.49.19.5.18.5.17.5.16.5.15.5.15.51.14.51.13.51.13.51.11.52.11.52.1.52.1.52.08.52.08.52.07.53.06.53.05.52.04.53.04.53.03.53.02.54.01.53.01.53-.03 1.44-.09 1.41-.14 1.4-.2 1.39-.25 1.37-.3 1.34-.36 1.33-.4 1.31-.46 1.28-.5 1.26-.55 1.23-.6 1.21-.64 1.18-.68 1.16-.73 1.12-.77 1.09-.81 1.07-.85 1.03-.89.99-.92.96-.96.93-1 .89-1.03.85-1.06.81-1.09.77-1.13.72-1.15.69-1.18.64-1.21.6-1.23.55-1.26.5-1.29.46-1.3.41-1.33.35-1.35.31-1.36.25-1.39.19-1.4.15-1.41.08-1.44.03h-75.36v96l-.01.44-.02.44-.05.43-.06.42-.07.42-.1.42-.11.4-.12.4-.14.4-.15.39-.17.37-.19.38-.19.36-.21.35-.23.35-.23.33-.25.33-.26.31-.28.31-.28.3-.3.28-.3.27-.32.26-.32.25-.34.24-.34.22-.36.21-.36.2-.37.18-.38.17-.39.16-.39.14-.4.12-.41.11-.41.09-.42.08-.43.06-.43.04-.43.03-.44.01H124.38l-.44-.01-.43-.03-.44-.04-.42-.06-.42-.08-.41-.09-.41-.11-.4-.12-.4-.14-.38-.16-.38-.17-.37-.18-.36-.2-.36-.21-.34-.22-.34-.24-.33-.25-.31-.26-.31-.27-.29-.28-.29-.3-.27-.31-.26-.31-.25-.33-.23-.33-.23-.35-.21-.35-.2-.36-.18-.38-.17-.37-.15-.39-.14-.4-.13-.4-.11-.4-.09-.42-.08-.42-.06-.42-.04-.43-.03-.44-.01-.44v-96H37.82l-.53-.01-.54-.02-.53-.03-.53-.04-.53-.04-.52-.06-.53-.06-.53-.07-.52-.07-.52-.09-.52-.09-.52-.1-.52-.11-.52-.12-.51-.12-.51-.13-.51-.14-.51-.15-.5-.15-.5-.17-.5-.17-.5-.17-.5-.19-.49-.19-.49-.2-.48-.21-.49-.22-.48-.22-.47-.23-.48-.24-.47-.24-.46-.25-.47-.26-.45-.27-.46-.27-.45-.28-.45-.29-.44-.3-.44-.3-1.16-.85-1.11-.88-1.07-.92-1.02-.95-.98-.99-.93-1.02-.88-1.06-.84-1.08-.79-1.11-.74-1.13-.69-1.16-.65-1.18-.6-1.2-.55-1.23-.51-1.24-.45-1.26-.41-1.27-.36-1.28-.3-1.3-.26-1.31-.21-1.32-.15-1.32-.11-1.33-.05-1.34-.01-1.34.05-1.33.1-1.34.15-1.34.2-1.33.26-1.33.31-1.32.36-1.31.42-1.3.47-1.29.52-1.28.58-1.26.63-1.25.69-1.23.74-1.21.79-1.19 52.18-74.55.72-.99.75-.94.78-.91.81-.87.85-.83.86-.8.9-.75.92-.72.94-.68.96-.64.99-.6 1-.55 1.03-.52 1.04-.48 1.05-.44 1.07-.4 1.08-.35 1.1-.32 1.1-.27 1.12-.23 1.12-.19 1.13-.15 1.13-.1 1.14-.07 1.14-.02 1.14.03 1.15.07zm-2.88 21.14l-.34.03-.33.04-.33.06-.33.07-.33.08-.32.09-.33.11-.31.12-.31.13-.31.14-.3.15-.3.17-.29.18-.29.19-.27.2-.28.22-.26.22-.25.24-.25.25-.24.26-.23.27-.22.29-.21.29-52.21 74.55-.12.17-.11.17-.12.18-.11.17-.1.18-.1.17-.1.18-.1.18-.1.19-.09.18-.09.18-.08.19-.09.18-.08.19-.08.19-.07.19-.07.19-.07.19-.07.2-.06.19-.06.2-.06.19-.05.2-.05.2-.05.2-.04.2-.05.2-.03.2-.04.2-.03.2-.03.2-.03.21-.02.2-.02.2-.02.21-.01.2-.01.21-.01.2-.01.21v.21l.01.55.04.55.05.54.08.53.09.53.12.52.14.51.16.5.17.5.2.48.21.48.23.47.25.45.26.45.28.43.3.42.31.41.33.4.34.38.36.38.37.35.39.34.39.33.41.31.43.3.43.28.45.27.45.24.47.23.47.22.49.19.5.18.5.15.51.14.52.12.53.09.53.08.54.06.55.03.55.01h86.03l.44.01.43.03.44.04.42.06.42.08.41.09.41.11.4.12.4.14.38.16.38.17.37.18.36.2.36.21.34.22.34.24.33.25.31.26.31.27.29.28.29.3.27.31.26.31.25.33.23.33.23.35.21.35.2.36.18.38.17.37.15.39.14.4.13.4.11.4.09.42.08.42.06.42.04.43.03.44.01.44v96h85.33v-96l.01-.44.03-.44.04-.43.06-.42.08-.42.09-.42.11-.4.12-.4.14-.4.16-.39.17-.37.18-.38.2-.36.21-.35.22-.35.24-.33.25-.33.26-.31.27-.31.28-.3.3-.28.31-.27.31-.26.33-.25.33-.24.35-.22.35-.21.36-.2.38-.18.37-.17.39-.16.4-.14.4-.12.4-.11.42-.09.42-.08.42-.06.43-.04.44-.03.44-.01h86.44l.21-.01.2-.01.21-.02.2-.01.21-.02.21-.03.2-.02.2-.03.21-.03.2-.04.2-.04.2-.04.2-.04.2-.05.2-.05.2-.06.2-.05.19-.06.2-.07.19-.06.2-.07.19-.07.19-.08.19-.07.19-.08.19-.09.19-.08.18-.09.19-.1.18-.09.18-.1.18-.1.18-.1.18-.11.17-.11.18-.11.17-.12.17-.12.45-.32.43-.34.41-.36.39-.37.38-.38.36-.39.34-.41.32-.42.31-.42.28-.44.27-.45.25-.46.23-.46.21-.47.2-.48.17-.49.16-.49.14-.49.12-.5.09-.51.08-.51.06-.51.05-.51.02-.52v-.51l-.02-.52-.04-.52-.06-.51-.08-.52-.1-.51-.12-.51-.14-.51-.16-.5-.18-.5-.2-.49-.22-.49-.25-.48-.26-.47-.29-.47-.31-.46-52.23-74.55-.21-.29-.22-.29-.23-.27-.24-.26-.25-.25-.25-.24-.27-.22-.27-.22-.27-.2-.29-.19-.29-.18-.3-.17-.3-.15-.31-.14-.31-.13-.32-.12-.32-.11-.32-.09-.33-.08-.33-.07-.33-.06-.33-.04-.34-.03-.34-.02h-.67l-.34.03-.34.03-.34.05-.33.06-.34.07-.33.09-.33.1-.33.12-.32.13-.32.14-.32.16-.31.17-.31.18-.3.2-.3.21-.28.22-.27.23-.26.24-.25.24-.24.26-.23.26-.21.27-.2.28-.2.29-.17.29-.17.29-.16.31-.14.3-.13.32-.12.31-.1.32-.1.33-.08.33-.07.33-.05.33-.05.33-.03.34-.01.33-.01.34.01.34.02.34.03.34.05.33.06.34.08.34.09.33.1.33.11.33.13.32.14.32.16.32.17.31.18.31.2.3 31.87 47.82.09.13.09.14.08.13.08.13.08.14.07.14.08.14.07.14.07.14.07.14.06.14.07.14.06.15.06.14.06.15.05.14.05.15.05.15.05.15.05.15.04.15.05.15.04.15.03.15.04.15.03.16.03.15.03.15.03.16.02.15.02.16.02.15.02.16.02.16.01.15.01.16.01.16v.16l.01.15v.16l-.01.44-.03.44-.04.43-.06.42-.08.42-.09.41-.11.41-.13.4-.14.4-.15.38-.17.38-.18.37-.2.37-.21.35-.22.34-.24.34-.25.33-.26.31-.27.31-.29.29-.29.29-.31.27-.31.26-.33.25-.34.24-.34.22-.36.21-.36.2-.37.18-.38.17-.38.15-.4.14-.4.13-.41.11-.41.09-.42.08-.42.06-.44.04-.43.03-.44.01H70.89l-.16-.01h-.16l-.15-.01-.16-.01-.16-.02-.15-.01-.16-.02-.16-.02-.15-.02-.16-.02-.15-.03-.15-.03-.16-.03-.15-.03-.15-.04-.16-.04-.15-.04-.15-.04-.15-.04-.15-.05-.14-.05-.15-.05-.15-.05-.15-.06-.14-.05-.15-.06-.14-.06-.14-.07-.15-.06-.14-.07-.14-.07-.14-.07-.14-.08-.13-.07-.14-.08-.14-.08-.13-.09-.13-.08-.13-.09-.37-.25-.34-.26-.34-.28-.32-.28-.3-.3-.3-.31-.27-.31-.27-.33-.25-.34-.23-.34-.23-.35-.2-.36-.19-.36-.18-.37-.17-.38-.14-.39-.14-.38-.11-.4-.11-.39-.09-.4-.07-.4-.05-.41-.05-.41-.02-.41-.01-.41v-.41l.02-.41.04-.41.06-.41.06-.41.09-.41.1-.4.12-.41.14-.4.15-.39.17-.39.18-.39.21-.38.22-.38.23-.37 31.91-47.82.19-.3.19-.31.17-.31.15-.32.15-.32.13-.32.11-.33.1-.33.09-.33.07-.34.07-.34.04-.33.04-.34.02-.34.01-.34-.01-.34-.01-.33-.03-.34-.05-.33-.05-.33-.07-.33-.08-.33-.1-.33-.1-.32-.12-.31-.13-.32-.14-.3-.16-.31-.17-.29-.18-.29-.19-.29-.2-.28-.21-.27-.23-.26-.24-.26-.25-.24-.26-.24-.27-.23-.28-.22-.3-.21-.3-.2-.31-.18-.31-.17-.32-.16-.32-.14-.32-.13-.33-.12-.33-.1-.33-.09-.34-.07-.33-.06-.34-.05-.34-.03-.34-.03h-.67l-.34.02z" id="b"/><path d="M167.05 160c-17.68 0-32 14.33-32 32h21.33c0-5.89 4.78-10.67 10.67-10.67h32c5.89 0 10.66 4.78 10.66 10.67s-4.77 10.67-10.66 10.67c-17.68 0-32 14.32-32 32h21.33c0-5.89 4.78-10.67 10.67-10.67 17.67 0 32-14.33 32-32s-14.33-32-32-32h-32z" id="c"/><path d="M188.38 245.33v21.34h-21.33v-21.34h21.33z" id="d"/><path d="M187.32 117.65l4.73.4 4.67.54 4.61.7 4.54.84 4.48.98 4.41 1.13 4.33 1.26 4.25 1.39 4.17 1.52 4.08 1.65 3.99 1.78 3.89 1.9 3.8 2.01 3.69 2.13 3.59 2.24 3.48 2.35 3.36 2.45 3.25 2.56 3.13 2.66 3 2.75 2.87 2.85 2.74 2.93 2.6 3.02 2.46 3.11 2.32 3.19 2.17 3.26 2.02 3.34 1.86 3.41 1.7 3.48 1.54 3.54 1.38 3.61 1.2 3.66 1.03 3.72.85 3.77.67 3.82.48 3.87.29 3.91.1 3.95-.07 3.23-.19 3.2-.32 3.17-.45 3.15-.57 3.12-.69 3.09-.81 3.06-.93 3.02-1.04 2.99-1.16 2.95-1.27 2.9-1.39 2.87-1.49 2.82-1.6 2.78-1.7 2.73-1.81 2.67-1.9 2.63-2.01 2.58-2.11 2.51-2.2 2.47-2.3 2.4-2.39 2.34-2.48 2.28-2.57 2.21-2.66 2.15-2.74 2.08-2.83 2.01-2.9 1.93-2.99 1.87-3.07 1.78-3.14 1.71-3.22 1.63-3.29 1.55-3.36 1.46-3.43 1.38-3.49 1.29-3.57 1.2-3.62 1.11-3.69 1.02-3.75.92-23.6 31.48-.05.06-.05.06-.04.06-.05.06-.05.06-.04.05-.05.06-.05.06-.05.06-.05.06-.05.05-.05.06-.05.06-.05.05-.05.06-.05.05-.06.06-.05.05-.05.06-.05.05-.06.05-.05.06-.06.05-.05.05-.06.05-.05.05-.06.05-.05.05-.06.05-.06.05-.06.05-.05.05-.06.05-.06.05-.06.05-.06.04-.06.05-.06.05-.06.04-.06.05-.35.26-.37.24-.37.22-.37.21-.39.19-.38.17-.39.16-.4.14-.4.12-.4.11-.41.09-.4.08-.41.06-.41.04-.41.03-.41.01h-.41l-.41-.02-.41-.03-.41-.05-.4-.07-.4-.08-.4-.1-.39-.11-.39-.13-.39-.14-.38-.15-.38-.18-.37-.18-.36-.2-.35-.22-.35-.23-.34-.25-.33-.26-.33-.27-.31-.29-.3-.31-.3-.31-.28-.34-.27-.34-23.61-31.48-3.74-.92-3.69-1.02-3.63-1.11-3.56-1.2-3.5-1.29-3.43-1.38-3.36-1.46-3.29-1.55-3.21-1.63-3.15-1.71-3.06-1.78-2.99-1.87-2.91-1.93-2.82-2.01-2.75-2.08-2.65-2.15-2.57-2.21-2.48-2.28-2.39-2.34-2.3-2.4-2.2-2.47-2.11-2.51-2.01-2.58-1.91-2.63-1.8-2.67-1.71-2.73-1.6-2.78-1.49-2.82-1.38-2.87-1.27-2.9-1.16-2.95-1.05-2.99-.92-3.02-.81-3.06-.7-3.09-.56-3.12-.45-3.15-.32-3.17-.2-3.2-.06-3.23.1-3.95.29-3.91.48-3.87.67-3.82.85-3.77 1.03-3.72 1.2-3.66 1.37-3.61 1.54-3.54 1.71-3.48 1.86-3.41 2.02-3.34 2.17-3.26 2.32-3.19 2.46-3.11 2.6-3.02 2.74-2.93 2.87-2.85 3-2.75 3.13-2.66 3.24-2.56 3.37-2.45 3.48-2.35 3.58-2.24 3.7-2.13 3.8-2.01 3.89-1.9 3.99-1.78 4.08-1.65 4.17-1.52 4.25-1.39 4.33-1.26 4.4-1.13 4.48-.98 4.55-.84 4.61-.7 4.67-.54 4.72-.4 4.78-.24 4.83-.08 4.83.08 4.78.24zm-17.47 21.26l-3.87.31-3.82.43-3.77.54-3.72.65-3.66.77-3.61.87-3.54.98-3.48 1.08-3.41 1.19-3.34 1.28-3.26 1.39-3.19 1.47-3.11 1.57-3.02 1.65-2.93 1.75-2.85 1.83-2.75 1.9-2.66 1.99-2.56 2.07-2.45 2.14-2.35 2.22-2.24 2.28-2.13 2.35-2.01 2.42-1.9 2.47-1.78 2.54-1.65 2.6-1.52 2.65-1.39 2.71-1.26 2.75-1.13 2.81-.98 2.84-.84 2.9-.7 2.93-.54 2.97-.4 3.01-.24 3.04-.08 3.07.06 2.55.16 2.52.28 2.5.38 2.49.48 2.46.59 2.44.69 2.41.79 2.38.89 2.36.98 2.33 1.08 2.29 1.18 2.26 1.26 2.22 1.36 2.19 1.45 2.15 1.53 2.11 1.62 2.07 1.7 2.03 1.79 1.98 1.87 1.93 1.95 1.89 2.03 1.84 2.1 1.78 2.18 1.74 2.25 1.68 2.32 1.62 2.39 1.57 2.46 1.51 2.53 1.44 2.6 1.39 2.65 1.32 2.73 1.26 2.78 1.19 2.84 1.12 2.89 1.05 2.96.98 3.01.91 3.06.83 3.11.76 3.16.68.19.04.19.04.19.05.19.05.19.06.18.05.19.06.18.07.18.07.18.07.18.07.18.08.17.08.18.08.17.09.17.09.17.09.16.1.17.09.16.11.17.1.16.11.15.11.16.11.15.12.16.12.15.12.14.12.15.13.14.13.14.13.14.14.14.13.13.15.13.14.13.14.13.15.12.15.12.16.12.15 17.46 23.28 17.49-23.28.11-.15.13-.16.12-.15.13-.15.13-.14.13-.14.13-.14.14-.14.14-.14.14-.13.14-.13.15-.13.14-.12.15-.12.15-.12.16-.12.15-.11.16-.11.16-.11.16-.1.17-.1.16-.1.17-.1.17-.09.17-.09.17-.09.18-.08.17-.08.18-.08.18-.07.18-.07.18-.07.18-.07.19-.06.18-.05.19-.06.19-.05.18-.05.19-.04.2-.04 3.16-.68 3.11-.76 3.06-.83 3-.91 2.96-.98 2.89-1.05 2.84-1.12 2.78-1.19 2.72-1.26 2.66-1.32 2.59-1.39 2.53-1.44 2.46-1.51 2.39-1.57 2.33-1.62 2.25-1.68 2.17-1.74 2.11-1.78 2.02-1.84 1.95-1.89 1.87-1.93 1.78-1.98 1.71-2.03 1.62-2.07 1.53-2.11 1.45-2.15 1.36-2.19 1.26-2.22 1.18-2.26 1.08-2.29.98-2.33.89-2.36.79-2.38.69-2.41.59-2.44.48-2.46.38-2.49.27-2.5.17-2.52.05-2.55-.08-3.07-.24-3.04-.39-3.01-.55-2.97-.69-2.93-.84-2.9-.99-2.84-1.12-2.81-1.26-2.75-1.39-2.71-1.53-2.65-1.65-2.6-1.77-2.54-1.9-2.47-2.01-2.42-2.13-2.35-2.24-2.28-2.35-2.22-2.46-2.14-2.55-2.07-2.66-1.99-2.75-1.9-2.85-1.83-2.94-1.75-3.02-1.65-3.1-1.57-3.19-1.47-3.26-1.39-3.34-1.28-3.41-1.19-3.48-1.08-3.54-.98-3.61-.87-3.66-.77-3.72-.65-3.77-.54-3.83-.43-3.86-.31-3.92-.18-3.95-.06-3.95.06-3.91.18z" id="e"/><path d="M491.42 213.51l2.15.22 2.13.3 2.1.39 2.06.46 2.04.55 2 .62 1.97.7 1.94.77 1.89.85 1.86.92 1.81.98 1.77 1.05 1.73 1.12 1.67 1.18 1.63 1.25 1.59 1.3 1.52 1.36 1.48 1.42 1.42 1.48 1.36 1.53 1.31 1.58 1.24 1.63 1.18 1.68 1.12 1.72 1.05 1.77.99 1.82.91 1.85.85 1.9.77 1.93.7 1.97.62 2 .55 2.04.47 2.07.38 2.1.3 2.12.22 2.15.14 2.18.04 2.2-.04 2.2-.14 2.17-.22 2.15-.3 2.13-.38 2.1-.47 2.06-.55 2.04-.62 2-.7 1.97-.77 1.94-.85 1.89-.91 1.86-.99 1.81-1.05 1.77-1.12 1.73-1.18 1.67-1.24 1.63-1.31 1.59-1.36 1.52-1.42 1.48-1.48 1.42-1.52 1.36-1.59 1.31-1.63 1.24-1.67 1.18-1.73 1.12-1.77 1.05-1.81.99-1.86.91-1.89.85-1.94.77-1.97.7-2 .62-2.04.55-2.06.47-2.1.38-2.13.3-2.15.22-2.17.14-2.2.04-2.2-.04-2.18-.14-2.15-.22-2.12-.3-2.1-.38-2.07-.47-2.04-.55-2-.62-1.97-.7-1.93-.77-1.9-.85-1.85-.91-1.82-.99-1.77-1.05-1.72-1.12-1.68-1.18-1.63-1.24-1.58-1.31-1.53-1.36-1.48-1.42-1.42-1.48-1.36-1.52-1.3-1.59-1.25-1.63-1.18-1.67-1.12-1.73-1.05-1.77-.98-1.81-.92-1.86-.85-1.89-.77-1.94-.7-1.97-.62-2-.55-2.04-.46-2.06-.39-2.1-.3-2.13-.22-2.15-.13-2.17-.05-2.2.05-2.2.13-2.18.23-2.15.3-2.12.39-2.1.47-2.06.54-2.04.63-2 .7-1.97.77-1.93.85-1.9.91-1.85.99-1.81 1.05-1.77 1.12-1.73 1.18-1.67 1.25-1.63 1.3-1.58 1.36-1.53 1.42-1.48 1.48-1.42 1.53-1.36 1.58-1.3 1.63-1.25 1.67-1.18 1.73-1.12 1.77-1.05 1.81-.99 1.85-.91 1.9-.85 1.93-.77 1.97-.7 2-.63 2.04-.54 2.06-.47 2.1-.39 2.12-.3 2.15-.23 2.18-.13 2.2-.05 2.2.05 2.17.13zm-7 21.26l-1.29.13-1.27.19-1.26.23-1.24.28-1.23.32-1.2.38-1.18.42-1.16.46-1.14.51-1.11.55-1.09.59-1.06.63-1.03.67-1.01.71-.98.75-.95.78-.92.82-.88.85-.85.88-.82.92-.78.95-.75.98-.71 1.01-.67 1.03-.63 1.06-.59 1.09-.55 1.11-.51 1.14-.46 1.16-.42 1.18-.38 1.2-.32 1.23-.28 1.24-.23 1.26-.19 1.27-.13 1.29-.08 1.31-.02 1.32.02 1.32.08 1.3.13 1.29.19 1.28.23 1.26.28 1.24.32 1.22.38 1.2.42 1.18.46 1.16.51 1.14.55 1.11.59 1.09.63 1.06.67 1.04.71 1.01.75.97.78.95.82.92.85.88.88.86.92.81.95.79.98.74 1.01.71 1.03.67 1.06.63 1.09.59 1.11.55 1.14.51 1.16.47 1.18.42 1.2.37 1.23.33 1.24.28 1.26.23 1.27.18 1.29.13 1.31.08 1.32.03 1.32-.03 1.3-.08 1.29-.13 1.28-.18 1.26-.23 1.24-.28 1.22-.33 1.2-.37 1.18-.42 1.16-.47 1.14-.51 1.11-.55 1.09-.59 1.06-.63 1.04-.67 1.01-.71.97-.74.95-.79.92-.81.88-.86.86-.88.81-.92.79-.95.74-.97.71-1.01.67-1.04.63-1.06.59-1.09.55-1.11.51-1.14.47-1.16.42-1.18.37-1.2.33-1.22.28-1.24.23-1.26.18-1.28.13-1.29.08-1.3.03-1.32-.03-1.32-.08-1.31-.13-1.29-.18-1.27-.23-1.26-.28-1.24-.33-1.23-.37-1.2-.42-1.18-.47-1.16-.51-1.14-.55-1.11-.59-1.09-.63-1.06-.67-1.03-.71-1.01-.74-.98-.79-.95-.81-.92-.86-.88-.88-.85-.92-.82-.95-.78-.97-.75-1.01-.71-1.04-.67-1.06-.63-1.09-.59-1.11-.55-1.14-.51-1.16-.46-1.18-.42-1.2-.38-1.22-.32-1.24-.28-1.26-.23-1.28-.19-1.29-.13-1.3-.08-1.32-.02-1.32.02-1.31.08z" id="f"/><path d="M555.42.18l2.15.22 2.12.31 2.1.38 2.07.47 2.03.55 2 .62 1.97.7 1.94.78 1.89.84 1.85.92 1.82.99 1.77 1.05 1.72 1.12 1.68 1.18 1.63 1.24 1.58 1.31 1.53 1.36 1.47 1.42 1.42 1.47 1.36 1.53 1.31 1.58 1.24 1.63 1.18 1.68 1.12 1.72 1.05 1.77.99 1.82.92 1.85.84 1.89.78 1.94.7 1.97.62 2 .55 2.03.47 2.07.38 2.1.31 2.12.22 2.15.13 2.18.05 2.19v64l-.05 2.2-.13 2.18-.22 2.15-.31 2.12-.38 2.1-.47 2.06-.55 2.04-.62 2-.7 1.97-.78 1.93-.84 1.9-.92 1.85-.99 1.81-1.05 1.77-1.12 1.73-1.18 1.67-1.24 1.63-1.31 1.58-1.36 1.53-1.42 1.48-1.47 1.42-1.53 1.36-1.58 1.3-1.63 1.25-1.68 1.18-1.72 1.12-1.77 1.05-1.82.99-1.85.91-1.89.85-1.94.77-1.97.7-2 .63-2.03.54-2.07.47-2.1.39-2.12.3-2.15.23-2.18.13-2.19.05h-27.59l-28.87 28.87-.32.31-.33.28-.33.28-.34.26-.36.24-.35.22-.37.21-.37.2-.38.18-.38.16-.39.15-.39.13-.4.12-.39.1-.41.09-.4.07-.41.05-.41.04-.4.03h-.82l-.41-.03-.41-.04-.41-.05-.4-.07-.4-.09-.4-.1-.4-.12-.39-.13-.39-.15-.38-.16-.38-.18-.37-.2-.36-.21-.36-.22-.35-.24-.35-.26-.33-.28-.33-.28-.31-.31-28.88-28.87h-27.58l-2.2-.05-2.18-.13-2.15-.23-2.12-.3-2.1-.39-2.06-.47-2.04-.54-2-.63-1.97-.7-1.93-.77-1.9-.85-1.85-.91-1.81-.99-1.77-1.05-1.73-1.12-1.67-1.18-1.63-1.25-1.58-1.3-1.53-1.36-1.48-1.42-1.42-1.48-1.36-1.53-1.3-1.58-1.25-1.63-1.18-1.67-1.12-1.73-1.05-1.77-.99-1.81-.91-1.85-.85-1.9-.77-1.93-.7-1.97-.63-2-.54-2.04-.47-2.06-.39-2.1-.3-2.12-.23-2.15-.13-2.18-.05-2.2v-64l.05-2.19.13-2.18.23-2.15.3-2.12.39-2.1.47-2.07.54-2.03.63-2 .7-1.97.77-1.94.85-1.89.91-1.85.99-1.82 1.05-1.77 1.12-1.72 1.18-1.68 1.25-1.63 1.3-1.58 1.36-1.53 1.42-1.47 1.48-1.42 1.53-1.36 1.58-1.31 1.63-1.24 1.67-1.18 1.73-1.12 1.77-1.05 1.81-.99 1.85-.92 1.9-.84 1.93-.78 1.97-.7 2-.62 2.04-.55 2.06-.47 2.1-.38 2.12-.31 2.15-.22 2.18-.13 2.2-.05h128l2.19.05 2.18.13zM421.73 21.36l-1.31.08-1.29.13-1.27.18-1.26.23-1.24.28-1.23.33-1.2.37-1.18.42-1.16.47-1.14.51-1.11.55-1.09.59-1.06.63-1.03.67-1.01.71-.98.74-.95.79-.92.81-.88.86-.85.88-.82.92-.78.95-.75.97-.71 1.01-.67 1.04-.63 1.06-.59 1.09-.55 1.11-.51 1.14-.46 1.16-.42 1.18-.38 1.2-.32 1.22-.28 1.24-.23 1.26-.19 1.28-.13 1.29-.08 1.3-.02 1.32v64l.02 1.32.08 1.31.13 1.29.19 1.27.23 1.26.28 1.24.32 1.23.38 1.2.42 1.18.46 1.16.51 1.14.55 1.11.59 1.09.63 1.06.67 1.03.71 1.01.75.98.78.95.82.92.85.88.88.85.92.82.95.78.98.75 1.01.71 1.03.67 1.06.63 1.09.59 1.11.55 1.14.51 1.16.46 1.18.42 1.2.38 1.23.32 1.24.28 1.26.23 1.27.19 1.29.13 1.31.08 1.32.02h32l.21.01h.21l.21.01.21.02.21.02.21.02.21.03.21.03.2.03.21.04.2.04.21.05.2.05.2.06.2.05.2.07.19.06.2.07.2.08.19.08.19.08.19.08.19.09.18.09.19.1.18.1.18.1.18.11.18.11.17.12.18.11.17.13.17.12.16.13.17.13.16.14.16.13.15.15.16.14.15.15 24.46 24.46 24.46-24.46.15-.15.15-.14.16-.15.16-.13.16-.14.16-.13.17-.13.17-.12.17-.13.17-.11.17-.12.18-.11.18-.11.18-.1.18-.1.19-.1.19-.09.18-.09.19-.08.19-.08.2-.08.19-.08.2-.07.2-.06.19-.07.2-.05.21-.06.2-.05.2-.05.21-.04.2-.04.21-.03.21-.03.2-.03.21-.02.21-.02.21-.02.21-.01h.21l.22-.01h32l.88-.02.88-.06.87-.1.87-.14.86-.18.86-.22.86-.26.85-.3.85-.34.84-.38.84-.42.84-.46.83-.5.83-.54.82-.58.82-.62.81-.66.81-.7.81-.74.8-.78.8-.82.79-.86.79-.9.79-.94.78-.98.78-1.02.77-1.06.77-1.1.76-1.14.76-1.18.76-1.22.75-1.26.75-1.3.74-1.34.74-1.38.74-1.42.73-1.46.73-1.5.72-1.54.72-1.58v-64l-.03-1.32-.08-1.3-.13-1.29-.18-1.28-.23-1.26-.28-1.24-.33-1.22-.37-1.2-.42-1.18-.47-1.16-.51-1.14-.55-1.11-.59-1.09-.63-1.06-.67-1.04-.71-1.01-.74-.97-.79-.95-.81-.92-.86-.88-.88-.86-.92-.81-.95-.79-.97-.74-1.01-.71-1.04-.67-1.06-.63-1.09-.59-1.11-.55-1.14-.51-1.16-.47-1.18-.42-1.2-.37-1.22-.33-1.24-.28-1.26-.23-1.28-.18-1.29-.13-1.3-.08-1.32-.03h-128l-1.32.03z" id="g"/><path d="M372.44 245.43l1.3.14 1.31.19 1.16.25 1.15.28 1.13.33 1.11.36 1.09.4 1.07.43 1.05.47 1.03.51 1.01.54.99.57.96.61.94.64.91.66.89.7.87.73.84.75.81.78.78.81.75.84.73.86.69.88.67.91.63.93.61.95.57.97.53.99.51 1.02.47 1.03.43 1.04.4 1.07.36 1.08.33 1.1.29 1.11.25 1.12.21 1.14.17 1.15.13 1.16.09 1.17.05 1.18v53.39h170.67v-11.21l.01-.13v-.27l.01-.14v-.13l.01-.13v-.14l.01-.13.01-.14v-.13l.01-.14.01-.13.01-.13.01-.14.01-.13.01-.14.01-.13.02-.13.01-.14.01-.13.01-.14.02-.13.01-.13.02-.14.02-.13.01-.13.02-.14.02-.13.01-.13.02-.14.02-.13.02-.13.02-.14.02-.13.03-.13.02-.13.24-1.3.3-1.27.34-1.26.4-1.22.43-1.21.49-1.17.52-1.15.57-1.13.61-1.09.65-1.07.69-1.03.73-1.01.76-.97.8-.95.84-.9.87-.88.89-.84.93-.8.96-.77.99-.73 1.02-.7 1.04-.65 1.06-.61 1.09-.58 1.11-.53 1.13-.49 1.16-.44 1.17-.4 1.19-.36 1.2-.31 1.22-.26 1.24-.22 1.25-.17 1.26-.12 1.27-.07 1.28-.02 1.28.04 1.3.08 1.3.14 1.3.2 1.17.24 1.14.29 1.13.32 1.11.37 1.1.39 1.07.44 1.05.47 1.03.51 1.01.54.98.57.97.61.94.63.91.67.89.7.86.72.84.76.81.78.78.81.76.83.72.86.7.89.67.9.63.93.6.96.57.97.54.99.5 1.01.47 1.03.44 1.05.4 1.07.36 1.08.32 1.09.29 1.12.25 1.12.21 1.14.17 1.15.14 1.16.09 1.17.04 1.18.01 1.19v9.53l-.06 2.63-.16 2.61-.26 2.58-.37 2.55-.46 2.52-.56 2.48-.66 2.44-.75 2.41-.84 2.36-.93 2.32-1.01 2.27-1.1 2.23-1.18 2.17-1.27 2.12-1.34 2.07-1.42 2.02-1.49 1.95-1.56 1.9-1.64 1.83-1.7 1.77-1.77 1.71-1.84 1.63-1.89 1.57-1.96 1.49-2.01 1.42-2.07 1.34-2.13 1.26-2.17 1.19-2.23 1.1-2.27 1.01-2.32.93-2.36.84-2.4.75-2.45.65-2.48.57-2.51.46-2.55.37-2.58.26-2.61.16-2.64.06h-21.33v52.39l25.29 143.57.26 1.72.18 1.71.12 1.7.05 1.69-.02 1.68-.09 1.67-.15 1.66-.22 1.64-.28 1.62-.34 1.61-.4 1.58-.47 1.57-.52 1.54-.58 1.51-.64 1.49-.7 1.46-.75 1.44-.8 1.4-.85 1.37-.91 1.33-.96 1.3-1 1.27-1.06 1.22-1.1 1.19-1.15 1.14-1.19 1.1-1.23 1.05-1.28 1.01-1.32.96-1.36.91-1.4.86-1.44.8-1.47.75-1.51.7-1.55.64-1.57.58-1.62.52-1.64.45-1.67.4-1.7.32-1.72.26-1.71.19-1.7.12-1.69.05-1.68-.02-1.67-.09-1.66-.15-1.64-.22-1.62-.28-1.6-.34-1.59-.41-1.56-.46-1.54-.53-1.52-.58-1.49-.64-1.46-.69-1.44-.75-1.4-.8-1.37-.86-1.33-.9-1.3-.96-1.27-1.01-1.22-1.05-1.18-1.1-1.15-1.15-1.1-1.19-1.05-1.24-1.01-1.27-.96-1.32-.91-1.36-.86-1.4-.8-1.44-.75-1.47-.7-1.51-.64-1.55-.58-1.58-.52-1.61-.45-1.64-.4-1.67-.32-1.71-6.4-38.63-6.4 38.62-.33 1.71-.39 1.67-.46 1.64-.52 1.62-.58 1.58-.64 1.54-.69 1.51-.75 1.48-.81 1.44-.86 1.4-.91 1.36-.96 1.32-1.01 1.27-1.05 1.24-1.1 1.19-1.14 1.15-1.19 1.1-1.22 1.06-1.27 1-1.3.96-1.33.91-1.37.86-1.4.8-1.44.75-1.46.69-1.49.64-1.52.59-1.54.52-1.56.46-1.59.41-1.61.34-1.62.28-1.64.22-1.66.15-1.67.09-1.68.02-1.69-.05-1.7-.11-1.71-.19-1.72-.26-1.7-.33-1.68-.39-1.64-.46-1.61-.52-1.58-.57-1.55-.64-1.51-.7-1.47-.75-1.44-.81-1.4-.86-1.36-.91-1.32-.96-1.28-1-1.24-1.06-1.19-1.1-1.15-1.14-1.1-1.18-1.05-1.23-1.01-1.26-.96-1.3-.91-1.34-.85-1.37-.81-1.4-.74-1.43-.7-1.47-.64-1.49-.58-1.51-.53-1.55-.46-1.56-.41-1.59-.34-1.6-.28-1.63-.22-1.64-.15-1.65-.09-1.67-.02-1.69.05-1.69.12-1.7.18-1.71.26-1.72 25.34-143.57v-52.39h-21.34l-2.63-.06-2.61-.16-2.58-.26-2.55-.37-2.52-.46-2.48-.57-2.44-.65-2.41-.75-2.36-.84-2.32-.93-2.27-1.01-2.23-1.1-2.17-1.19-2.12-1.26-2.07-1.34-2.02-1.42-1.95-1.49-1.9-1.57-1.83-1.63-1.77-1.71-1.71-1.77-1.63-1.83-1.57-1.9-1.49-1.95-1.42-2.02-1.34-2.07-1.26-2.12-1.19-2.17-1.1-2.23-1.01-2.27-.93-2.32-.84-2.36-.75-2.41-.65-2.44-.57-2.48-.46-2.52-.37-2.55-.26-2.58-.16-2.61-.06-2.63v-53.61l.01-.13v-.4l.01-.14v-.13l.01-.14v-.13l.01-.14v-.13l.01-.13.01-.14.01-.13v-.14l.01-.13.01-.14.01-.13.01-.13.02-.14.01-.13.01-.14.01-.13.02-.13.01-.14.02-.13.01-.13.02-.14.02-.13.01-.13.02-.14.02-.13.02-.13.02-.14.02-.13.02-.13.02-.14.02-.13.02-.13.25-1.3.29-1.27.35-1.25.39-1.23.44-1.2.48-1.18.53-1.15.57-1.12.61-1.1.65-1.06.69-1.04.72-1.01.77-.97.8-.94.83-.91.87-.88.9-.84.93-.8.96-.77.98-.73 1.02-.69 1.04-.66 1.06-.61 1.09-.57 1.11-.53 1.14-.49 1.15-.45 1.17-.4 1.19-.36 1.21-.31 1.22-.26 1.23-.22 1.25-.17 1.26-.11 1.27-.07 1.28-.02 1.29.03 1.29.09zm-3.61 21.27l-.43.04-.42.06-.42.08-.41.09-.41.11-.4.13-.4.14-.38.15-.38.17-.37.18-.37.2-.35.21-.34.23-.34.23-.33.25-.31.26-.31.28-.29.28-.29.29-.27.31-.26.32-.25.32-.23.34-.23.34-.21.36-.19.36-.19.37-.17.38-.15.39-.14.39-.13.4-.1.41-.1.41-.07.42-.06.43-.05.43-.02.43-.01.44v53.34l.03 1.76.11 1.74.17 1.72.25 1.7.3 1.68.38 1.65.43 1.63.5 1.6.56 1.58.62 1.54.68 1.52.73 1.48.79 1.46.84 1.41.89 1.38.95 1.34.99 1.31 1.05 1.26 1.09 1.23 1.13 1.18 1.18 1.13 1.23 1.09 1.26 1.05 1.31.99 1.34.95 1.38.89 1.41.84 1.46.79 1.48.73 1.52.68 1.54.62 1.58.56 1.6.5 1.63.43 1.65.38 1.68.3 1.7.25 1.72.17 1.74.11 1.76.03h32l.44.01.44.03.43.04.42.06.42.08.42.09.4.11.4.13.4.14.39.15.37.17.38.18.36.2.35.21.35.23.33.23.33.25.31.26.31.27.3.29.28.29.27.31.26.31.25.33.24.34.22.34.21.36.2.36.18.37.17.38.16.38.14.4.12.4.11.41.09.41.08.42.06.42.04.44.03.43.01.44v64.33l-.01.04v.19l-.01.05v.09l-.01.05v.09l-.01.05v.04l-.01.05v.09l-.01.05v.04l-.01.05-.01.05v.04l-.01.05v.05l-.01.04-.01.05-.01.04v.05l-.01.05-.01.04-.01.05v.04l-.01.05-.01.05-25.49 144.49-.01.02v.03l-.01.02v.04l-.01.02v.04l-.01.05-.01.03-.01.05-.01.07-.01.07-.12.84-.08.85-.05.83-.01.84.02.83.05.82.08.81.12.81.15.8.17.79.21.78.24.77.27.75.29.75.32.73.35.71.38.71.4.68.43.67.46.66.48.63.5.62.52.6.55.57.57.56.6.54.61.51.64.49.65.46.68.44.69.42.72.39.73.36.74.34.77.3.78.28.8.25.81.21.83.19.84.15.84.12.85.08.83.05.84.01.83-.02.82-.05.81-.08.81-.12.8-.14.79-.18.78-.21.77-.24.75-.26.75-.3.73-.32.71-.35.71-.38.68-.4.67-.43.66-.46.63-.47.62-.51.6-.52.57-.55.56-.57.54-.6.51-.61.49-.64.46-.65.44-.68.42-.69.39-.71.36-.74.34-.74.3-.77.28-.78.25-.8.21-.81.19-.83.15-.84 16.96-101.76.06-.33.07-.33.09-.33.09-.32.1-.32.11-.31.12-.31.13-.3.14-.3.14-.29.16-.29.16-.28.18-.28.18-.27.19-.27.19-.26.21-.25.21-.25.22-.24.22-.23.24-.23.24-.21.24-.22.26-.2.26-.2.26-.19.27-.18.28-.17.28-.16.29-.16.29-.15.3-.13.31-.13.31-.12.31-.12.32-.1.32-.09.32-.08.33-.07.34-.06.43-.07.44-.05.43-.02.43-.02.42.01.43.02.42.04.41.06.41.07.41.09.4.1.4.12.39.14.38.14.38.17.37.17.37.2.35.2.35.22.34.23.32.24.32.26.31.27.3.28.29.29.28.3.27.31.25.33.24.33.23.35.22.36.21.36.19.37.17.39.16.39.15.4.13.41.11.42.1.42.08.43 16.96 101.77.02.08v.03l.01.05v.03l.01.02v.01l.17.84.2.83.22.8.26.8.29.77.32.76.35.74.37.73.4.71.43.68.45.67.48.65.5.63.52.6.55.59.56.56.59.54.61.51.62.5.64.47.66.44.68.42.69.39.71.36.73.34.73.31.75.29.76.25.77.23.79.19.79.17.8.13.81.1.81.07.83.04.83.01.83-.03.84-.06.84-.1.84-.13.84-.17.82-.2.81-.23.8-.26.77-.28.76-.32.74-.35.73-.37.71-.41.68-.42.67-.45.65-.48.63-.5.6-.52.59-.55.56-.56.54-.59.51-.61.5-.62.46-.64.45-.67.42-.67.39-.7.36-.7.34-.73.31-.73.29-.75.25-.76.22-.77.2-.79.17-.79.13-.8.1-.81.07-.81.04-.83.01-.83-.03-.83-.06-.84-.1-.84-.13-.84-25.5-144.49v-.05l-.01-.05-.01-.04-.01-.05-.01-.04v-.05l-.01-.05-.01-.04-.01-.05v-.04l-.01-.05v-.05l-.01-.04-.01-.05v-.05l-.01-.04v-.05l-.01-.05v-.04l-.01-.05v-.09l-.01-.05v-.09l-.01-.05v-.14l-.01-.04v-.24l-.01-.04V384l.01-.44.03-.43.04-.44.06-.42.08-.42.09-.41.11-.41.13-.4.14-.4.15-.38.17-.38.18-.37.2-.36.21-.36.23-.34.23-.34.25-.33.26-.31.27-.31.29-.29.29-.29.31-.27.31-.26.33-.25.34-.23.34-.23.36-.21.36-.2.37-.18.38-.17.38-.15.4-.14.4-.13.41-.11.41-.09.42-.08.42-.06.44-.04.43-.03.44-.01h32l1.18-.02 1.17-.08 1.16-.14 1.16-.18 1.15-.24 1.15-.3 1.14-.34 1.14-.4 1.13-.46 1.12-.5 1.12-.56 1.12-.62 1.11-.66 1.1-.72 1.1-.78 1.09-.82 1.08-.88 1.08-.94 1.08-.98 1.07-1.04 1.06-1.1 1.06-1.14 1.05-1.2 1.05-1.26 1.04-1.3 1.04-1.36 1.03-1.42 1.02-1.46 1.02-1.52 1.02-1.58 1-1.62 1.01-1.68.99-1.74 1-1.78.98-1.84.98-1.9.98-1.94.97-2 .96-2.06.96-2.1v-10.35l-.02-.4-.04-.4-.04-.4-.07-.39-.07-.39-.09-.39-.1-.38-.11-.38-.13-.37-.14-.36-.15-.37-.16-.35-.17-.35-.19-.34-.2-.34-.2-.32-.22-.33-.23-.31-.24-.3-.25-.3-.26-.29-.27-.28-.28-.27-.28-.27-.3-.25-.31-.24-.31-.23-.32-.23-.33-.21-.34-.2-.35-.19-.36-.18-.36-.17-.37-.15-.37-.14-.39-.13-.39-.12-.39-.11-.24-.04-.23-.03-.24-.03-.23-.02-.24-.02-.24-.02h-.23l-.24-.01h-.23l-.23.01-.24.02-.23.01-.23.03-.23.02-.24.04-.23.04-.22.04-.23.05-.23.05-.22.06-.23.06-.22.07-.22.07-.22.08-.22.08-.22.09-.21.09-.21.1-.21.1-.21.11-.21.11-.2.12-.2.12-.2.12-.2.13-.19.14-.19.14-.19.14-.19.15-.18.15-.18.16-.17.15-.17.16-.17.17-.16.16-.16.18-.15.17-.15.18-.15.18-.14.18-.14.18-.13.19-.13.19-.12.2-.12.19-.12.2-.11.2-.11.2-.1.21-.1.21-.09.21-.09.21-.09.21-.08.22-.08.21-.07.22-.06.22-.07.22-.05.23-.05.22-.05.23-.04.22-.04.23-.04.23-.02.23-.03.24-.01.23-.02.23v.24l-.01.23v10.67l-.01.88-.06.87-.08.86-.13.85-.15.84-.19.82-.21.82-.25.8-.28.79-.31.77-.34.76-.37.74-.39.73-.42.7-.45.69-.47.68-.5.65-.52.63-.55.61-.56.59-.59.57-.62.54-.63.53-.65.49-.67.48-.69.44-.71.42-.73.4-.74.37-.76.33-.77.31-.79.28-.8.25-.81.22-.83.19-.84.15-.85.12-.86.09-.87.05-.88.02H401.71l-.88-.02-.87-.05-.86-.09-.85-.12-.84-.15-.82-.19-.82-.22-.8-.25-.79-.28-.77-.31-.76-.33-.74-.37-.73-.4-.7-.42-.69-.44-.68-.48-.65-.49-.63-.53-.61-.54-.59-.57-.57-.59-.54-.61-.53-.63-.49-.65-.48-.68-.44-.69-.42-.7-.4-.73-.37-.74-.33-.76-.31-.77-.28-.79-.25-.8-.22-.82-.19-.82-.15-.84-.12-.85-.09-.86-.05-.87-.02-.88v-52.2l.01-.41-.01-.4-.02-.41-.03-.4-.05-.4-.06-.39-.08-.39-.09-.39-.1-.38-.11-.37-.13-.37-.13-.37-.16-.36-.16-.36-.17-.34-.19-.35-.19-.33-.21-.33-.22-.32-.23-.32-.24-.3-.25-.3-.25-.29-.27-.28-.28-.27-.29-.26-.3-.26-.3-.24-.32-.23-.32-.22-.33-.22-.34-.2-.35-.19-.35-.18-.36-.16-.37-.16-.38-.14-.38-.13-.39-.12-.4-.1-.05-.01-.04-.01-.05-.01h-.05l-.04-.01-.05-.01-.04-.01h-.05l-.05-.01-.04-.01h-.05l-.05-.01h-.04l-.05-.01h-.05l-.04-.01h-.05l-.05-.01h-.04l-.05-.01h-.09l-.05-.01h-.1l-.04-.01h-.14l-.05-.01h-.24l-.04-.01h-.19l-.44.01-.44.03z" id="h"/><path d="M522.43 45.53l-.26.26c-3.76 3.77-22.58 22.59-56.46 56.46l-13.79-13.79c-4.24-4.09-10.99-3.98-15.08.26-3.99 4.13-3.99 10.69 0 14.82l21.33 21.33c4.17 4.17 10.92 4.17 15.08 0l64-64c4.24-4.09 4.36-10.84.27-15.08-4.1-4.24-10.85-4.35-15.09-.26z" id="i"/></defs><use xlink:href="#a" fill="#ff5252"/><use xlink:href="#a" fill-opacity="0" stroke="#000" stroke-opacity="0"/><use xlink:href="#b" fill="#ff5252"/><use xlink:href="#b" fill-opacity="0" stroke="#000" stroke-opacity="0"/><use xlink:href="#c" fill="#ff5252"/><use xlink:href="#c" fill-opacity="0" stroke="#000" stroke-opacity="0"/><use xlink:href="#d" fill="#ff5252"/><use xlink:href="#d" fill-opacity="0" stroke="#000" stroke-opacity="0"/><use xlink:href="#e" fill="#ff5252"/><use xlink:href="#e" fill-opacity="0" stroke="#000" stroke-opacity="0"/><use xlink:href="#f" fill="#ff5252"/><use xlink:href="#f" fill-opacity="0" stroke="#000" stroke-opacity="0"/><use xlink:href="#g" fill="#ff5252"/><use xlink:href="#g" fill-opacity="0" stroke="#000" stroke-opacity="0"/><use xlink:href="#h" fill="#ff5252"/><use xlink:href="#h" fill-opacity="0" stroke="#000" stroke-opacity="0"/><use xlink:href="#i" fill="#ff5252"/><use xlink:href="#i" fill-opacity="0" stroke="#000" stroke-opacity="0"/></svg>