<svg xmlns="http://www.w3.org/2000/svg" viewBox="0 0 512.001 512.001"><path d="M196.773 267.501c-29.323 0-56.54-14.565-72.805-38.964l-16.251-24.376a7.5 7.5 0 1 1 12.48-8.32l16.251 24.376c13.477 20.215 36.027 32.284 60.324 32.284h107.185c4.143 0 7.5 3.357 7.5 7.5s-3.357 7.5-7.5 7.5H196.773zm217.913 6.644a7.5 7.5 0 0 0-10.542 1.171l-21.985 27.481c-10.018 12.522-24.96 19.704-40.996 19.704H180c-4.143 0-7.5 3.357-7.5 7.5s3.357 7.5 7.5 7.5h161.162c20.617 0 39.829-9.233 52.709-25.333l21.985-27.481a7.5 7.5 0 0 0-1.17-10.542z" fill="#916050"/><path d="M320 89.092v129.696c0 71.015-58.099 127.839-129.115 128.031-.824.002-1.646.016-2.465.04-27.84.822-49.784 24.072-49.784 51.924 0 9.28 4.638 17.946 12.359 23.094l3.917 2.612a27.754 27.754 0 0 1 12.359 23.094v42.418H33.636v-41.806a27.756 27.756 0 0 1 13.153-23.604l7.899-4.887c6.015-3.721 10.327-9.614 12.207-16.432 15.061-54.607 65.239-94.801 124.607-94.635 49.939.14 90.315-40.743 90.315-90.682V89.549c0-10.352 8.05-19.168 18.395-19.536C311.074 69.627 320 78.317 320 89.092z" fill="#a06e5f"/><path d="M512 102.959c0 23.482-19.036 42.519-42.518 42.519h-85.326c-3.426 19.611-20.524 34.523-41.116 34.523H34.224C15.323 180.001 0 164.678 0 145.777a34.223 34.223 0 0 1 14.642-28.068L76.503 74.55a185.803 185.803 0 0 1 106.314-33.421c21.908 0 43.618 3.88 64.136 11.426C268.202 20.233 304.583.001 344.394.001c20.366 0 40.377 5.333 58.042 15.469l88.206 50.61A42.517 42.517 0 0 1 512 102.959z" fill="#7db764"/><path d="M512 102.959c0 23.482-19.036 42.519-42.519 42.519h-85.326c-3.425 19.611-20.523 34.523-41.115 34.523H34.224c-18.519 0-33.593-14.712-34.195-33.084a34.08 34.08 0 0 0 14.195 3.084H323.04c16.524 0 30.798-9.602 37.563-23.529 3.299-6.792 10.304-10.995 17.855-10.995h71.024c23.482 0 42.519-19.036 42.519-42.519 0-2.144-.178-4.26-.493-6.343C504.199 74.307 512 88.068 512 102.959z" fill="#74a45f"/><path d="M247.433 512H43.802c-15.205 0-27.531-12.326-27.531-27.531a27.532 27.532 0 0 1 16.815-25.36l68.68-29.02a122.52 122.52 0 0 1 117.789 12.377l40.791 28.459a22.566 22.566 0 0 1 9.655 18.508C270 501.897 259.896 512 247.433 512z" fill="tan"/><path d="M219.555 442.467l20.313 14.172c.083.782.133 1.571.133 2.366 0 12.463-10.104 22.567-22.567 22.567H16.442c1.045-9.882 7.353-18.536 16.645-22.462l68.68-29.02a122.537 122.537 0 0 1 47.686-9.661 122.533 122.533 0 0 1 70.102 22.038z" fill="#e6c8a0"/><path d="M225.692 192.003c0 15.462-12.535 27.998-27.998 27.998H71.188C53.963 220.001 40 206.038 40 188.813c0-3.74.673-7.449 1.986-10.951l1.433-3.823c11.24-29.974 39.895-49.832 71.907-49.832a76.795 76.795 0 0 1 38.219 10.186l58.082 33.326a27.997 27.997 0 0 1 14.065 24.284zm278.167 63.361l-34.397-23.998a103.321 103.321 0 0 0-99.325-10.437L312.222 245.4a23.215 23.215 0 0 0-14.179 21.385c0 12.821 10.394 23.215 23.216 23.215H492.97c10.51 0 19.03-8.52 19.03-19.03 0-6.219-3.04-12.046-8.141-15.606z" fill="#8ce16e"/><path d="M225.692 192.003c0 15.462-12.535 27.998-27.998 27.998h-14.251A27.878 27.878 0 0 0 190 202.003a28 28 0 0 0-14.064-24.285l-58.082-33.326a76.798 76.798 0 0 0-38.219-10.186c-.754 0-1.504.021-2.254.043a76.67 76.67 0 0 1 37.946-10.043 76.795 76.795 0 0 1 38.219 10.186l58.082 33.326a28 28 0 0 1 14.064 24.285zm278.167 63.361l-34.397-23.998a103.313 103.313 0 0 0-59.114-18.583c-8.801 0-17.544 1.129-26.022 3.336a103.306 103.306 0 0 1 33.137 15.247l34.397 23.998a19.032 19.032 0 0 1 8.141 15.607c0 10.51-8.52 19.03-19.03 19.03h52c10.51 0 19.03-8.52 19.03-19.03a19.036 19.036 0 0 0-8.142-15.607z" fill="#7dc86e"/></svg>