<svg xmlns="http://www.w3.org/2000/svg" viewBox="0 0 511.998 511.998"><path fill="#f0dcbe" d="M255.999 27.194L39.674 127.036l216.325 99.842 216.326-99.842z"/><path d="M467.491 387.194L256 484.805V226.878l216.326-99.842v252.603a8.325 8.325 0 0 1-4.835 7.555z" fill="#ebd2af"/><path d="M44.507 387.194l211.492 97.611V226.878L39.674 127.036v252.602a8.323 8.323 0 0 0 4.833 7.556z" fill="#d2b493"/><path d="M472.325 127.036l-216.326 99.842 38.661 115.985c1.568 4.704 6.878 7.001 11.38 4.924l201.123-92.826a8.32 8.32 0 0 0 4.406-10.186l-39.244-117.739z" fill="#f0dcbe"/><path d="M39.674 127.036L256 226.878l-38.662 115.985c-1.568 4.704-6.878 7.001-11.38 4.924L4.835 254.96a8.32 8.32 0 0 1-4.406-10.186l39.245-117.738z" fill="#ebd2af"/><path fill="#d2b493" d="M472.325 127.036L255.999 27.194v199.684z"/></svg>