<svg xmlns="http://www.w3.org/2000/svg" viewBox="0 0 512 512"><path d="M424.435 0H256l-61.811 256L256 512h168.435c25.497 0 46.358-20.861 46.358-46.358V46.358C470.793 20.861 449.932 0 424.435 0z" fill="#ffd764"/><path d="M87.565 0C62.068 0 41.207 20.861 41.207 46.358v419.284c0 25.497 20.861 46.358 46.358 46.358H256V0H87.565zm336.87 30.905H393.53v450.189h30.905c8.376 0 15.453-7.076 15.453-15.453V46.358c-.001-8.376-7.077-15.453-15.453-15.453z" fill="#ffe7a3"/><path d="M408.982 465.642V46.358c0-8.376-7.076-15.453-15.453-15.453H87.565c-8.376 0-15.453 7.076-15.453 15.453v419.284c0 8.376 7.076 15.453 15.453 15.453h305.964c8.377 0 15.453-7.077 15.453-15.453z" fill="#fff"/><path d="M392.248 390.543c-2.429-27.418-15.083-53.963-37.529-73.413-22.447-19.45-50.522-28.197-78.007-26.699h-51.616L256 382.122c8.555 27.883 27.225 49.947 50.791 63.341 12.585-24.008 16.362-52.664 8.484-80.745 22.271 18.831 49.907 27.299 76.973 25.825z" fill="#3b4145"/><path d="M235.288 290.43c-27.485-1.497-55.561 7.25-78.007 26.699-22.447 19.449-35.099 45.995-37.529 73.413 27.066 1.474 54.702-6.994 76.973-25.826-7.879 28.082-4.101 56.737 8.484 80.745 23.566-13.392 42.236-35.457 50.791-63.341v-91.691h-20.711v.001z" fill="#e0230d"/><path d="M178.736 226.125c-17.069 0-30.905 13.837-30.905 30.905 0 17.069 13.836 30.905 30.905 30.905H256v-61.811h-77.264z" fill="#ffe7a3"/><path d="M333.264 226.125H256v61.811h77.264c17.069 0 30.905-13.836 30.905-30.905 0-17.069-13.836-30.906-30.905-30.906z" fill="#ffd764"/><path d="M256 164.314c-42.671 0-77.264 34.592-77.264 77.264v30.905c0 42.671 34.592 77.264 77.264 77.264s77.264-34.592 77.264-77.264v-30.905c0-42.672-34.593-77.264-77.264-77.264z" fill="#ffe7a3"/><path d="M317.811 66.447C283.674 66.447 256 94.12 256 128.258h-30.905L256 207.033c8.202-7.343 19.029-11.814 30.905-11.814 21.694 0 39.901 14.903 44.958 35.027l.207.019h.372l-14.298-97.484a31.232 31.232 0 0 1-.333-4.524c0-17.068 13.836-30.905 30.905-30.905s30.905 13.837 30.905 30.905c.001-34.137-27.673-61.81-61.81-61.81z" fill="#e0230d"/><path d="M194.189 128.258c0 1.537-.116 3.047-.333 4.524l-14.298 97.484h.372l.194.036c5.038-20.152 23.257-35.082 44.97-35.082 11.876 0 22.703 4.47 30.905 11.814v-78.776c0-34.137-27.674-61.811-61.811-61.811s-61.811 27.674-61.811 61.811c0-17.068 13.836-30.905 30.905-30.905s30.907 13.836 30.907 30.905zm36.056 126.197a7.727 7.727 0 0 1-7.286-5.151h-8.166a7.726 7.726 0 1 1 0-15.452h15.453a7.726 7.726 0 0 1 7.726 7.726v5.151a7.727 7.727 0 0 1-7.727 7.726zm51.51 0a7.726 7.726 0 0 1-7.726-7.726v-5.151a7.726 7.726 0 0 1 7.726-7.726h15.453a7.726 7.726 0 1 1 0 15.452h-8.166a7.73 7.73 0 0 1-7.287 5.151z" fill="#3b4145"/><path d="M256 307.658c-10.185 0-19.321-6.448-22.733-16.044a7.727 7.727 0 0 1 14.56-5.176 8.689 8.689 0 0 0 8.172 5.768 8.688 8.688 0 0 0 8.172-5.768 7.726 7.726 0 0 1 14.56 5.176c-3.41 9.597-12.546 16.044-22.731 16.044z" fill="#ff5440"/><g fill="#ffd764"><circle cx="132.378" cy="133.408" r="20.604"/><circle cx="379.622" cy="133.408" r="20.604"/></g></svg>