<svg xmlns="http://www.w3.org/2000/svg" viewBox="0 0 512 512"><path d="M256 0C114.615 0 0 114.615 0 256s114.615 256 256 256 256-114.615 256-256S397.385 0 256 0zm96 312c0 22.091-17.909 40-40 40H200c-22.091 0-40-17.909-40-40V200c0-22.091 17.909-40 40-40h112c22.091 0 40 17.909 40 40v112z" fill="#ffcf65"/><path d="M512 256c0 141.385-114.615 256-256 256-4.867 0-9.7-.149-14.5-.417C376.137 504.063 483 392.517 483 256S376.137 7.937 241.5.417C246.3.149 251.133 0 256 0c141.385 0 256 114.615 256 256z" fill="#ffb450"/><path d="M256 40C136.707 40 40 136.706 40 256s96.707 216 216 216 216-96.706 216-216S375.293 40 256 40zm80 256c0 22.091-17.909 40-40 40h-80c-22.091 0-40-17.909-40-40v-80c0-22.091 17.909-40 40-40h80c22.091 0 40 17.909 40 40v80z" fill="#e6af78"/><path d="M269 471.599c-4.302.255-8.634.401-13 .401-119.293 0-216-96.706-216-216S136.707 40 256 40c4.366 0 8.698.145 13 .401C155.761 47.125 66 141.073 66 256s89.761 208.875 203 215.599z" fill="#d5945e"/><path d="M296 176h-80c-22.091 0-40 17.909-40 40v80c0 22.091 17.909 40 40 40h80c22.091 0 40-17.909 40-40v-80c0-22.091-17.909-40-40-40zm0 110c0 5.523-4.477 10-10 10h-60c-5.523 0-10-4.477-10-10v-60c0-5.523 4.477-10 10-10h60c5.523 0 10 4.477 10 10v60z" fill="#ffcf65"/><path d="M277 75.5h-42c-6.893 0-12.5 5.607-12.5 12.5v42c0 6.893 5.607 12.5 12.5 12.5h42c6.893 0 12.5-5.607 12.5-12.5V88c0-6.893-5.607-12.5-12.5-12.5zm-2.5 52h-37v-11h37v11zm0-26h-37v-11h37v11zm2.5 268h-42c-6.893 0-12.5 5.607-12.5 12.5v42c0 6.893 5.607 12.5 12.5 12.5h42c6.893 0 12.5-5.607 12.5-12.5v-42c0-6.893-5.607-12.5-12.5-12.5zm-2.5 52h-37v-11h37v11zm0-26h-37v-11h37v11zM130 222.5H88c-6.893 0-12.5 5.607-12.5 12.5v42c0 6.893 5.607 12.5 12.5 12.5h42c6.893 0 12.5-5.607 12.5-12.5v-42c0-6.893-5.607-12.5-12.5-12.5zm-28.5 52h-11v-37h11v37zm26 0h-11v-37h11v37zm296.5-52h-42c-6.893 0-12.5 5.607-12.5 12.5v42c0 6.893 5.607 12.5 12.5 12.5h42c6.893 0 12.5-5.607 12.5-12.5v-42c0-6.893-5.607-12.5-12.5-12.5zm-28.5 52h-11v-37h11v37zm26 0h-11v-37h11v37z" fill="#c37a4f"/></svg>