<svg xmlns="http://www.w3.org/2000/svg" viewBox="0 0 501.551 501.551"><path d="M480.653 90.906H20.898C9.404 90.906 0 100.31 0 111.804v298.841c0 11.494 9.404 20.898 20.898 20.898h459.755c11.494 0 20.898-9.404 20.898-20.898V111.804c0-11.494-9.404-20.898-20.898-20.898z" fill="#40596b"/><path fill="#fff" d="M31.347 122.253h438.857v277.943H31.347z"/><path fill="#cdd6e0" d="M154.645 431.543h191.216v56.425H154.645z"/><path fill="#f2f2f2" d="M97.176 487.967h307.2v13.584h-307.2z"/><path fill="#acb3ba" d="M154.645 431.543h191.216v15.673H154.645z"/><path fill="#e4eaef" d="M435.722 122.253l-19.853 277.943H85.682L65.829 122.253z"/><path fill="#f2f2f2" d="M85.682 48.065h329.143v352.131H85.682z"/><path fill="#acb3ba" d="M85.682 0h329.143v48.065H85.682z"/><g fill="#f2f2f2"><circle cx="198.531" cy="24.033" r="13.584"/><circle cx="154.645" cy="24.033" r="13.584"/><circle cx="109.714" cy="24.033" r="13.584"/><path d="M391.837 10.449H282.122c-7.314 0-13.584 6.269-13.584 13.584s6.269 13.584 13.584 13.584h109.714c7.314 0 13.584-6.269 13.584-13.584s-6.269-13.584-13.583-13.584z"/></g><circle cx="178.678" cy="104.49" r="44.931" fill="#f8b64c"/><circle cx="178.678" cy="104.49" r="33.437" fill="#ffd15c"/><g fill="#f8b64c"><path d="M181.812 99.265c-5.224-2.09-6.269-3.135-6.269-4.18 0-2.09 1.045-3.135 4.18-3.135s5.225 1.045 6.269 2.09l2.09 1.045 3.135-8.359-2.09-1.045c-2.09-1.045-4.18-2.09-6.269-2.09v-6.269h-9.404v6.269c-5.225 2.09-9.404 6.269-9.404 11.494 0 7.314 6.269 10.449 11.494 12.539 5.224 2.09 5.224 3.135 5.224 5.224 0 2.09-2.09 3.135-5.224 3.135-2.09 0-5.224-1.045-7.314-2.09l-3.135-2.09-3.135 9.404 2.09 1.045c2.09 1.045 5.224 2.09 8.359 3.135v6.269h9.404v-7.314c6.269-2.09 9.404-6.269 9.404-12.539 2.089-6.268-4.18-10.448-9.405-12.538z"/><circle cx="382.433" cy="142.106" r="30.302"/></g><circle cx="382.433" cy="142.106" r="22.988" fill="#ffd15c"/><g fill="#f8b64c"><path d="M384.522 138.971c-4.18-2.09-4.18-2.09-4.18-3.135s1.045-2.09 3.135-2.09 4.18 1.045 4.18 1.045l2.09 1.045 2.09-6.269-1.045-1.045c-1.045-1.045-3.135-1.045-4.18-1.045v-4.18h-6.269v4.18c-4.18 1.045-6.269 4.18-6.269 8.359 0 5.224 4.18 7.314 8.359 8.359 3.135 1.045 3.135 2.09 3.135 3.135 0 2.09-2.09 2.09-3.135 2.09-2.09 0-3.135-1.045-5.224-1.045l-2.09-1.045-2.09 6.269 1.045 1.045c1.045 1.045 3.135 2.09 5.224 2.09v4.18h6.269v-5.224c4.18-1.045 6.269-4.18 6.269-8.359.001-5.225-4.179-7.315-7.314-8.36z"/><circle cx="412.735" cy="272.718" r="30.302"/></g><circle cx="412.735" cy="272.718" r="22.988" fill="#ffd15c"/><g fill="#f8b64c"><path d="M414.824 268.539c-4.18-2.09-4.18-2.09-4.18-3.135s1.045-2.09 3.135-2.09 4.18 1.045 4.18 1.045l2.09 1.045 2.09-6.269-1.045-1.045c-1.045-1.045-3.135-1.045-4.18-1.045v-4.18h-6.269v4.18c-4.18 1.045-6.269 4.18-6.269 8.359 0 5.224 4.18 7.314 8.359 8.359 3.135 1.045 3.135 2.09 3.135 3.135 0 2.09-2.09 2.09-3.135 2.09-2.09 0-3.135-1.045-5.224-1.045l-2.09-1.045-2.09 6.269 1.045 1.045c1.045 1.045 3.135 2.09 5.224 2.09v4.18h6.269v-5.224c4.18-1.045 6.269-4.18 6.269-8.359.001-4.181-4.179-6.27-7.314-8.36z"/><circle cx="96.131" cy="362.58" r="30.302"/></g><circle cx="96.131" cy="362.58" r="22.988" fill="#ffd15c"/><g fill="#f8b64c"><path d="M98.22 359.445c-4.18-2.09-4.18-2.09-4.18-3.135s1.045-2.09 3.135-2.09 4.18 1.045 4.18 1.045l2.09 1.045 2.09-6.269-1.045-1.045c-1.045-1.045-3.135-1.045-4.18-1.045v-4.18h-6.269v4.18c-4.18 1.045-6.269 4.18-6.269 8.359 0 5.224 4.18 7.314 8.359 8.359 3.135 1.045 3.135 2.09 3.135 3.135 0 2.09-2.09 2.09-3.135 2.09-2.09 0-3.135-1.045-5.224-1.045l-2.09-1.045-2.09 6.269 1.045 1.045c1.045 1.045 3.135 2.09 5.224 2.09v4.18h6.269v-5.224c4.18-1.045 6.269-4.18 6.269-8.359 1.046-5.225-3.134-7.315-7.314-8.36z"/><circle cx="85.682" cy="199.576" r="30.302"/></g><circle cx="85.682" cy="199.576" r="22.988" fill="#ffd15c"/><path d="M87.771 195.396c-4.18-2.09-4.18-2.09-4.18-3.135s1.045-2.09 3.135-2.09 4.18 1.045 4.18 1.045l2.09 2.09 2.09-6.269-1.045-1.045c-1.045-1.045-3.135-1.045-4.18-1.045v-4.18h-6.269v4.18c-4.18 1.045-6.269 4.18-6.269 8.359 0 5.225 4.18 7.314 8.359 8.359 3.135 2.09 3.135 3.135 3.135 3.135 0 2.09-2.09 2.09-3.135 2.09-2.09 0-3.135-1.045-5.224-1.045l-2.09-1.045-2.09 6.269 1.045 1.045c1.045 1.045 3.135 1.045 6.269 2.09v4.18h5.224v-5.224c4.18-1.045 6.269-4.18 6.269-8.359 1.046-5.225-3.134-7.315-7.314-9.405z" fill="#f8b64c"/><path d="M253.91 140.016v49.11h-6.27v-49.11h6.27zm0 192.262v49.11h-5.224v-49.11h5.224zm84.637-154.645l-34.482 34.482c-1.045-1.045-2.09-3.135-4.18-4.18l35.527-34.482 3.135 4.18zM202.71 313.469l-35.527 34.482-4.18-4.18 35.527-34.482c1.046 2.091 2.09 3.135 4.18 4.18zm169.274-55.379v5.224h-49.11v-5.225h49.11zm-192.262 3.134v2.09h-49.11v-5.224h49.11v3.134zm158.825 83.592l-4.18 4.18-35.527-34.482c1.045-1.045 3.135-2.09 4.18-4.18l35.527 34.482zM202.71 208.98c-1.045 1.045-3.135 2.09-4.18 4.18l-35.527-34.482 4.18-4.18 35.527 34.482zm22.988-14.629c-2.09 1.045-3.135 1.045-5.224 2.09l-11.494-28.212 5.224-2.09 11.494 28.212zm66.873 159.869l-5.224 2.09-11.494-28.212c2.09 0 3.135-1.045 5.224-2.09l11.494 28.212zM185.992 230.922c-1.045 1.045-1.045 3.135-2.09 5.224l-28.212-11.494 2.09-5.224 28.212 11.494zm159.869 66.874l-2.09 5.225-28.212-11.494c1.045-1.045 1.045-3.135 2.09-5.224l28.212 11.493zm-159.869-7.314l-28.212 11.494-2.09-4.18 28.212-11.494c0 1.045 1.045 3.135 2.09 4.18zm159.869-65.829l-28.212 11.494c0-2.09-1.045-3.135-2.09-5.224l28.212-11.494 2.09 5.224zM225.698 328.098l-11.494 28.212-5.224-2.09 11.494-28.212c2.089 1.045 4.179 1.045 5.224 2.09zm66.873-159.869l-11.494 28.212c-1.045-1.045-3.135-1.045-5.224-2.09l11.494-28.212 5.224 2.09z" fill="#fff"/><path fill="#40596b" d="M205.845 216.294l25.077 89.861 21.943-22.988 22.988 22.988 19.853-19.853-22.988-22.988 22.988-21.943z"/></svg>