<svg xmlns="http://www.w3.org/2000/svg" viewBox="0 0 512.001 512.001"><path d="M8.835 229.518a8.831 8.831 0 0 1-8.013-5.112c-2.051-4.418-.129-9.668 4.293-11.724l247.17-114.757a8.839 8.839 0 0 1 11.724 4.293c2.051 4.418.129 9.668-4.293 11.724L12.546 228.699a8.831 8.831 0 0 1-3.711.819z" fill="#d7deed"/><path d="M256.001 132.416c-14.603 0-26.482-11.88-26.482-26.482a8.828 8.828 0 0 1 17.654 0c0 4.866 3.961 8.827 8.827 8.827s8.828-3.961 8.828-8.827a8.826 8.826 0 0 0-6.021-8.375c-6.962-2.332-11.634-9.095-11.634-16.827V61.796a8.828 8.828 0 0 1 17.655 0v18.935c10.392 3.706 17.655 13.802 17.655 25.202.001 14.603-11.879 26.483-26.482 26.483z" fill="#707487"/><path d="M266.177 70.623h-20.353a8.825 8.825 0 0 1-8.707-7.376l-5.885-35.31c-.897-5.38 3.253-10.279 8.707-10.279h32.124c5.455 0 9.604 4.898 8.707 10.279l-5.885 35.31a8.827 8.827 0 0 1-8.708 7.376z" fill="#afb9d2"/><path d="M503.166 229.518a8.82 8.82 0 0 1-3.711-.819l-247.17-114.757c-4.423-2.056-6.345-7.306-4.293-11.724 2.051-4.431 7.301-6.34 11.724-4.293l247.17 114.757c4.423 2.056 6.345 7.306 4.293 11.724a8.832 8.832 0 0 1-8.013 5.112z" fill="#d7deed"/><path d="M503.17 211.863a8.829 8.829 0 0 0-8.828 8.827v8.827H17.658v-8.827a8.828 8.828 0 0 0-17.654 0v264.825a8.829 8.829 0 0 0 8.827 8.828h494.34a8.828 8.828 0 0 0 8.827-8.828V220.691a8.829 8.829 0 0 0-8.828-8.828z" fill="#00d2ff"/><path d="M503.17 494.342H8.83a8.828 8.828 0 0 1-8.827-8.827v-8.827h511.994v8.827a8.826 8.826 0 0 1-8.827 8.827z" fill="#18bdf6"/><path d="M194.209 494.342h-26.482a8.827 8.827 0 0 1 0-17.654h26.482a8.827 8.827 0 0 1 0 17.654zm150.067 0h-26.482a8.828 8.828 0 0 1 0-17.654h26.482a8.828 8.828 0 0 1 8.827 8.827 8.826 8.826 0 0 1-8.827 8.827z" fill="#5b5d6e"/><path d="M238.346 459.032a8.827 8.827 0 0 1-8.827-8.827V256a8.828 8.828 0 0 1 17.654 0v194.205a8.826 8.826 0 0 1-8.827 8.827zm35.31 0a8.827 8.827 0 0 1-8.827-8.827V256a8.828 8.828 0 0 1 17.654 0v194.205a8.826 8.826 0 0 1-8.827 8.827zm-105.93 0a8.827 8.827 0 0 1-8.827-8.827V256a8.828 8.828 0 0 1 17.654 0v194.205a8.826 8.826 0 0 1-8.827 8.827zm35.31 0a8.827 8.827 0 0 1-8.827-8.827V256a8.828 8.828 0 0 1 17.654 0v194.205a8.826 8.826 0 0 1-8.827 8.827zm-105.93 0a8.827 8.827 0 0 1-8.827-8.827V256a8.828 8.828 0 0 1 17.654 0v194.205a8.826 8.826 0 0 1-8.827 8.827zm35.31 0a8.827 8.827 0 0 1-8.827-8.827V256a8.828 8.828 0 0 1 17.654 0v194.205a8.826 8.826 0 0 1-8.827 8.827zm-105.93 0a8.827 8.827 0 0 1-8.827-8.827V256a8.828 8.828 0 0 1 17.654 0v194.205a8.826 8.826 0 0 1-8.827 8.827zm35.31 0a8.827 8.827 0 0 1-8.827-8.827V256a8.828 8.828 0 0 1 17.654 0v194.205a8.826 8.826 0 0 1-8.827 8.827zm317.79 0a8.827 8.827 0 0 1-8.827-8.827V256a8.828 8.828 0 0 1 17.654 0v194.205a8.828 8.828 0 0 1-8.827 8.827zm35.309 0a8.827 8.827 0 0 1-8.827-8.827V256a8.829 8.829 0 0 1 17.655 0v194.205a8.828 8.828 0 0 1-8.828 8.827zm-105.929 0a8.827 8.827 0 0 1-8.827-8.827V256a8.828 8.828 0 0 1 17.654 0v194.205a8.826 8.826 0 0 1-8.827 8.827zm35.31 0a8.827 8.827 0 0 1-8.827-8.827V256a8.828 8.828 0 0 1 17.654 0v194.205a8.826 8.826 0 0 1-8.827 8.827zm105.929 0a8.827 8.827 0 0 1-8.827-8.827V256a8.828 8.828 0 0 1 17.654 0v194.205a8.826 8.826 0 0 1-8.827 8.827zm35.31 0a8.827 8.827 0 0 1-8.827-8.827V256a8.828 8.828 0 0 1 17.654 0v194.205a8.826 8.826 0 0 1-8.827 8.827z" fill="#18bdf6"/></svg>