<svg xmlns="http://www.w3.org/2000/svg" viewBox="0 0 512 512"><path d="M12.346 295.667c-7.18 11.69 1.232 26.727 14.951 26.727h63.672V167.652L12.346 295.667z" fill="#ffb64d"/><path d="M283.913 0C163.315 0 65.551 97.763 65.551 218.361V408.69c0 57.056 46.253 103.31 103.31 103.31h39.776c162.172 0 293.639-131.467 293.639-293.637C502.275 97.763 404.51 0 283.913 0z" fill="#ffd782"/><path d="M283.913 0a219.9 219.9 0 0 0-34.314 2.691c104.293 16.464 184.047 106.748 184.047 215.67 0 156.122-121.848 283.765-275.631 293.072 3.565.372 7.182.566 10.846.566h39.776c162.172 0 293.639-131.467 293.639-293.637C502.275 97.763 404.51 0 283.913 0z" opacity=".1"/><path d="M129.693 181.736c-8.949 0-16.203 7.254-16.203 16.203v30.879c0 8.949 7.254 16.203 16.203 16.203s16.203-7.254 16.203-16.203v-30.879c0-8.948-7.255-16.203-16.203-16.203zm0 198.497a8.58 8.58 0 0 0 0-17.158H65.551v17.157h64.142z" fill="#3d3d4a"/><circle cx="311.571" cy="188.556" r="88.679" fill="#ffb64d"/><path d="M311.569 99.875v88.679h88.679c0-48.977-39.702-88.679-88.679-88.679zm0 177.358v-88.679H222.89c0 48.976 39.703 88.679 88.679 88.679z" fill="#3d3d4a"/></svg>