<svg xmlns="http://www.w3.org/2000/svg" xmlns:xlink="http://www.w3.org/1999/xlink" viewBox="0 0 640 640" width="640" height="640"><defs><path d="M253.91 6.11l9.47.96 9.35 1.33 9.23 1.7 9.1 2.05 8.96 2.4 8.82 2.75 8.66 3.07 8.51 3.4 8.34 3.73 8.16 4.03 7.98 4.33 7.79 4.63 7.59 4.92 7.39 5.2 7.17 5.47 6.96 5.74 6.72 6 6.49 6.25 6.25 6.49 5.99 6.72 5.74 6.96 5.48 7.17 5.2 7.39 4.91 7.59 4.64 7.79 4.33 7.98 4.03 8.16 3.72 8.34 3.4 8.5 3.08 8.67 2.74 8.81 2.4 8.97 2.06 9.1 1.69 9.23 1.33 9.35.97 9.46.58 9.58.19 9.67v128l-.01.44-.02.43-.05.44-.06.42-.07.42-.1.41-.11.41-.12.4-.14.4-.15.38-.17.38-.19.37-.19.36-.21.36-.23.34-.23.34-.25.33-.26.31-.28.31-.28.29-.3.29-.3.27-.32.26-.32.25-.34.23-.34.23-.36.21-.36.2-.37.18-.38.17-.39.15-.39.14-.4.13-.41.11-.41.09-.42.08-.43.06-.43.04-.43.03-.44.01h-53.34V496l-.06 3.08-.19 3.04-.31 3.01-.43 2.98-.54 2.93-.65 2.89-.77 2.85-.87 2.81-.98 2.75-1.09 2.71-1.18 2.65-1.29 2.6-1.38 2.53-1.47 2.48-1.56 2.42-1.66 2.35-1.74 2.28-1.83 2.21-1.9 2.14-1.99 2.06-2.07 1.99-2.13 1.91-2.22 1.82-2.28 1.74-2.35 1.66-2.41 1.56-2.48 1.48-2.54 1.38-2.59 1.28-2.65 1.19-2.71 1.08-2.76.98-2.8.87-2.85.77-2.89.66-2.94.54-2.97.42-3.01.31-3.05.19-3.07.07h-128V624l-.01.44-.03.43-.04.44-.06.42-.08.42-.09.41-.11.41-.13.4-.14.4-.15.38-.17.38-.18.37-.2.36-.21.36-.23.34-.23.34-.25.33-.26.31-.27.31-.29.29-.29.29-.31.27-.31.26-.33.25-.34.23-.34.23-.36.21-.36.2-.37.18-.38.17-.38.15-.4.14-.4.13-.41.11-.41.09-.42.08-.42.06-.44.04-.43.03-.44.01H10.67l-.44-.01-.44-.03-.43-.04-.42-.06-.42-.08-.42-.09-.4-.11-.4-.13-.4-.14-.39-.15-.37-.17-.38-.18-.36-.2-.35-.21-.35-.23-.33-.23-.33-.25-.31-.26-.31-.27-.3-.29-.28-.29-.27-.31-.26-.31-.25-.33-.24-.34-.22-.34-.21-.36-.2-.36-.18-.37-.17-.38-.16-.38-.14-.4-.12-.4-.11-.41-.09-.41-.08-.42-.06-.42-.04-.44-.03-.43L0 624V240l.2-9.67.58-9.58.96-9.46 1.33-9.35 1.7-9.23 2.05-9.1 2.4-8.97 2.74-8.81 3.08-8.67 3.4-8.5 3.72-8.34 4.03-8.16 4.34-7.98 4.63-7.79 4.92-7.59 5.2-7.39 5.47-7.17 5.74-6.96 6-6.72 6.24-6.49 6.49-6.25 6.73-6 6.95-5.74 7.18-5.47 7.38-5.2 7.59-4.92 7.79-4.63 7.98-4.33 8.17-4.03 8.33-3.73 8.51-3.4 8.66-3.07 8.82-2.75 8.96-2.4 9.1-2.05 9.23-1.7 9.35-1.33 9.47-.96 9.57-.58 9.68-.2 9.67.2 9.57.58zm-36.74 21.26l-8.61.88-8.5 1.21-8.39 1.54-8.27 1.87-8.15 2.18-8.01 2.49-7.88 2.8-7.73 3.09-7.58 3.38-7.42 3.67-7.26 3.94-7.08 4.21-6.9 4.47-6.72 4.73-6.52 4.97-6.32 5.22-6.11 5.45-5.9 5.68-5.68 5.9-5.45 6.11-5.22 6.33-4.98 6.52-4.72 6.71-4.47 6.9-4.21 7.09-3.94 7.25-3.67 7.42-3.38 7.58-3.09 7.73-2.8 7.88-2.49 8.02-2.19 8.14-1.86 8.28-1.54 8.39-1.22 8.5-.87 8.6-.53 8.71-.18 8.79v373.33h160V560l.01-.44.03-.43.04-.44.06-.42.08-.42.09-.41.11-.41.13-.4.14-.4.15-.38.17-.38.18-.37.2-.36.21-.36.23-.34.23-.34.25-.33.26-.31.27-.31.29-.29.29-.29.31-.27.31-.26.33-.25.34-.23.34-.23.36-.21.36-.2.37-.18.38-.17.38-.15.4-.14.4-.13.41-.11.41-.09.42-.08.42-.06.44-.04.43-.03.44-.01h138.67l2.19-.04 2.18-.14 2.15-.22 2.12-.3 2.1-.39 2.07-.47 2.03-.55 2-.62 1.97-.7 1.94-.77 1.89-.85 1.85-.92 1.82-.98 1.77-1.06 1.72-1.11 1.68-1.19 1.63-1.24 1.58-1.3 1.53-1.37 1.47-1.42 1.42-1.47 1.36-1.53 1.31-1.58 1.24-1.63 1.18-1.68 1.12-1.72 1.05-1.77.99-1.81.92-1.86.84-1.89.78-1.93.7-1.97.62-2 .55-2.04.47-2.07.38-2.09.31-2.13.22-2.15.13-2.17.05-2.2V368l.01-.44.03-.43.04-.44.06-.42.08-.42.09-.41.11-.41.12-.4.14-.4.16-.38.17-.38.18-.37.2-.36.21-.36.22-.34.24-.34.25-.33.26-.31.27-.31.28-.29.3-.29.31-.27.31-.26.33-.25.33-.23.35-.23.35-.21.36-.2.38-.18.37-.17.39-.15.4-.14.4-.13.4-.11.42-.09.42-.08.42-.06.43-.04.44-.03.44-.01H448V240l-.18-8.79-.53-8.71-.87-8.6-1.21-8.5-1.54-8.39-1.87-8.28-2.18-8.14-2.5-8.02-2.79-7.88-3.09-7.73-3.39-7.58-3.66-7.42-3.94-7.25-4.21-7.09-4.47-6.9-4.73-6.71-4.98-6.52-5.21-6.33-5.45-6.11-5.68-5.9-5.9-5.68-6.12-5.45-6.32-5.22-6.52-4.97-6.72-4.73-6.9-4.47-7.08-4.21-7.25-3.94-7.42-3.67-7.58-3.38-7.74-3.09-7.87-2.8-8.02-2.49-8.15-2.18-8.27-1.87-8.39-1.54-8.5-1.21-8.61-.88-8.7-.53-8.79-.17-8.8.17-8.7.53z" id="a"/><path d="M233.62 144.39l4.74.48 4.67.67 4.62.84 4.55 1.03 4.48 1.2 4.41 1.37 4.33 1.54 4.25 1.7 4.17 1.86 4.08 2.02 3.99 2.16 3.9 2.32 3.79 2.46 3.7 2.6 3.58 2.73 3.48 2.87 3.36 3 3.25 3.13 3.12 3.24 3 3.36 2.87 3.48 2.73 3.59 2.6 3.69 2.46 3.8 2.32 3.89 2.17 3.99 2.01 4.08 1.86 4.17 1.7 4.25 1.54 4.34 1.37 4.41 1.2 4.48 1.03 4.55.85 4.61.66 4.68.48 4.73.3 4.79.09 4.83-.02 2.63-.08 2.61-.14 2.61-.19 2.59-.26 2.59-.31 2.57-.37 2.57-.42 2.55-.48 2.53-.54 2.53-.59 2.5-.64 2.49-.7 2.48-.76 2.45-.8 2.44-.86 2.41-.92 2.4-.96 2.37-1.02 2.36-1.07 2.33-1.11 2.3-1.17 2.28-1.22 2.25-1.27 2.23-1.32 2.2-1.37 2.17-1.42 2.14-1.46 2.12-1.52 2.08-1.56 2.04-1.6 2.02-1.66 1.98-1.7 1.95-1.74 1.91-1.79 1.88-1.84 1.84-1.88 1.8-1.92 1.77-1.97 1.72-2.01 1.68v35.29l.35.31.34.32.34.32.33.33.33.34.32.33.32.35.31.34.31.35.3.36.3.36.29.36.29.37.28.37.27.38.27.38.27.38.25.39.26.39.24.39.24.4.24.4.23.41.22.41.22.41.21.41.2.42.2.42.19.43.19.42.18.43.17.44.17.43.16.44.16.44.15.45.14.44.13.45.13.45.13.46.3 1.27.26 1.27.19 1.27.15 1.27.1 1.27.04 1.26-.01 1.25-.05 1.25-.11 1.24-.15 1.23-.2 1.22-.25 1.2-.29 1.2-.34 1.18-.38 1.16-.43 1.14-.47 1.13-.51 1.11-.55 1.08-.6 1.07-.63 1.04-.68 1.01-.71.99-.75.96-.79.94-.82.9-.86.88-.9.84-.93.81-.96.77-.99.74-1.03.7-1.06.66-1.09.62-1.12.58-1.15.54-1.18.5-1.21.45-1.23.4-1.26.36.12.29.11.29.11.29.11.29.1.29.11.3.09.29.1.3.09.29.09.3.09.3.08.3.08.3.08.3.08.3.07.3.07.3.07.31.06.3.06.3.06.31.05.3.05.31.05.31.05.3.04.31.04.31.04.31.03.3.03.31.03.31.02.31.02.31.02.31.02.31.01.31.01.31.01.32v.62l-.03 1.31-.08 1.3-.14 1.29-.18 1.27-.24 1.25-.28 1.24-.33 1.22-.38 1.19-.42 1.18-.47 1.15-.51 1.14-.55 1.1-.59 1.09-.63 1.05-.68 1.03-.71 1-.74.98-.79.94-.81.91-.86.88-.88.84-.92.82-.95.77-.97.74-1.01.71-1.03.66-1.06.63-1.09.58-1.11.55-1.14.5-1.15.46-1.18.41-1.2.37-1.22.32-1.24.28-1.26.22-1.27.18-1.28.13-1.31.07-1.31.02h-64.63l-.31-.01-.31-.01-.31-.01-.32-.01-.31-.02-.31-.02-.31-.03-.31-.03-.31-.03-.31-.03-.31-.04-.31-.04-.31-.04-.31-.05-.3-.05-.31-.05-.31-.05-.31-.06-.3-.06-.31-.07-.3-.06-.3-.07-.31-.08-.3-.07-.3-.08-.3-.08-.3-.09-.3-.08-.3-.09-.3-.1-.3-.09-.29-.1-.3-.11-.29-.1-.29-.11-.3-.11-.29-.12-.29-.11-1.21-.52-1.17-.57-1.14-.61-1.11-.64-1.07-.69-1.04-.73-1.01-.76-.97-.8-.93-.83-.9-.86-.85-.9-.82-.93-.78-.95-.75-.99-.7-1-.66-1.04-.62-1.06-.58-1.07-.54-1.1-.5-1.12-.45-1.14-.41-1.16-.36-1.17-.32-1.18-.28-1.2-.23-1.2-.18-1.22-.14-1.23-.08-1.23-.04-1.24v-1.25l.06-1.25.11-1.25.16-1.25.21-1.25.26-1.25.31-1.24.37-1.24.41-1.24.48-1.22-.45-.13-.45-.13-.45-.13-.44-.14-.45-.15-.43-.16-.44-.16-.43-.16-.43-.18-.43-.18-.43-.18-.42-.19-.42-.2-.42-.21-.41-.21-.41-.21-.4-.22-.41-.23-.4-.24-.39-.23-.4-.25-.39-.25-.38-.26-.38-.26-.38-.27-.37-.27-.37-.28-.37-.28-.36-.29-.36-.3-.35-.3-.35-.3-.35-.31-.34-.32-.34-.32-.33-.33-.33-.33-.32-.34-.32-.34-.31-.35-.85-.99-.8-1.02-.76-1.04-.71-1.07-.65-1.08-.62-1.11-.56-1.12-.52-1.13-.46-1.16-.43-1.16-.37-1.18-.33-1.19-.28-1.19-.23-1.21-.19-1.21-.14-1.21-.09-1.22-.04-1.22v-1.21l.04-1.22.1-1.22.14-1.21.18-1.2.24-1.2.27-1.19.33-1.18.37-1.17.42-1.16.46-1.14.51-1.12.55-1.11.6-1.09.64-1.07.69-1.05.73-1.03.78-1 .83-.97.87-.95.91-.92.96-.89V351.7l-2.01-1.68-1.97-1.72-1.92-1.77-1.88-1.8-1.84-1.84-1.79-1.88-1.74-1.91-1.7-1.95-1.66-1.98-1.6-2.02-1.56-2.04-1.52-2.08-1.46-2.12-1.42-2.14-1.37-2.17-1.32-2.2-1.27-2.23-1.22-2.25-1.17-2.28-1.11-2.3-1.07-2.33-1.02-2.36-.96-2.37-.92-2.4-.86-2.41-.8-2.44-.76-2.45-.7-2.48-.64-2.49-.59-2.5-.54-2.53-.48-2.53-.42-2.55-.37-2.57-.31-2.57-.26-2.59-.19-2.59-.14-2.61-.08-2.61-.02-2.63.09-4.83.3-4.79.48-4.73.66-4.68.85-4.61 1.03-4.55 1.2-4.48 1.37-4.41 1.54-4.34 1.7-4.25 1.86-4.17 2.01-4.08 2.17-3.99 2.32-3.89 2.46-3.8 2.6-3.69 2.73-3.59 2.87-3.48 3-3.36 3.12-3.24 3.25-3.13 3.36-3 3.48-2.87 3.58-2.73 3.7-2.6 3.79-2.46 3.9-2.32 3.99-2.16 4.08-2.02 4.17-1.86 4.25-1.7 4.33-1.54 4.41-1.37 4.48-1.2 4.55-1.03 4.62-.84 4.67-.67 4.74-.48 4.78-.29 4.84-.1 4.84.1 4.78.29zm-42.08 298.29l-.46.03-.45.04-.45.07-.44.09-.43.1-.43.12-.42.14-.41.15-.4.17-.4.19-.38.2-.38.22-.36.23-.36.24-.34.26-.34.28-.32.28-.31.3-.3.31-.29.32-.27.34-.26.34-.24.36-.24.37-.21.37-.2.39-.19.39-.17.4-.16.42-.13.41-.12.43-.11.43-.08.44-.07.45-.05.45-.03.46-.01.46.01.47.03.45.05.46.07.44.08.44.11.44.12.42.13.42.16.41.17.41.19.39.2.39.21.37.24.37.24.35.26.35.27.33.29.32.3.32.31.29.32.29.34.27.34.26.36.25.36.23.38.22.38.2.4.18.4.17.41.16.42.14.43.12.43.1.44.09.45.06.45.05.46.03.46.01h64l.46-.01.46-.03.45-.05.45-.06.44-.09.43-.1.43-.12.42-.14.41-.16.4-.17.4-.18.38-.2.38-.22.36-.23.36-.25.34-.26.34-.27.32-.29.31-.29.3-.32.29-.32.27-.33.26-.35.24-.35.24-.37.21-.37.2-.39.19-.39.17-.41.16-.41.13-.42.12-.42.11-.44.08-.44.07-.44.05-.46.03-.45.01-.47-.01-.46-.03-.46-.05-.45-.07-.45-.08-.44-.11-.43-.12-.43-.13-.41-.16-.42-.17-.4-.19-.39-.2-.39-.21-.37-.24-.37-.24-.36-.26-.34-.27-.34-.29-.32-.3-.31-.31-.3-.32-.28-.34-.28-.34-.26-.36-.24-.36-.23-.38-.22-.38-.2-.4-.19-.4-.17-.41-.15-.42-.14-.43-.12-.43-.1-.44-.09-.45-.07-.45-.04-.46-.03-.46-.01h-64l-.46.01zm-21.31-42.67l-.44.03-.43.04-.42.06-.42.08-.42.09-.4.11-.4.12-.4.14-.39.16-.37.17-.38.18-.36.2-.35.21-.35.22-.33.24-.33.25-.31.26-.31.27-.3.28-.28.3-.27.31-.26.31-.25.33-.24.33-.22.35-.21.35-.2.36-.18.38-.17.37-.16.39-.14.4-.12.4-.11.4-.09.42-.08.42-.06.42-.04.43-.03.44-.01.44.01.44.03.43.04.43.06.43.08.42.09.41.11.41.12.4.14.39.16.39.17.38.18.37.2.36.21.36.22.34.24.34.25.32.26.32.27.3.28.3.3.28.31.28.31.26.33.25.33.23.35.23.35.21.36.19.38.19.37.17.39.15.4.14.4.12.4.11.42.1.42.07.42.06.43.05.44.02.44.01h106.66l.44-.01.44-.02.43-.05.42-.06.42-.07.42-.1.4-.11.4-.12.4-.14.39-.15.37-.17.38-.19.36-.19.35-.21.35-.23.33-.23.33-.25.31-.26.31-.28.3-.28.28-.3.27-.3.26-.32.25-.32.24-.34.22-.34.21-.36.2-.36.18-.37.17-.38.16-.39.14-.39.12-.4.11-.41.09-.41.08-.42.06-.43.04-.43.03-.43.01-.44-.01-.44-.03-.44-.04-.43-.06-.42-.08-.42-.09-.42-.11-.4-.12-.4-.14-.4-.16-.39-.17-.37-.18-.38-.2-.36-.21-.35-.22-.35-.24-.33-.25-.33-.26-.31-.27-.31-.28-.3-.3-.28-.31-.27-.31-.26-.33-.25-.33-.24-.35-.22-.35-.21-.36-.2-.38-.18-.37-.17-.39-.16-.4-.14-.4-.12-.4-.11-.42-.09-.42-.08-.42-.06-.43-.04-.44-.03-.44-.01H170.67l-.44.01zm47.52-234.6l-3.67.31-3.66.45-3.63.59-3.62.73-3.58.87-3.55 1-3.52 1.14-3.47 1.28-3.43 1.41-3.38 1.55-3.32 1.68-3.26 1.82-3.21 1.95-3.13 2.08-3.06 2.21-2.99 2.34-2.9 2.48-2.82 2.6-2.73 2.74-2.64 2.86-2.54 2.99-2.44 3.12-2.31 3.21-2.16 3.28-2.01 3.33-1.86 3.39-1.71 3.43-1.56 3.49-1.41 3.52-1.27 3.56-1.12 3.59-.98 3.62-.82 3.64-.69 3.66-.54 3.67-.4 3.69-.25 3.69-.11 3.7.03 3.69.17 3.68.31 3.67.45 3.66.6 3.64.72 3.61.87 3.59 1.01 3.55 1.14 3.51 1.27 3.48 1.42 3.43 1.54 3.37 1.69 3.33 1.81 3.26 1.95 3.2 2.08 3.13 2.21 3.07 2.35 2.98 2.47 2.91 2.61 2.82 2.73 2.73 2.86 2.64 2.99 2.54 3.12 2.44.2.15.19.16.19.16.19.16.18.17.18.17.17.18.17.18.17.18.16.19.15.19.15.2.15.19.14.2.14.21.13.2.12.21.13.22.11.21.12.22.1.22.1.22.1.23.09.22.09.23.08.23.08.24.07.23.06.24.06.24.06.24.05.24.04.24.04.25.03.24.03.25.02.25.01.25.01.25.01.25v32.15h106.66v-32.13l.01-.25.01-.25.01-.25.02-.25.03-.25.03-.25.04-.24.04-.24.05-.25.05-.24.06-.24.07-.23.07-.24.07-.23.09-.24.08-.23.09-.22.1-.23.1-.22.11-.22.11-.22.12-.21.12-.22.13-.21.13-.2.14-.21.14-.2.14-.2.15-.19.16-.19.16-.19.17-.19.16-.18.18-.17.18-.18.18-.17.18-.16.2-.16.19-.16.2-.15.54-.42.55-.41.53-.42.54-.42.53-.43.53-.43.52-.43.53-.44.52-.44.51-.44.52-.45.51-.45.5-.46.5-.46.5-.46.5-.47.49-.46.49-.48.49-.47.48-.48.48-.49.48-.48.47-.49.47-.49.47-.5.46-.5.46-.5.45-.51.45-.51.45-.51.45-.52.44-.52.43-.52.44-.53.43-.52.42-.54.43-.53.41-.54.42-.54.41-.54 2.31-3.22 2.16-3.27 2.01-3.34 1.86-3.39 1.71-3.43 1.56-3.48 1.41-3.53 1.27-3.56 1.12-3.59.98-3.62.82-3.64.69-3.66.54-3.67.4-3.69.25-3.69.11-3.7-.03-3.69-.17-3.68-.31-3.67-.45-3.66-.6-3.64-.72-3.61-.87-3.59-1.01-3.55-1.14-3.51-1.27-3.48-1.42-3.42-1.54-3.38-1.69-3.32-1.81-3.27-1.95-3.2-2.08-3.13-2.21-3.06-2.35-2.99-2.47-2.91-2.61-2.82-2.73-2.73-2.86-2.64-2.99-2.54-3.12-2.43-3.21-2.31-3.28-2.16-3.33-2.01-3.39-1.86-3.44-1.71-3.48-1.56-3.52-1.42-3.56-1.27-3.59-1.12-3.62-.97-3.64-.83-3.66-.68-3.68-.54-3.68-.4-3.7-.25-3.69-.11-3.69.03-3.69.17z" id="b"/><path d="M213.33 90.67V112c0 5.89 4.78 10.67 10.67 10.67s10.67-4.78 10.67-10.67V90.67c0-5.89-4.78-10.67-10.67-10.67s-10.67 4.78-10.67 10.67z" id="c"/><path d="M132.27 116.99c-3.47-4.76-10.14-5.82-14.9-2.36-4.77 3.47-5.83 10.14-2.36 14.91 1.26 1.72 11.33 15.53 12.58 17.25 3.47 4.77 10.14 5.83 14.91 2.36 4.76-3.46 5.82-10.13 2.35-14.9-2.51-3.45-11.32-15.53-12.58-17.26z" id="d"/><path d="M85.27 205.05c-12.16-3.97-18.92-6.17-20.27-6.61-5.68-1.57-11.55 1.77-13.12 7.44-1.47 5.32 1.36 10.89 6.53 12.83l20.27 6.59c1.06.35 2.17.52 3.29.52 5.89 0 10.67-4.77 10.67-10.67 0-4.61-2.98-8.71-7.37-10.14v.04z" id="e"/><path d="M315.73 116.99l-12.58 17.26c-3.47 4.77-2.41 11.44 2.35 14.9 1.82 1.32 4.01 2.04 6.27 2.04 3.41 0 6.63-1.63 8.64-4.4 1.25-1.72 11.28-15.53 12.54-17.25 3.2-4.95 1.79-11.55-3.15-14.76-4.57-2.95-10.63-2-14.07 2.21z" id="f"/><path d="M383 198.47c-2.03.66-18.24 5.95-20.27 6.61-5.6 1.82-8.67 7.84-6.84 13.44a10.66 10.66 0 0 0 10.14 7.37v-.03c1.12-.01 2.23-.18 3.29-.53l20.27-6.59c5.51-2.07 8.3-8.22 6.23-13.74-1.94-5.16-7.5-8-12.82-6.53z" id="g"/><path d="M587.54 58.7l.43.05.43.06.42.07.41.1.41.11.4.12.39.14.39.15.38.17.37.19.36.19.36.21.34.23.34.23.32.25.32.26.3.28.3.28.28.3.28.3.26.32.25.32.23.34.23.34.21.36.19.36.19.37.17.38.15.39.14.39.12.4.11.41.1.41.07.42.06.43.05.43.02.43.01.44v32h32l.44.01.44.03.43.04.42.06.42.08.42.09.4.11.4.13.4.14.39.15.37.17.38.18.36.2.35.21.35.23.33.23.33.25.31.26.31.27.3.29.28.29.27.31.26.31.25.33.24.34.22.34.21.36.2.36.18.37.17.38.16.38.14.4.12.4.11.41.09.41.08.42.06.42.04.44.03.43.01.44v42.67l-.01.44-.03.43-.04.43-.06.43-.08.42-.09.41-.11.41-.12.4-.14.39-.16.39-.17.38-.18.37-.2.36-.21.36-.22.34-.24.34-.25.32-.26.32-.27.3-.28.3-.3.28-.31.28-.31.26-.33.25-.33.23-.35.23-.35.21-.36.19-.38.19-.37.17-.39.15-.4.14-.4.12-.4.11-.42.1-.42.07-.42.06-.43.05-.44.02-.44.01h-32v32l-.01.44-.02.44-.05.43-.06.42-.07.42-.1.42-.11.4-.12.4-.14.4-.15.39-.17.37-.19.38-.19.36-.21.35-.23.35-.23.33-.25.33-.26.31-.28.31-.28.3-.3.28-.3.27-.32.26-.32.25-.34.24-.34.22-.36.21-.36.2-.37.18-.38.17-.39.16-.39.14-.4.12-.41.11-.41.09-.42.08-.43.06-.43.04-.43.03-.44.01H544l-.44-.01-.43-.03-.44-.04-.42-.06-.42-.08-.41-.09-.41-.11-.4-.12-.4-.14-.38-.16-.38-.17-.37-.18-.36-.2-.36-.21-.34-.22-.34-.24-.33-.25-.31-.26-.31-.27-.29-.28-.29-.3-.27-.31-.26-.31-.25-.33-.23-.33-.23-.35-.21-.35-.2-.36-.18-.38-.17-.37-.15-.39-.14-.4-.13-.4-.11-.4-.09-.42-.08-.42-.06-.42-.04-.43-.03-.44-.01-.44v-32h-32l-.44-.01-.43-.02-.43-.05-.43-.06-.42-.07-.41-.1-.41-.11-.4-.12-.39-.14-.39-.15-.38-.17-.37-.19-.36-.19-.36-.21-.34-.23-.34-.23-.32-.25-.32-.26-.3-.28-.3-.28-.28-.3-.28-.3-.26-.32-.25-.32-.23-.34-.23-.34-.21-.36-.19-.36-.19-.37-.17-.38-.15-.39-.14-.39-.12-.4-.11-.41-.1-.41-.07-.42-.06-.43-.05-.43-.02-.43-.01-.44V112l.01-.44.02-.43.05-.44.06-.42.07-.42.1-.41.11-.41.12-.4.14-.4.15-.38.17-.38.19-.37.19-.36.21-.36.23-.34.23-.34.25-.33.26-.31.28-.31.28-.29.3-.29.3-.27.32-.26.32-.25.34-.23.34-.23.36-.21.36-.2.37-.18.38-.17.39-.15.39-.14.4-.13.41-.11.41-.09.42-.08.43-.06.43-.04.43-.03.44-.01h32v-32l.01-.44.03-.43.04-.43.06-.43.08-.42.09-.41.11-.41.13-.4.14-.39.15-.39.17-.38.18-.37.2-.36.21-.36.23-.34.23-.34.25-.32.26-.32.27-.3.29-.3.29-.28.31-.28.31-.26.33-.25.34-.23.34-.23.36-.21.36-.19.37-.19.38-.17.38-.15.4-.14.4-.12.41-.11.41-.1.42-.07.42-.06.44-.05.43-.02.44-.01h42.67l.44.01.43.02zM554.67 112l-.01.44-.03.43-.04.44-.06.42-.08.42-.09.41-.11.41-.13.4-.14.4-.15.38-.17.38-.18.37-.2.36-.21.36-.23.34-.23.34-.25.33-.26.31-.27.31-.29.29-.29.29-.31.27-.31.26-.33.25-.34.23-.34.23-.36.21-.36.2-.37.18-.38.17-.38.15-.4.14-.4.13-.41.11-.41.09-.42.08-.42.06-.44.04-.43.03-.44.01h-32V144h32l.44.01.43.03.44.04.42.06.42.08.41.09.41.11.4.12.4.14.38.16.38.17.37.18.36.2.36.21.34.22.34.24.33.25.31.26.31.27.29.28.29.3.27.31.26.31.25.33.23.33.23.35.21.35.2.36.18.38.17.37.15.39.14.4.13.4.11.4.09.42.08.42.06.42.04.43.03.44.01.44v32H576v-32l.01-.44.03-.44.04-.43.06-.42.08-.42.09-.42.11-.4.12-.4.14-.4.16-.39.17-.37.18-.38.2-.36.21-.35.22-.35.24-.33.25-.33.26-.31.27-.31.28-.3.3-.28.31-.27.31-.26.33-.25.33-.24.35-.22.35-.21.36-.2.38-.18.37-.17.39-.16.4-.14.4-.12.4-.11.42-.09.42-.08.42-.06.43-.04.44-.03.44-.01h32v-21.33h-32l-.44-.01-.44-.03-.43-.04-.42-.06-.42-.08-.42-.09-.4-.11-.4-.13-.4-.14-.39-.15-.37-.17-.38-.18-.36-.2-.35-.21-.35-.23-.33-.23-.33-.25-.31-.26-.31-.27-.3-.29-.28-.29-.27-.31-.26-.31-.25-.33-.24-.34-.22-.34-.21-.36-.2-.36-.18-.37-.17-.38-.16-.38-.14-.4-.12-.4-.11-.41-.09-.41-.08-.42-.06-.42-.04-.44-.03-.43-.01-.44V80h-21.33v32z" id="h"/><path d="M587.54 250.7l.43.05.43.06.42.07.41.1.41.11.4.12.39.14.39.15.38.17.37.19.36.19.36.21.34.23.34.23.32.25.32.26.3.28.3.28.28.3.28.3.26.32.25.32.23.34.23.34.21.36.19.36.19.37.17.38.15.39.14.39.12.4.11.41.1.41.07.42.06.43.05.43.02.43.01.44v32h32l.44.01.44.03.43.04.42.06.42.08.42.09.4.11.4.13.4.14.39.15.37.17.38.18.36.2.35.21.35.23.33.23.33.25.31.26.31.27.3.29.28.29.27.31.26.31.25.33.24.34.22.34.21.36.2.36.18.37.17.38.16.38.14.4.12.4.11.41.09.41.08.42.06.42.04.44.03.43.01.44v42.67l-.01.44-.03.43-.04.43-.06.43-.08.42-.09.41-.11.41-.12.4-.14.39-.16.39-.17.38-.18.37-.2.36-.21.36-.22.34-.24.34-.25.32-.26.32-.27.3-.28.3-.3.28-.31.28-.31.26-.33.25-.33.23-.35.23-.35.21-.36.19-.38.19-.37.17-.39.15-.4.14-.4.12-.4.11-.42.1-.42.07-.42.06-.43.05-.44.02-.44.01h-32v32l-.01.44-.02.44-.05.43-.06.42-.07.42-.1.42-.11.4-.12.4-.14.4-.15.39-.17.37-.19.38-.19.36-.21.35-.23.35-.23.33-.25.33-.26.31-.28.31-.28.3-.3.28-.3.27-.32.26-.32.25-.34.24-.34.22-.36.21-.36.2-.37.18-.38.17-.39.16-.39.14-.4.12-.41.11-.41.09-.42.08-.43.06-.43.04-.43.03-.44.01H544l-.44-.01-.43-.03-.44-.04-.42-.06-.42-.08-.41-.09-.41-.11-.4-.12-.4-.14-.38-.16-.38-.17-.37-.18-.36-.2-.36-.21-.34-.22-.34-.24-.33-.25-.31-.26-.31-.27-.29-.28-.29-.3-.27-.31-.26-.31-.25-.33-.23-.33-.23-.35-.21-.35-.2-.36-.18-.38-.17-.37-.15-.39-.14-.4-.13-.4-.11-.4-.09-.42-.08-.42-.06-.42-.04-.43-.03-.44-.01-.44v-32h-32l-.44-.01-.43-.02-.43-.05-.43-.06-.42-.07-.41-.1-.41-.11-.4-.12-.39-.14-.39-.15-.38-.17-.37-.19-.36-.19-.36-.21-.34-.23-.34-.23-.32-.25-.32-.26-.3-.28-.3-.28-.28-.3-.28-.3-.26-.32-.25-.32-.23-.34-.23-.34-.21-.36-.19-.36-.19-.37-.17-.38-.15-.39-.14-.39-.12-.4-.11-.41-.1-.41-.07-.42-.06-.43-.05-.43-.02-.43-.01-.44V304l.01-.44.02-.43.05-.44.06-.42.07-.42.1-.41.11-.41.12-.4.14-.4.15-.38.17-.38.19-.37.19-.36.21-.36.23-.34.23-.34.25-.33.26-.31.28-.31.28-.29.3-.29.3-.27.32-.26.32-.25.34-.23.34-.23.36-.21.36-.2.37-.18.38-.17.39-.15.39-.14.4-.13.41-.11.41-.09.42-.08.43-.06.43-.04.43-.03.44-.01h32v-32l.01-.44.03-.43.04-.43.06-.43.08-.42.09-.41.11-.41.13-.4.14-.39.15-.39.17-.38.18-.37.2-.36.21-.36.23-.34.23-.34.25-.32.26-.32.27-.3.29-.3.29-.28.31-.28.31-.26.33-.25.34-.23.34-.23.36-.21.36-.19.37-.19.38-.17.38-.15.4-.14.4-.12.41-.11.41-.1.42-.07.42-.06.44-.05.43-.02.44-.01h42.67l.44.01.43.02zM554.67 304l-.01.44-.03.43-.04.44-.06.42-.08.42-.09.41-.11.41-.13.4-.14.4-.15.38-.17.38-.18.37-.2.36-.21.36-.23.34-.23.34-.25.33-.26.31-.27.31-.29.29-.29.29-.31.27-.31.26-.33.25-.34.23-.34.23-.36.21-.36.2-.37.18-.38.17-.38.15-.4.14-.4.13-.41.11-.41.09-.42.08-.42.06-.44.04-.43.03-.44.01h-32V336h32l.44.01.43.03.44.04.42.06.42.08.41.09.41.11.4.12.4.14.38.16.38.17.37.18.36.2.36.21.34.22.34.24.33.25.31.26.31.27.29.28.29.3.27.31.26.31.25.33.23.33.23.35.21.35.2.36.18.38.17.37.15.39.14.4.13.4.11.4.09.42.08.42.06.42.04.43.03.44.01.44v32H576v-32l.01-.44.03-.44.04-.43.06-.42.08-.42.09-.42.11-.4.12-.4.14-.4.16-.39.17-.37.18-.38.2-.36.21-.35.22-.35.24-.33.25-.33.26-.31.27-.31.28-.3.3-.28.31-.27.31-.26.33-.25.33-.24.35-.22.35-.21.36-.2.38-.18.37-.17.39-.16.4-.14.4-.12.4-.11.42-.09.42-.08.42-.06.43-.04.44-.03.44-.01h32v-21.33h-32l-.44-.01-.44-.03-.43-.04-.42-.06-.42-.08-.42-.09-.4-.11-.4-.13-.4-.14-.39-.15-.37-.17-.38-.18-.36-.2-.35-.21-.35-.23-.33-.23-.33-.25-.31-.26-.31-.27-.3-.29-.28-.29-.27-.31-.26-.31-.25-.33-.24-.34-.22-.34-.21-.36-.2-.36-.18-.37-.17-.38-.16-.38-.14-.4-.12-.4-.11-.41-.09-.41-.08-.42-.06-.42-.04-.44-.03-.43-.01-.44v-32h-21.33v32z" id="i"/><path d="M587.54 442.7l.43.05.43.06.42.07.41.1.41.11.4.12.39.14.39.15.38.17.37.19.36.19.36.21.34.23.34.23.32.25.32.26.3.28.3.28.28.3.28.3.26.32.25.32.23.34.23.34.21.36.19.36.19.37.17.38.15.39.14.39.12.4.11.41.1.41.07.42.06.43.05.43.02.43.01.44v32h32l.44.01.44.03.43.04.42.06.42.08.42.09.4.11.4.13.4.14.39.15.37.17.38.18.36.2.35.21.35.23.33.23.33.25.31.26.31.27.3.29.28.29.27.31.26.31.25.33.24.34.22.34.21.36.2.36.18.37.17.38.16.38.14.4.12.4.11.41.09.41.08.42.06.42.04.44.03.43.01.44v42.67l-.01.44-.03.43-.04.43-.06.43-.08.42-.09.41-.11.41-.12.4-.14.39-.16.39-.17.38-.18.37-.2.36-.21.36-.22.34-.24.34-.25.32-.26.32-.27.3-.28.3-.3.28-.31.28-.31.26-.33.25-.33.23-.35.23-.35.21-.36.19-.38.19-.37.17-.39.15-.4.14-.4.12-.4.11-.42.1-.42.07-.42.06-.43.05-.44.02-.44.01h-32v32l-.01.44-.02.44-.05.43-.06.42-.07.42-.1.42-.11.4-.12.4-.14.4-.15.39-.17.37-.19.38-.19.36-.21.35-.23.35-.23.33-.25.33-.26.31-.28.31-.28.3-.3.28-.3.27-.32.26-.32.25-.34.24-.34.22-.36.21-.36.2-.37.18-.38.17-.39.16-.39.14-.4.12-.41.11-.41.09-.42.08-.43.06-.43.04-.43.03-.44.01H544l-.44-.01-.43-.03-.44-.04-.42-.06-.42-.08-.41-.09-.41-.11-.4-.12-.4-.14-.38-.16-.38-.17-.37-.18-.36-.2-.36-.21-.34-.22-.34-.24-.33-.25-.31-.26-.31-.27-.29-.28-.29-.3-.27-.31-.26-.31-.25-.33-.23-.33-.23-.35-.21-.35-.2-.36-.18-.38-.17-.37-.15-.39-.14-.4-.13-.4-.11-.4-.09-.42-.08-.42-.06-.42-.04-.43-.03-.44-.01-.44v-32h-32l-.44-.01-.43-.02-.43-.05-.43-.06-.42-.07-.41-.1-.41-.11-.4-.12-.39-.14-.39-.15-.38-.17-.37-.19-.36-.19-.36-.21-.34-.23-.34-.23-.32-.25-.32-.26-.3-.28-.3-.28-.28-.3-.28-.3-.26-.32-.25-.32-.23-.34-.23-.34-.21-.36-.19-.36-.19-.37-.17-.38-.15-.39-.14-.39-.12-.4-.11-.41-.1-.41-.07-.42-.06-.43-.05-.43-.02-.43-.01-.44V496l.01-.44.02-.43.05-.44.06-.42.07-.42.1-.41.11-.41.12-.4.14-.4.15-.38.17-.38.19-.37.19-.36.21-.36.23-.34.23-.34.25-.33.26-.31.28-.31.28-.29.3-.29.3-.27.32-.26.32-.25.34-.23.34-.23.36-.21.36-.2.37-.18.38-.17.39-.15.39-.14.4-.13.41-.11.41-.09.42-.08.43-.06.43-.04.43-.03.44-.01h32v-32l.01-.44.03-.43.04-.43.06-.43.08-.42.09-.41.11-.41.13-.4.14-.39.15-.39.17-.38.18-.37.2-.36.21-.36.23-.34.23-.34.25-.32.26-.32.27-.3.29-.3.29-.28.31-.28.31-.26.33-.25.34-.23.34-.23.36-.21.36-.19.37-.19.38-.17.38-.15.4-.14.4-.12.41-.11.41-.1.42-.07.42-.06.44-.05.43-.02.44-.01h42.67l.44.01.43.02zM554.67 496l-.01.44-.03.43-.04.44-.06.42-.08.42-.09.41-.11.41-.13.4-.14.4-.15.38-.17.38-.18.37-.2.36-.21.36-.23.34-.23.34-.25.33-.26.31-.27.31-.29.29-.29.29-.31.27-.31.26-.33.25-.34.23-.34.23-.36.21-.36.2-.37.18-.38.17-.38.15-.4.14-.4.13-.41.11-.41.09-.42.08-.42.06-.44.04-.43.03-.44.01h-32V528h32l.44.01.43.03.44.04.42.06.42.08.41.09.41.11.4.12.4.14.38.16.38.17.37.18.36.2.36.21.34.22.34.24.33.25.31.26.31.27.29.28.29.3.27.31.26.31.25.33.23.33.23.35.21.35.2.36.18.38.17.37.15.39.14.4.13.4.11.4.09.42.08.42.06.42.04.43.03.44.01.44v32H576v-32l.01-.44.03-.44.04-.43.06-.42.08-.42.09-.42.11-.4.12-.4.14-.4.16-.39.17-.37.18-.38.2-.36.21-.35.22-.35.24-.33.25-.33.26-.31.27-.31.28-.3.3-.28.31-.27.31-.26.33-.25.33-.24.35-.22.35-.21.36-.2.38-.18.37-.17.39-.16.4-.14.4-.12.4-.11.42-.09.42-.08.42-.06.43-.04.44-.03.44-.01h32v-21.33h-32l-.44-.01-.44-.03-.43-.04-.42-.06-.42-.08-.42-.09-.4-.11-.4-.13-.4-.14-.39-.15-.37-.17-.38-.18-.36-.2-.35-.21-.35-.23-.33-.23-.33-.25-.31-.26-.31-.27-.3-.29-.28-.29-.27-.31-.26-.31-.25-.33-.24-.34-.22-.34-.21-.36-.2-.36-.18-.37-.17-.38-.16-.38-.14-.4-.12-.4-.11-.41-.09-.41-.08-.42-.06-.42-.04-.44-.03-.43-.01-.44v-32h-21.33v32z" id="j"/></defs><use xlink:href="#a" fill="#ff5252"/><use xlink:href="#a" fill-opacity="0" stroke="#000" stroke-opacity="0"/><use xlink:href="#b" fill="#ff5252"/><use xlink:href="#b" fill-opacity="0" stroke="#000" stroke-opacity="0"/><use xlink:href="#c" fill="#ff5252"/><use xlink:href="#c" fill-opacity="0" stroke="#000" stroke-opacity="0"/><use xlink:href="#d" fill="#ff5252"/><use xlink:href="#d" fill-opacity="0" stroke="#000" stroke-opacity="0"/><use xlink:href="#e" fill="#ff5252"/><use xlink:href="#e" fill-opacity="0" stroke="#000" stroke-opacity="0"/><use xlink:href="#f" fill="#ff5252"/><use xlink:href="#f" fill-opacity="0" stroke="#000" stroke-opacity="0"/><use xlink:href="#g" fill="#ff5252"/><use xlink:href="#g" fill-opacity="0" stroke="#000" stroke-opacity="0"/><use xlink:href="#h" fill="#ff5252"/><use xlink:href="#h" fill-opacity="0" stroke="#000" stroke-opacity="0"/><use xlink:href="#i" fill="#ff5252"/><use xlink:href="#i" fill-opacity="0" stroke="#000" stroke-opacity="0"/><use xlink:href="#j" fill="#ff5252"/><use xlink:href="#j" fill-opacity="0" stroke="#000" stroke-opacity="0"/></svg>