<svg xmlns="http://www.w3.org/2000/svg" viewBox="0 0 512 512"><path d="M299.288 237.784L38.562 510.637c-2.108 2.206-5.765 1.655-7.129-1.074a64.838 64.838 0 0 0-28.995-28.996c-2.729-1.364-3.28-5.021-1.074-7.129l272.853-260.726a4.407 4.407 0 0 1 6.162.07l18.84 18.84a4.41 4.41 0 0 1 .069 6.162z" fill="#c83741"/><path d="M290.463 94.249a5 5 0 0 1 0 7.071l-36.404 36.404a5 5 0 0 1-5.668.987l-77.225-36.404c-3.824-1.802-3.824-7.243 0-9.045l77.225-36.404a5 5 0 0 1 5.668.987l36.404 36.404zm163.692 163.693l-36.404-36.404a5 5 0 0 0-7.071 0l-36.404 36.404a4.998 4.998 0 0 0-.987 5.667l36.404 77.225c1.803 3.824 7.243 3.824 9.045 0l36.404-77.225a4.998 4.998 0 0 0-.987-5.667z" fill="#ffa5a5"/><path d="M418.869 207.804L303.618 323.055c-14.543 14.543-22.552 33.879-22.552 54.445 0 24.573-9.569 47.676-26.945 65.052l-67.251 67.252c-1.464 1.464-3.384 2.196-5.303 2.196s-3.839-.732-5.303-2.196a7.5 7.5 0 0 1 0-10.607l67.251-67.251c14.542-14.543 22.552-33.879 22.552-54.445 0-24.573 9.569-47.676 26.946-65.052l115.251-115.252a7.501 7.501 0 0 1 10.606 0 7.501 7.501 0 0 1-.001 10.607zM314.803 99.737a7.5 7.5 0 0 0-10.606-10.607L188.946 204.382c-14.543 14.543-33.879 22.552-54.446 22.552-24.574 0-47.676 9.569-65.052 26.945L2.197 321.13a7.5 7.5 0 0 0 10.606 10.607l67.251-67.252c14.543-14.543 33.878-22.552 54.445-22.552 24.573 0 47.676-9.569 65.052-26.944L314.803 99.737z" fill="#e6c8a0"/><path d="M512 10v307.03c0 7.619-8.18 12.439-14.845 8.748l-92.548-51.257A100.005 100.005 0 0 0 356.157 262H260c-5.523 0-10-4.477-10-10v-96.157c0-16.95-4.309-33.622-12.521-48.45l-51.257-92.548C182.531 8.18 187.351 0 194.97 0H502c5.523 0 10 4.477 10 10z" fill="#ff4b4b"/><path d="M512 10v307.03c0 7.619-8.18 12.439-14.845 8.748L476 314.062V0h26c5.523 0 10 4.477 10 10z" fill="#d24a4a"/><path d="M512 10v153.279L268.965 262H260c-5.523 0-10-4.477-10-10v-8.965L348.721 0H502c5.523 0 10 4.477 10 10z" fill="#ffcf65"/><path d="M512 10v153.279l-36 14.623V0h26c5.523 0 10 4.477 10 10zm-97 40c-24.853 0-45 20.147-45 45s20.147 45 45 45 45-20.147 45-45-20.147-45-45-45z" fill="#ffb450"/></svg>