<svg xmlns="http://www.w3.org/2000/svg" viewBox="0 0 512.002 512.002"><path d="M259.743 12.544L291.129.684a10.586 10.586 0 0 1 10.361 1.641l26.183 20.979a10.584 10.584 0 0 0 7.118 2.313l33.515-1.581a10.587 10.587 0 0 1 9.347 4.763l18.42 28.043a10.582 10.582 0 0 0 6.055 4.399l32.363 8.852c3.61.988 6.43 3.807 7.417 7.417l8.852 32.363a10.582 10.582 0 0 0 4.399 6.055l28.043 18.42a10.587 10.587 0 0 1 4.763 9.347l-1.581 33.515a10.587 10.587 0 0 0 2.313 7.118l20.979 26.185a10.586 10.586 0 0 1 1.641 10.361l-11.86 31.386a10.589 10.589 0 0 0 0 7.484l11.86 31.386a10.586 10.586 0 0 1-1.641 10.361l-20.979 26.185a10.584 10.584 0 0 0-2.313 7.118l1.581 33.515a10.587 10.587 0 0 1-4.763 9.347l-28.043 18.42a10.582 10.582 0 0 0-4.399 6.055l-8.852 32.363a10.584 10.584 0 0 1-7.417 7.417l-32.363 8.852a10.582 10.582 0 0 0-6.055 4.399l-18.42 28.043a10.587 10.587 0 0 1-9.347 4.763l-33.515-1.581a10.59 10.59 0 0 0-7.118 2.313l-26.185 20.979a10.586 10.586 0 0 1-10.361 1.641l-31.386-11.86a10.589 10.589 0 0 0-7.484 0l-31.386 11.86a10.586 10.586 0 0 1-10.361-1.641L184.325 488.7a10.584 10.584 0 0 0-7.118-2.313l-33.515 1.581a10.587 10.587 0 0 1-9.347-4.763l-18.42-28.043a10.582 10.582 0 0 0-6.055-4.399l-32.363-8.852a10.584 10.584 0 0 1-7.417-7.417l-8.852-32.363a10.582 10.582 0 0 0-4.399-6.055l-28.043-18.421a10.587 10.587 0 0 1-4.763-9.347l1.581-33.515a10.584 10.584 0 0 0-2.313-7.118L2.326 301.488a10.586 10.586 0 0 1-1.641-10.361l11.86-31.386a10.589 10.589 0 0 0 0-7.484L.685 220.871a10.586 10.586 0 0 1 1.641-10.361l20.979-26.183a10.584 10.584 0 0 0 2.313-7.118l-1.581-33.515a10.587 10.587 0 0 1 4.763-9.347l28.043-18.42a10.582 10.582 0 0 0 4.399-6.055l8.852-32.363a10.584 10.584 0 0 1 7.417-7.417l32.363-8.852a10.582 10.582 0 0 0 6.055-4.399l18.42-28.043a10.587 10.587 0 0 1 9.347-4.763l33.515 1.581a10.584 10.584 0 0 0 7.118-2.313l26.185-20.979A10.586 10.586 0 0 1 220.875.683l31.386 11.86c2.409.912 5.071.912 7.482.001z" fill="#ffc850"/><path d="M335.9 442.429c-147.089 0-266.329-119.24-266.329-266.329 0-39.393 8.621-76.751 23.971-110.394l-16.031 4.386a10.584 10.584 0 0 0-7.417 7.417l-8.853 32.363a10.587 10.587 0 0 1-4.399 6.056l-28.044 18.42a10.587 10.587 0 0 0-4.763 9.346l1.581 33.515a10.589 10.589 0 0 1-2.313 7.118L2.326 210.512a10.585 10.585 0 0 0-1.641 10.36l11.86 31.386a10.589 10.589 0 0 1 0 7.484L.685 291.128a10.586 10.586 0 0 0 1.641 10.361l20.979 26.185a10.584 10.584 0 0 1 2.313 7.118l-1.581 33.515a10.587 10.587 0 0 0 4.763 9.347l28.043 18.42a10.586 10.586 0 0 1 4.399 6.055l8.853 32.363a10.587 10.587 0 0 0 7.417 7.418l32.363 8.853c2.487.68 4.64 2.244 6.055 4.399l18.42 28.043a10.59 10.59 0 0 0 9.347 4.763l33.514-1.581a10.59 10.59 0 0 1 7.119 2.313l26.185 20.979a10.587 10.587 0 0 0 10.36 1.641l31.386-11.861a10.589 10.589 0 0 1 7.484 0l31.386 11.861a10.583 10.583 0 0 0 10.36-1.641l26.185-20.979a10.595 10.595 0 0 1 7.119-2.313l33.514 1.581a10.587 10.587 0 0 0 9.347-4.763l18.42-28.043a10.586 10.586 0 0 1 6.055-4.399l32.363-8.853a10.584 10.584 0 0 0 7.417-7.418l4.386-16.031c-33.645 15.348-71.004 23.968-110.397 23.968z" fill="#e1a546"/><circle cx="255.998" cy="255.997" r="204.185" fill="#ffdc64"/><path d="M354.171 401.689c-1.757-2.343-4.495-3.71-7.422-3.806-109.566-3.645-197.28-93.572-197.28-204.025 0-29.537 6.343-57.555 17.67-82.871 3.585-8.014-5.37-15.984-12.728-11.194-56.276 36.637-91.571 102.76-83.762 176.528 8.81 83.219 74.039 151.434 156.782 163.944 45.671 6.905 88.48-3.106 123.836-24.335 4.988-2.995 6.394-9.586 2.904-14.241z" fill="#ffc850"/><path d="M193.858 362.531h-53.266a8.878 8.878 0 0 1-8.878-8.878V211.611a8.878 8.878 0 0 1 8.878-8.878h53.266a8.878 8.878 0 0 1 8.878 8.878v142.042a8.878 8.878 0 0 1-8.878 8.878zm195.237-139.893c-1.156-11.551-11.736-19.905-23.345-19.905h-75.57c20.666-16.731 34.698-39.175 36.729-57.633 1.506-13.687-7.958-26.688-21.727-26.816-12.347-.114-22.397 9.76-22.397 22.08 0 7.993-17.348 31.713-49.86 42.267l-.142.047c-7.605 2.516-12.292 10.208-12.292 18.218v143.878a8.878 8.878 0 0 0 8.878 8.878h114.505c8.844 0 17.042-6.045 18.462-14.775 1.809-11.124-6.729-20.736-17.512-20.736h7.929c8.844 0 17.042-6.045 18.462-14.775 1.809-11.124-6.729-20.736-17.512-20.736h7.929c8.844 0 17.042-6.045 18.462-14.775 1.809-11.124-6.729-20.736-17.512-20.736h4.439c13.008.003 23.404-11.195 22.074-24.481z" fill="#fff"/><g fill="#fffab4"><path d="M335.9 300.387a8.878 8.878 0 0 0 0 17.756h16.851c8.844 0 17.042-6.045 18.462-14.775.164-1.015.154-1.997.153-2.981H335.9zm0-35.51a8.878 8.878 0 0 0 0 17.756h25.729c8.844 0 17.042-6.045 18.462-14.775.164-1.015.154-1.997.153-2.981H335.9zm0-35.51a8.878 8.878 0 0 0 0 17.756h31.116c10.723 0 19.555-7.646 21.628-17.755H335.9z"/><path d="M256.002 335.899c-9.806 0-17.755-7.949-17.755-17.755V208.752c0-3.561 2.131-6.745 5.396-8.165 14.532-6.323 60.259-30.663 65.074-78.458l-3.674-3.844c-12.283-.039-22.257 9.806-22.257 22.081 0 7.993-17.348 31.713-49.86 42.267a18.07 18.07 0 0 0-12.434 17.168v144.976a8.878 8.878 0 0 0 8.878 8.878h114.505c9.8 0 18.805-7.421 18.676-17.692l-.062-.063H256.002zm-88.777 8.877c-9.806 0-17.755-7.949-17.755-17.755V202.734h-8.878a8.878 8.878 0 0 0-8.878 8.878v142.042a8.878 8.878 0 0 0 8.878 8.878h53.266a8.878 8.878 0 0 0 8.878-8.878v-8.878h-35.511z"/></g><circle cx="167.222" cy="327.018" r="13.316" fill="#ffdc64"/></svg>