<svg xmlns="http://www.w3.org/2000/svg" viewBox="0 0 512 512"><path d="M480 120v370c0 5.523-4.477 10-10 10H140c-5.523 0-10-4.477-10-10V120c0-5.523 4.477-10 10-10h330c5.523 0 10 4.477 10 10z" fill="#bfeefc"/><path d="M230 210v280c0 5.523-4.477 10-10 10H40c-5.523 0-10-4.477-10-10V210c0-5.523 4.477-10 10-10h180c5.523 0 10 4.477 10 10z" fill="#a1d7fc"/><path d="M91 380H61V200h30v180z" fill="#69afeb"/><path d="M76 207.5a7.5 7.5 0 0 1-7.5-7.5V40a7.5 7.5 0 0 1 15 0v160a7.5 7.5 0 0 1-7.5 7.5z" fill="#85c2ef"/><path d="M41 205c0-19.33 15.67-35 35-35s35 15.67 35 35-15.67 35-35 35-35-15.67-35-35zm35-85c8.284 0 15-6.716 15-15s-6.716-15-15-15-15 6.716-15 15 6.716 15 15 15zm0 220c-30.376 0-55 24.624-55 55s24.624 55 55 55 55-24.624 55-55-24.624-55-55-55z" fill="#736f7b"/><path d="M89.333 205c0-15.547-10.141-28.719-24.166-33.282A34.953 34.953 0 0 1 76 170c19.33 0 35 15.67 35 35s-15.67 35-35 35c-3.782 0-7.421-.608-10.832-1.718 14.025-4.563 24.165-17.735 24.165-33.282zM76 340c-4.718 0-9.297.596-13.667 1.713 23.764 6.077 41.333 27.629 41.333 53.287s-17.57 47.21-41.333 53.287A55.124 55.124 0 0 0 76 450c30.376 0 55-24.624 55-55s-24.624-55-55-55z" fill="#504b5a"/><path d="M491 425v60a5 5 0 0 1-5 5H66a5 5 0 0 1-5-5v-60a5 5 0 0 1 5-5h420a5 5 0 0 1 5 5zM234.015 80v120a7.5 7.5 0 0 1-15 0V80a7.5 7.5 0 0 1 15 0z" fill="#69afeb"/><path d="M265.082 300h-77.135v-70l38.979-90 38.156 90v70z" fill="#85c2ef"/><path d="M265.082 230v70h-18v-70l-29.252-68.998L226.926 140l38.156 90z" fill="#69afeb"/><path d="M106 395v90a5 5 0 0 1-5 5H51a5 5 0 0 1-5-5v-90a5 5 0 0 1 5-5h50a5 5 0 0 1 5 5z" fill="#4b82c8"/><path d="M282.029 350v160H171V350l8.474-20v-90c0-5.523 4.477-10 10-10h74.082c5.523 0 10 4.477 10 10v90l8.473 20z" fill="#5091d7"/><path d="M282.029 350v160h-15.25V355.003l-8.474-20V240c0-5.523-4.477-10-10-10h15.25c5.523 0 10 4.477 10 10v90l8.474 20z" fill="#4b82c8"/><path d="M441 23.904v23.887c0 114.772 3.952 229.51 11.848 344.011L461 510H321l8.152-118.199A5000.342 5000.342 0 0 0 341 47.791V5a5 5 0 0 1 5-5 121.86 121.86 0 0 1 29.552 3.638l61.661 15.415A5 5 0 0 1 441 23.904z" fill="#85c2ef"/><path d="M461 510h-30l-8.152-118.199A5000.342 5000.342 0 0 1 411 47.791V12.5l26.213 6.553A5 5 0 0 1 441 23.904v23.887c0 114.772 3.952 229.51 11.848 344.01L461 510z" fill="#69afeb"/><path d="M447.25 297.5h-24.822a7.5 7.5 0 0 1 0-15h24.087c.236 5 .485 10 .735 15zm-6.218-235H371a7.5 7.5 0 0 0 0 15h70.099c-.03-5-.053-10-.067-15zm2.369 140h-46.687a7.5 7.5 0 0 0 0 15h47.171c-.169-5-.329-10-.484-15zm-1.681-70h-57.863a7.5 7.5 0 0 0 0 15h58.148c-.1-5-.2-10-.285-15zm9.205 230h-11.8a7.5 7.5 0 0 0 0 15h12.768c-.33-5-.653-10-.968-15z" fill="#5091d7"/><path d="M219.015 260v160a7.5 7.5 0 0 1-15 0V260a7.5 7.5 0 0 1 15 0zm22.5-7.5a7.5 7.5 0 0 0-7.5 7.5v160a7.5 7.5 0 0 0 15 0V260a7.5 7.5 0 0 0-7.5-7.5z" fill="#69afeb"/><path d="M341 455v30a5 5 0 0 1-5 5H146a5 5 0 0 1-5-5v-30a5 5 0 0 1 5-5h190a5 5 0 0 1 5 5z" fill="#4b82c8"/><path d="M339.596 110c8.352 0 15.398 6.23 16.413 14.521C373.843 270.174 403.927 402.769 441 510H315.058l8.152-118.199a4999.218 4999.218 0 0 0 11.393-276.872 4.994 4.994 0 0 1 4.993-4.929z" fill="#5091d7"/><path d="M347.5 217.5h-15.328c.17-5 .332-10 .487-15H347.5a7.5 7.5 0 0 1 0 15zm21 72.5a7.5 7.5 0 0 0-7.5-7.5h-31.462c-.235 5-.478 10-.728 15H361a7.5 7.5 0 0 0 7.5-7.5zm2.5 72.5h-45.862c-.315 5-.636 10-.966 15H371a7.5 7.5 0 0 0 0-15z" fill="#4b82c8"/><path d="M507 512H5a5 5 0 0 1-5-5v-20a5 5 0 0 1 5-5h502a5 5 0 0 1 5 5v20a5 5 0 0 1-5 5z" fill="#736f7b"/></svg>