<svg xmlns="http://www.w3.org/2000/svg" viewBox="0 0 512 512"><path d="M481 40h-30c5.523 0 10 4.477 10 10v20c0 5.523-4.477 10-10 10h30c5.523 0 10 4.477 10 10v20c0 5.523-4.477 10-10 10h-30c5.523 0 10 4.477 10 10v20c0 5.523-4.477 10-10 10h30c5.523 0 10 4.477 10 10v20c0 5.523-4.477 10-10 10h-30c5.523 0 10 4.477 10 10v20c0 5.523-4.477 10-10 10 5.523 0 10 4.477 10 10v20c0 5.523-4.477 10-10 10h30c5.523 0 10 4.477 10 10v20c0 5.523-4.477 10-10 10h-30c5.523 0 10 4.477 10 10v20c0 5.523-4.477 10-20.006 10h-240c4.483 0 .006-4.477.006-10v-20c0-5.523 4.477-10 10-10h19.994c-5.523 0-10-4.477-10-10v-20c0-5.523 4.477-10 10-10H211c-5.523 0-10-4.477-10-10v-20c0-5.523 4.477-10 10-10-5.523 0-10-4.477-10-10v-20c0-5.523 4.477-10 10-10h30c-5.523 0-10-4.477-10-10v-20c0-5.523 4.477-10 10-10h-30c-5.523 0-10-4.477-10-10v-20c0-5.523 4.477-10 10-10h30c-5.523 0-10-4.477-10-10V90c0-5.523 4.477-10 10-10h-30c-5.523 0-10-4.477-10-10V50c0-5.523 4.477-10 10-10h30c-5.523 0-10-4.477-10-10V10c0-5.523 4.477-10 10-10h240c5.523 0 10 4.477 10 10v20c0 5.523-4.477 10-10 10z" fill="#ffcf65"/><path d="M481 40h-30c5.523 0 10 4.477 10 10v20c0 5.523-4.477 10-10 10h30c5.523 0 10 4.477 10 10v20c0 5.523-4.477 10-10 10h-30c5.523 0 10 4.477 10 10v20c0 5.523-4.477 10-10 10h30c5.523 0 10 4.477 10 10v20c0 5.523-4.477 10-10 10h-30c5.523 0 10 4.477 10 10v20c0 5.523-4.477 10-10 10 5.523 0 10 4.477 10 10v20c0 5.523-4.477 10-10 10h30c5.523 0 10 4.477 10 10v20c0 5.523-4.477 10-10 10h-30c5.523 0 10 4.477 10 10v20c0 5.523-4.477 10-20.006 10h-33c15.529 0 20.006-4.477 20.006-10v-20c0-5.523-4.477-10-10-10h30c5.523 0 10-4.477 10-10v-20c0-5.523-4.477-10-10-10h-30c5.523 0 10-4.477 10-10v-20c0-5.523-4.477-10-10-10 5.523 0 10-4.477 10-10v-20c0-5.523-4.477-10-10-10h30c5.523 0 10-4.477 10-10v-20c0-5.523-4.477-10-10-10h-30c5.523 0 10-4.477 10-10v-20c0-5.523-4.477-10-10-10h30c5.523 0 10-4.477 10-10V90c0-5.523-4.477-10-10-10h-30c5.523 0 10-4.477 10-10V50c0-5.523-4.477-10-10-10h30c5.523 0 10-4.477 10-10V10c0-5.523-4.477-10-10-10h33c5.523 0 10 4.477 10 10v20c0 5.523-4.477 10-10 10z" fill="#ffb450"/><path d="M491 290v20c0 5.523-4.477 10-10 10H219.667c-5.523 0-10-4.477-10-10v-20c0-5.523 4.477-10 10-10H481c5.523 0 10 4.477 10 10zm-10-130H241c-5.523 0-10 4.477-10 10v20c0 5.523 4.477 10 10 10h-30c-5.523 0-10 4.477-10 10v20c0 5.523 4.477 10 10 10h240c5.523 0 10-4.477 10-10v-20c0-5.523-4.477-10-10-10h30c5.523 0 10-4.477 10-10v-20c0-5.523-4.477-10-10-10zm0-80h-30c5.523 0 10-4.477 10-10V50c0-5.523-4.477-10-10-10H211c-5.523 0-10 4.477-10 10v20c0 5.523 4.477 10 10 10h30c-5.523 0-10 4.477-10 10v20c0 5.523 4.477 10 10 10h240c5.523 0 10-4.477 10-10V90c0-5.523-4.477-10-10-10z" fill="#f0c087"/><path d="M491 290v20c0 5.523-4.477 10-10 10h-32c5.523 0 10-4.477 10-10v-20c0-5.523-4.477-10-10-10h32c5.523 0 10 4.477 10 10zm-10-130h-32c5.523 0 10 4.477 10 10v20c0 5.523-4.477 10-10 10h-30c5.523 0 10 4.477 10 10v20c0 5.523-4.477 10-10 10h32c5.523 0 10-4.477 10-10v-20c0-5.523-4.477-10-10-10h30c5.523 0 10-4.477 10-10v-20c0-5.523-4.477-10-10-10zm0-80h-30c5.523 0 10-4.477 10-10V50c0-5.523-4.477-10-10-10h-32c5.523 0 10 4.477 10 10v20c0 5.523-4.477 10-10 10h30c5.523 0 10 4.477 10 10v20c0 5.523-4.477 10-10 10h32c5.523 0 10-4.477 10-10V90c0-5.523-4.477-10-10-10z" fill="#e6af78"/><path d="M491 170v20c0 5.523-4.477 10-10 10H241c-5.523 0-10-4.477-10-10v-20c0-5.523 4.477-10 10-10h240c5.523 0 10 4.477 10 10zm-10-90H241c-5.523 0-10 4.477-10 10v20c0 5.523 4.477 10 10 10h240c5.523 0 10-4.477 10-10V90c0-5.523-4.477-10-10-10z" fill="#d5945e"/><path d="M491 170v20c0 5.523-4.477 10-10 10h-30.333c5.523 0 10-4.477 10-10v-20c0-5.523-4.477-10-10-10H481c5.523 0 10 4.477 10 10zm-10-90h-30.333c5.523 0 10 4.477 10 10v20c0 5.523-4.477 10-10 10H481c5.523 0 10-4.477 10-10V90c0-5.523-4.477-10-10-10z" fill="#ce8855"/><path d="M151 512c-71.797 0-130-58.203-130-130s58.203-130 130-130 130 58.203 130 130-58.203 130-130 130z" fill="#e6af78"/><path d="M281 382c0 71.797-58.203 130-130 130-4.458 0-8.862-.231-13.203-.672C203.348 504.669 254.5 449.308 254.5 382s-51.152-122.669-116.703-129.328A130.59 130.59 0 0 1 151 252c71.797 0 130 58.203 130 130z" fill="#d5945e"/><path d="M151 477c-52.467 0-95-42.533-95-95s42.533-95 95-95 95 42.533 95 95-42.533 95-95 95z" fill="#ffcf65"/><path d="M197.24 334.16l-32.227 48.34H181a7.5 7.5 0 0 1 0 15h-22.5v15H181a7.5 7.5 0 0 1 0 15h-22.5V450a7.5 7.5 0 0 1-15 0v-22.5H121a7.5 7.5 0 0 1 0-15h22.5v-15H121a7.5 7.5 0 0 1 0-15h15.986l-32.227-48.34a7.5 7.5 0 0 1 12.48-8.32L151 376.479l33.76-50.639a7.498 7.498 0 0 1 10.4-2.08 7.498 7.498 0 0 1 2.08 10.4z" fill="#c37a4f"/></svg>