<svg xmlns="http://www.w3.org/2000/svg" xmlns:xlink="http://www.w3.org/1999/xlink" viewBox="0 0 640 640" width="640" height="640"><defs><path d="M309.23 288c-5.89 0-10.67-4.78-10.67-10.67v-10.66c0-5.89 4.78-10.67 10.67-10.67h21.33c5.89 0 10.67 4.78 10.67 10.67h21.33c0-17.68-14.32-32-32-32v-21.34h-21.33v21.34c-17.67 0-32 14.32-32 32v10.66c0 17.68 14.33 32 32 32h21.33c5.89 0 10.67 4.78 10.67 10.67v10.67c0 5.89-4.78 10.66-10.67 10.66h-21.33c-5.89 0-10.67-4.77-10.67-10.66h-21.33c0 17.67 14.33 32 32 32V384h21.33v-21.33c17.68 0 32-14.33 32-32V320c0-17.67-14.32-32-32-32h-21.33z" id="a"/><path d="M270.68.04l1.14.05 1.14.08 1.14.1 1.13.12 1.13.14 1.12.17 1.12.19 1.12.21 1.1.23 1.11.25 1.09.27 1.09.3 1.09.32 1.07.33 1.07.36 1.07.38 1.05.4 1.04.43 1.04.44 1.03.46 1.02.48 1.01.5 1 .53.99.54.98.56.97.58.96.6.95.62.93.64.92.66.92.68.9.69.88.72.87.73.86.75.85.77.83.79.82.81.45.41.47.4.48.37.49.36.5.33.5.31.52.29.53.27.53.24.54.23.55.2.55.18.56.16.56.14.57.12.57.1.57.07.58.05.57.04.58.01.57-.01.58-.04.57-.05.58-.07.57-.1.56-.12.56-.14.56-.16.56-.18.54-.2.54-.23.54-.24.52-.27.52-.29.51-.31.5-.33.49-.36.47-.37.47-.4.45-.41.82-.81.83-.79.85-.77.86-.75.87-.73.89-.72.9-.69.91-.68.92-.66.94-.64.95-.62.95-.6.97-.58.98-.56.99-.54 1-.53 1.01-.5 1.02-.48 1.03-.46 1.04-.45 1.05-.42 1.05-.4 1.06-.38 1.07-.36 1.08-.33 1.08-.32 1.09-.3 1.1-.27 1.1-.25 1.11-.24 1.11-.2 1.12-.19 1.12-.17 1.13-.14 1.13-.12 1.14-.1 1.14-.08 1.14-.05 1.15-.03 1.15-.01h.46l.23.01h.47l.23.01.23.01.23.01.23.01.24.01.23.01.23.01.23.02.23.01.23.02.24.02.23.02.23.02.23.02.23.02.23.02.23.03.23.02.23.03.23.03.23.03.23.03.23.03.23.03.23.03.23.04.23.04.23.03.23.04.23.04.23.04.23.04.22.04.23.05.23.04 1.9.42 1.86.49 1.83.57 1.79.63 1.75.69 1.71.77 1.68.82 1.63.89 1.58.95 1.54 1 1.5 1.06 1.45 1.12 1.4 1.17 1.35 1.22 1.31 1.27 1.25 1.31 1.2 1.36 1.14 1.41 1.09 1.44 1.03 1.49.98 1.52.92 1.57.85 1.59.8 1.63.73 1.66.67 1.69.61 1.72.54 1.74.47 1.77.41 1.79.33 1.81.27 1.83.19 1.84.12 1.86.05 1.88-.03 1.88-.11 1.9-.18 1.9-.26 1.91-.34 1.91-10.06 50.28h8.32l.92.02.93.04.92.07.91.1.9.12.9.15.89.17.89.2.88.23.86.24.86.27.85.3.84.32.83.34.82.36.81.39.79.4.79.43.77.46.76.47.74.49.73.52.72.53.7.56.69.57.67.59.65.62.64.63.62.65.61.67.58.69.57.7.55.72.52.74.51.76.49.77.47.79.44.81.43.82.4.83.53 1.21.48 1.22.42 1.23.37 1.23.32 1.24.27 1.24.21 1.25.17 1.25.12 1.25.06 1.24.02 1.25-.03 1.24-.08 1.23-.12 1.23-.18 1.23-.22 1.21-.26 1.2-.32 1.19-.35 1.17-.4 1.17-.45 1.14-.49 1.13-.53 1.11-.57 1.08-.62 1.07-.65 1.05-.7 1.01-.74 1-.78.97-.82.93-.86.91-.89.88-.94.84-.97.81-1 .78-1.05.74-1.08.7-1.12.66-1.15.62-1.18.58 2.89 2.46 2.82 2.53 2.77 2.57 2.7 2.63 2.64 2.69 2.57 2.74 2.51 2.79 2.44 2.84 2.37 2.88 2.31 2.94 2.24 2.98 2.18 3.03 2.1 3.07 2.04 3.12 1.97 3.15 1.89 3.2 1.83 3.23 1.75 3.28 1.68 3.31 1.61 3.34 1.54 3.38 1.46 3.41 1.39 3.45 1.31 3.47 1.24 3.5 1.16 3.54 1.09 3.55 1.01 3.59.93 3.61.85 3.63.78 3.65.69 3.68.62 3.69.53 3.71.45 3.73.38 3.75.29 3.76.2 3.77.12 3.79.04 3.8-.14 7.03-.43 6.96-.71 6.89-.97 6.8-1.24 6.71-1.5 6.62-1.75 6.51-2 6.41-2.24 6.3-2.48 6.19-2.71 6.06-2.94 5.93-3.15 5.8-3.38 5.67-3.58 5.51-3.78 5.37-3.99 5.22-4.18 5.05-4.36 4.89-4.55 4.72-4.72 4.54-4.9 4.35-5.06 4.17-5.22 3.98-5.37 3.78-5.53 3.57-5.67 3.36-5.8 3.15-5.94 2.93-6.07 2.7-6.18 2.47-6.31 2.23-6.41 1.99-6.52 1.74-6.62 1.49-6.71 1.23-6.8.96-6.89.69-6.96.42-7.04.14-7.03-.15-6.96-.43-6.89-.7-6.8-.98-6.71-1.24-6.62-1.49-6.51-1.76-6.41-2-6.3-2.24-6.19-2.48-6.06-2.71-5.93-2.93-5.8-3.16-5.67-3.37-5.52-3.58-5.37-3.79-5.21-3.98-5.05-4.18-4.89-4.37-4.72-4.54-4.54-4.73-4.35-4.89-4.17-5.06-3.98-5.22-3.78-5.38-3.57-5.52-3.36-5.67-3.15-5.81-2.93-5.94-2.7-6.06-2.47-6.19-2.23-6.3-1.99-6.42-1.74-6.52-1.49-6.62-1.23-6.71-.96-6.8-.69-6.89-.42-6.96-.14-7.03.05-3.79.13-3.78.22-3.76.3-3.76.38-3.73.46-3.72.54-3.71.62-3.68.71-3.67.78-3.64.85-3.63.94-3.6 1.01-3.57 1.09-3.55 1.17-3.53 1.24-3.49 1.31-3.47 1.39-3.43 1.46-3.41 1.54-3.37 1.61-3.34 1.68-3.3 1.75-3.26 1.82-3.23 1.9-3.19 1.96-3.15 2.03-3.11 2.1-3.06 2.17-3.02 2.24-2.98 2.3-2.93 2.37-2.89 2.44-2.83 2.5-2.79 2.56-2.73 2.63-2.68 2.69-2.63 2.76-2.58 2.82-2.52 2.88-2.46-.84-.4-.82-.43-.8-.44-.79-.47-.78-.49-.75-.5-.74-.53-.72-.55-.71-.57-.69-.58-.67-.61-.65-.62-.63-.63-.61-.66-.6-.67-.57-.69-.56-.7-.53-.71-.51-.73-.5-.75-.47-.76-.45-.77-.43-.78-.41-.8-.39-.81-.36-.82-.34-.83-.32-.84-.29-.85-.27-.85-.25-.87-.22-.88-.2-.88-.18-.9-.14-.89-.13-.91-.09-.91-.08-.92-.04-.92-.02-.93.02-1.32.07-1.31.12-1.29.18-1.27.22-1.26.28-1.25.32-1.22.36-1.2.42-1.19.45-1.16.5-1.14.55-1.12.58-1.09.63-1.06.66-1.04.71-1.01.74-.99.77-.95.82-.92.84-.89.88-.86.92-.82.94-.79.97-.75 1.01-.72 1.03-.67 1.06-.64 1.08-.6 1.11-.55 1.14-.52 1.15-.47 1.18-.42 1.2-.38 1.22-.34 1.24-.29 1.26-.23 1.27-.19 1.29-.14 1.31-.09 1.32-.03h8.32l-10.06-50.28-.05-.22-.04-.23-.04-.23-.04-.23-.04-.23-.04-.22-.04-.23-.04-.23-.04-.23-.03-.23-.03-.23-.04-.23-.03-.23-.03-.23-.03-.23-.02-.23-.03-.23-.03-.23-.02-.23-.02-.23-.03-.23-.02-.24-.02-.23-.02-.23-.02-.23-.01-.23-.02-.23-.01-.23-.01-.24-.02-.23-.01-.23-.01-.23-.01-.23v-.23l-.01-.24-.01-.23v-.93l.03-1.94.12-1.93.19-1.9.27-1.88.34-1.85.41-1.83.48-1.8.55-1.77.62-1.75.69-1.7.74-1.68.81-1.64.87-1.6.93-1.57.99-1.53 1.05-1.48 1.09-1.44 1.16-1.4 1.2-1.35 1.26-1.31 1.3-1.25 1.35-1.21 1.4-1.15 1.44-1.1 1.48-1.05 1.53-.99 1.56-.93 1.61-.87 1.64-.81 1.67-.75 1.71-.68 1.74-.62 1.78-.55 1.8-.49 1.82-.41 1.86-.34 1.88-.27 1.9-.19 1.92-.12 1.95-.04 1.15.01 1.14.03zm-30.93 172.69l-3.27 2.15-3.21 2.22-3.14 2.3-3.08 2.37-3 2.45-2.93 2.51-2.86 2.59-2.78 2.65-2.71 2.73-2.64 2.78-2.56 2.85-2.48 2.91-2.41 2.97-2.32 3.02-2.25 3.09-2.17 3.13-2.08 3.19-2 3.24-1.92 3.3-1.84 3.33-1.74 3.39-1.67 3.43-1.57 3.47-1.49 3.51-1.4 3.56-1.3 3.59-1.22 3.62-1.12 3.66-1.03 3.7-.94 3.72-.84 3.76-.75 3.78-.65 3.81-.55 3.83-.46 3.85-.35 3.88-.25 3.9-.16 3.91-.05 3.93.13 6.15.37 6.1.62 6.02.85 5.95 1.08 5.87 1.31 5.79 1.53 5.71 1.75 5.61 1.96 5.51 2.17 5.41 2.37 5.3 2.56 5.2 2.77 5.07 2.94 4.96 3.14 4.83 3.31 4.7 3.48 4.56 3.66 4.43 3.82 4.27 3.97 4.13 4.13 3.98 4.29 3.81 4.42 3.65 4.57 3.48 4.7 3.31 4.83 3.12 4.96 2.95 5.08 2.75 5.2 2.57 5.31 2.36 5.41 2.16 5.51 1.96 5.62 1.74 5.7 1.53 5.79 1.3 5.87 1.08 5.96.84 6.02.61 6.09.37 6.16.12 6.15-.13 6.1-.37 6.02-.61 5.95-.86 5.87-1.08 5.79-1.31 5.71-1.53 5.61-1.74 5.51-1.96 5.41-2.17 5.3-2.37 5.2-2.57 5.07-2.76 4.96-2.95 4.83-3.13 4.7-3.31 4.56-3.49 4.43-3.65 4.27-3.82 4.13-3.98 3.98-4.13 3.81-4.28 3.65-4.43 3.48-4.57 3.31-4.7 3.12-4.83 2.95-4.96 2.75-5.08 2.57-5.19 2.36-5.31 2.16-5.41 1.96-5.52 1.74-5.61 1.53-5.71 1.3-5.79 1.08-5.87.84-5.95.61-6.03.37-6.09.12-6.15-.06-3.93-.16-3.91-.26-3.89-.37-3.87-.46-3.85-.56-3.82-.66-3.8-.75-3.78-.85-3.75-.94-3.72-1.04-3.68-1.12-3.66-1.22-3.62-1.31-3.58-1.4-3.55-1.49-3.51-1.58-3.46-1.66-3.43-1.75-3.38-1.83-3.33-1.92-3.29-2-3.23-2.08-3.19-2.17-3.13-2.24-3.08-2.33-3.03-2.4-2.96-2.48-2.91-2.55-2.84-2.63-2.79-2.71-2.72-2.78-2.65-2.85-2.59-2.92-2.51-3-2.45-3.06-2.37-3.14-2.3-3.2-2.23-3.27-2.15-3.33-2.06H243.1l-3.35 2.06zm-16.29-44.72l-.44.03-.43.04-.42.06-.42.08-.42.09-.4.11-.4.12-.4.14-.38.16-.38.17-.37.18-.37.2-.35.21-.35.22-.33.24-.33.25-.31.26-.31.27-.29.28-.29.3-.27.31-.26.31-.25.33-.24.33-.22.35-.21.35-.2.36-.18.38-.17.37-.16.39-.14.4-.12.4-.11.4-.09.42-.08.42-.06.42-.04.43-.03.44-.01.44.01.44.03.43.04.43.06.43.08.42.09.41.11.41.12.4.14.39.16.39.17.38.18.37.2.36.21.36.22.34.24.34.25.32.26.32.27.3.29.3.29.28.31.28.31.26.33.25.33.23.35.23.35.21.37.19.37.19.38.17.38.15.4.14.4.12.4.11.42.1.42.07.42.06.43.05.44.02.44.01h192l.44-.01.43-.02.43-.05.43-.06.42-.07.41-.1.41-.11.4-.12.39-.14.39-.15.38-.17.37-.19.36-.19.36-.21.34-.23.34-.23.32-.25.32-.26.3-.28.3-.28.28-.3.28-.3.26-.32.25-.32.23-.34.23-.34.21-.36.19-.36.19-.37.17-.38.15-.39.14-.39.12-.4.11-.41.1-.41.07-.42.06-.43.05-.43.03-.43v-.88l-.03-.44-.05-.43-.06-.42-.07-.42-.1-.42-.11-.4-.12-.4-.14-.4-.15-.39-.17-.37-.19-.38-.19-.36-.21-.35-.23-.35-.23-.33-.25-.33-.26-.31-.28-.31-.28-.3-.3-.28-.3-.27-.32-.26-.32-.25-.34-.24-.34-.22-.36-.21-.36-.2-.37-.18-.38-.17-.39-.16-.39-.14-.4-.12-.41-.11-.41-.09-.42-.08-.43-.06-.43-.04-.43-.03-.44-.01h-192l-.44.01zm146.5-106.65l-.72.03-.72.05-.72.06-.71.08-.71.09-.71.1-.71.12-.7.14-.7.14-.69.16-.69.17-.69.19-.68.2-.68.21-.68.23-.67.24-.66.25-.66.27-.66.28-.64.29-.65.3-.63.32-.64.33-.62.34-.62.35-.61.37-.6.38-.6.39-.59.4-.58.42-.58.42-.57.44-.56.45-.55.47-.54.47-.53.48-.53.5-.51.51-1.1 1-1.13.96-1.15.9-1.18.85-1.21.8-1.22.75-1.25.69-1.27.65-1.29.59-1.31.54-1.32.49-1.33.44-1.35.38-1.36.34-1.37.28-1.37.23-1.38.18-1.39.13-1.39.08-1.39.03-1.39-.03-1.39-.08-1.38-.13-1.38-.18-1.38-.23-1.37-.28-1.36-.34-1.34-.38-1.34-.44-1.32-.49-1.3-.54-1.29-.59-1.27-.65-1.25-.69-1.23-.75-1.21-.8-1.18-.85-1.15-.9-1.13-.96-1.09-1-.52-.51-.52-.5-.54-.48-.54-.48-.55-.46-.56-.45-.56-.44-.58-.42-.58-.42-.59-.4-.6-.39-.6-.38-.61-.37-.62-.35-.63-.35-.63-.32-.63-.32-.65-.31-.64-.29-.66-.27-.66-.27-.66-.25-.67-.24-.68-.23-.67-.21-.69-.2-.68-.19-.7-.17-.69-.16-.7-.15-.7-.13-.71-.12-.71-.1-.71-.09-.71-.08-.72-.06-.72-.05-.72-.03-.72-.02-.72-.01h-.26l-.13.01h-.25l-.13.01h-.26l-.12.01-.13.01h-.13l-.13.01-.13.01-.12.01-.13.01-.13.01-.13.01-.12.01-.13.01-.13.01-.13.02-.12.01-.13.01-.13.02-.12.01-.13.02-.13.02-.12.02-.13.01-.13.02-.12.02-.13.02-.13.02-.12.02-.13.03-.13.02-.12.02-.13.02-.12.03-.13.02-1.04.24-1.02.27-1 .31-.98.34-.96.39-.93.42-.92.45-.89.49-.87.52-.84.55-.82.58-.79.62-.77.64-.74.67-.71.69-.68.73-.66.74-.62.77-.6.8-.56.81-.53.84-.5.85-.47.88-.44.89-.4.91-.36.93-.33.94-.3.95-.25.97-.22.98-.18.99-.15 1.01-.1 1.01-.06 1.02-.03 1.02.02 1.03.06 1.04.1 1.04.15 1.05.19 1.05 10.88 54.4h131.84l10.88-54.4.02-.13.03-.12.02-.13.02-.13.03-.12.02-.13.02-.13.02-.12.02-.13.02-.12.02-.13.02-.13.01-.12.02-.13.02-.13.01-.13.02-.12.01-.13.02-.13.01-.12.01-.13.01-.13.01-.13.02-.12.01-.13v-.13l.01-.13.01-.12.01-.13.01-.13v-.13l.01-.13v-.12l.01-.13v-.39l.01-.12v-.26l-.02-1.06-.07-1.06-.1-1.04-.15-1.03-.18-1.02-.23-1-.26-.98-.3-.97-.34-.96-.37-.93-.41-.92-.44-.9-.48-.88-.51-.86-.54-.83-.57-.82-.6-.79-.63-.76-.66-.74-.69-.72-.71-.69-.74-.66-.77-.63-.79-.6-.81-.57-.83-.55-.86-.51-.88-.47-.9-.45-.91-.41-.94-.37-.95-.34-.97-.31-.99-.26-1-.23-1.01-.19-1.03-.14-1.05-.11-1.05-.06-1.06-.03-.73.01-.72.02z" id="b"/><path d="M526.96 469.38l.82.05.82.06.81.08.81.1.81.12.81.13.8.14.79.16.8.18.78.19.79.21.78.23.77.24.77.25.76.27.76.29.75.3.75.32.73.33.74.34.72.36.72.38.71.39.7.4.7.42.69.43.68.45.67.46.66.47.65.49.65.5.63.52.63.53.61.54.61.56.59.57.59.58 1.13 1.21 1.08 1.24 1.02 1.28.96 1.3.9 1.34.84 1.36.79 1.38.72 1.41.67 1.43.61 1.45.55 1.47.5 1.48.43 1.5.38 1.51.32 1.52.26 1.53.2 1.53.14 1.55.09 1.54.03 1.55-.03 1.54-.09 1.55-.15 1.54-.21 1.54-.26 1.52-.32 1.52-.38 1.51-.44 1.5-.5 1.48-.55 1.47-.62 1.45-.67 1.42-.73 1.41-.79 1.38-.84 1.36-.91 1.34-.96 1.3-1.02 1.27-1.08 1.24-1.14 1.21-58.24 58.24-1.05 1.04-1.08 1.02-1.09 1-1.11.97-1.13.95-1.15.92-1.16.9-1.18.88-1.19.85-1.21.82-1.23.81-1.23.77-1.26.75-1.26.73-1.28.7-1.3.68-1.3.65-1.32.62-1.33.6-1.34.57-1.35.54-1.36.52-1.38.49-1.38.47-1.39.43-1.4.41-1.41.39-1.42.35-1.42.33-1.43.3-1.44.27-1.45.24-1.45.22-1.46.18-1.46.16-1.47.13-1.47.1-1.48.07-1.48.04-1.49.01H202.56v11.1l-.03.44-.05.43-.06.42-.07.42-.1.42-.11.4-.12.4-.14.4-.15.39-.17.37-.19.38-.19.36-.21.35-.23.35-.23.33-.25.33-.26.31-.28.31-.28.3-.3.28-.3.27-.32.26-.32.25-.34.24-.34.22-.36.21-.36.2-.37.18-.38.17-.39.16-.39.14-.4.12-.41.11-.41.09-.42.08-.43.06-.43.04-.43.03-.44.01H85.23l-.44-.01-.43-.03-.43-.04-.43-.06-.42-.08-.41-.09-.41-.11-.4-.12-.39-.14-.39-.16-.38-.17-.37-.18-.36-.2-.36-.21-.34-.22-.34-.24-.32-.25-.32-.26-.31-.27-.29-.28-.29-.3-.27-.31-.26-.31-.25-.33-.23-.33-.23-.35-.21-.35-.2-.36-.18-.38-.17-.37-.15-.39-.14-.4-.13-.4-.11-.4-.09-.42-.08-.42-.06-.42-.04-.43-.03-.44-.01-.44V512l.01-.44.03-.43.04-.44.06-.42.08-.42.09-.41.11-.41.13-.4.14-.4.15-.38.17-.38.18-.37.2-.36.21-.36.23-.34.23-.34.25-.33.26-.31.27-.31.29-.29.29-.29.31-.27.32-.26.32-.25.34-.23.34-.23.36-.21.36-.2.37-.18.38-.17.39-.15.39-.14.4-.13.41-.11.41-.09.42-.08.43-.06.43-.04.43-.03.44-.01H191.9l.44.01.43.03.43.04.43.06.42.08.41.09.41.11.4.13.39.14.39.15.38.17.37.18.36.2.36.21.34.23.34.23.32.25.32.26.3.27.3.29.28.29.28.31.26.31.25.33.23.34.23.34.21.36.19.36.19.37.17.38.15.38.14.4.12.4.11.41.1.41.07.42.06.42.05.44.03.43v11.11h49.79l39.81-29.87.14-.1.14-.1.15-.1.14-.1.14-.09.15-.09.15-.09.15-.08.15-.09.15-.08.15-.08.15-.07.16-.07.16-.08.15-.06.16-.07.16-.06.16-.06.16-.06.16-.06.16-.05.17-.05.16-.05.17-.04.16-.04.17-.04.17-.04.16-.03.17-.04.17-.02.17-.03.17-.02.17-.03.17-.01.17-.02.17-.01.18-.01.17-.01h53.68l1.76.03 1.74.11 1.72.17 1.7.25 1.68.3 1.65.38 1.63.43 1.6.5 1.58.56 1.55.62 1.51.68 1.49.73 1.45.79 1.41.84 1.38.89 1.35.95 1.3.99 1.26 1.05 1.23 1.09 1.18 1.13 1.13 1.18 1.09 1.23 1.05 1.26.99 1.31.95 1.34.89 1.38.84 1.41.79 1.46.73 1.48.68 1.52.62 1.54.56 1.58.5 1.6.43 1.63.38 1.65.31 1.68.24 1.7.17 1.72.11 1.74.03 1.76h48.91l.74-.73.8-.8.86-.87.93-.93.99-.98 1.03-1.04 1.1-1.09 1.14-1.14 1.18-1.19 1.23-1.23 1.27-1.27 1.3-1.3 1.34-1.34 1.37-1.37 1.4-1.4 1.42-1.42 1.44-1.45 1.46-1.46 1.48-1.48 1.49-1.49 1.5-1.5 1.51-1.51 1.5-1.52 1.51-1.51 1.51-1.51 1.5-1.5 1.5-1.5 1.48-1.49 1.46-1.47 1.45-1.45 1.43-1.43 1.41-1.41 1.38-1.39 1.35-1.35 1.31-1.32 1.28-1.29 1.24-1.25 1.2-1.2 1.16-1.16 1.11-1.12.58-.58.6-.56.6-.56.62-.54.62-.53.63-.51.65-.5.65-.49.66-.47.67-.46.68-.45.69-.43.69-.42.7-.4.71-.39.72-.37.72-.36.73-.35.74-.33.75-.32.75-.3.75-.29.76-.27.77-.26.77-.24.78-.23.78-.21.79-.2.79-.18.79-.16.8-.15.8-.14.81-.11.81-.11.81-.08.81-.07.82-.05.82-.04.82-.02.82-.01h.83l.82.02.82.03zM95.9 618.67h85.33v-96H95.9v96zm427.85-128l-.41.02-.4.03-.41.04-.4.04-.4.05-.4.06-.4.07-.39.08-.4.08-.39.09-.39.1-.39.11-.38.11-.39.12-.38.13-.37.14-.38.15-.37.15-.37.16-.36.17-.36.17-.36.18-.36.19-.35.2-.35.2-.34.21-.34.22-.33.22-.34.23-.32.24-.32.25-.32.25-.32.26-.3.26-.31.28-.3.28-.29.28-1.35 1.36-1.42 1.43-1.48 1.49-1.54 1.54-1.59 1.61-1.65 1.64-1.68 1.69-1.72 1.73-1.76 1.76-1.77 1.79-1.81 1.8-1.81 1.82-1.83 1.83-1.83 1.84-1.83 1.83-1.82 1.83-1.82 1.82-1.79 1.8-1.78 1.77-1.74 1.75-1.72 1.72-1.67 1.68-1.64 1.63-1.58 1.59-1.53 1.53-1.47 1.47-1.4 1.41-1.34 1.33-1.25 1.26-1.18 1.18-1.09 1.09-1 1-.9.9-.8.8-.69.69-.58.58-.45.45-.34.34-.2.2-.07.07-.15.15-.16.14-.15.15-.16.13-.16.14-.17.13-.16.13-.17.12-.17.13-.18.11-.17.12-.18.11-.18.11-.18.1-.18.1-.19.1-.18.09-.19.09-.19.08-.19.08-.19.08-.2.08-.19.07-.2.06-.2.07-.2.05-.2.06-.2.05-.21.05-.2.04-.21.04-.2.03-.21.03-.21.03-.21.02-.21.02-.21.02-.21.01h-.21l-.21.01h-59.06l-.59.98-.6.96-.64.94-.65.92-.67.9-.7.88-.72.86-.74.84-.76.82-.78.8-.8.77-.81.75-.84.73-.85.71-.87.69-.89.66-.9.63-.92.62-.94.59-.95.56-.96.54-.98.52-.99.49-1 .46-1.02.44-1.03.41-1.03.39-1.05.35-1.06.34-1.07.3-1.08.28-1.09.25-1.1.22-1.1.19-1.11.16-1.12.14-1.13.1-1.13.08-1.13.04-1.14.02h-42.67v-21.33h42.67l.88-.02.87-.05.86-.09.85-.12.84-.16.82-.18.82-.22.8-.25.79-.28.77-.31.76-.34.74-.36.73-.4.71-.42.69-.45.67-.47.65-.5.63-.52.61-.54.59-.57.57-.59.55-.61.52-.64.49-.65.48-.67.44-.69.43-.71.39-.72.37-.74.33-.76.31-.78.28-.78.25-.81.22-.81.19-.83.15-.84.12-.85.09-.86.05-.87.02-.88-.02-.88-.05-.87-.09-.86-.12-.85-.15-.84-.19-.82-.22-.82-.25-.8-.28-.79-.31-.77-.33-.76-.37-.74-.39-.73-.43-.7-.44-.69-.48-.68-.49-.65-.52-.63-.55-.61-.57-.59-.59-.57-.61-.54-.63-.53-.65-.49-.67-.48-.69-.44-.71-.42-.73-.4-.74-.37-.76-.33-.77-.31-.79-.28-.8-.25-.82-.22-.82-.19-.84-.15-.85-.12-.86-.09-.87-.05-.88-.02h-49.78l-39.82 29.87-.14.1-.14.1-.14.1-.15.09-.14.1-.15.09-.15.08-.15.09-.15.08-.15.08-.15.08-.15.08-.16.07-.15.07-.16.07-.16.07-.16.06-.16.06-.16.06-.16.05-.16.06-.17.05-.16.04-.16.05-.17.04-.17.04-.16.04-.17.03-.17.03-.17.03-.17.03-.17.02-.17.02-.17.02-.17.02-.17.01-.17.01h-.18l-.17.01h-53.51v53.33h241.22l1.06-.03 1.06-.05 1.05-.07 1.05-.1 1.04-.11 1.04-.13 1.04-.15 1.03-.18 1.03-.19 1.03-.22 1.01-.23 1.02-.25 1-.28 1-.29 1-.31.98-.33.98-.35.98-.37.96-.39.96-.41.95-.43.94-.44.93-.47.93-.48.91-.5.91-.52.89-.54.89-.55.87-.57.86-.59.86-.61.84-.63.83-.64.82-.66.8-.68.8-.69.78-.71.77-.73.75-.74 58.24-58.24.25-.26.25-.26.24-.27.24-.26.23-.28.22-.28.22-.28.22-.28.2-.29.2-.29.2-.3.19-.3.18-.3.18-.31.17-.31.17-.31.16-.32.15-.32.15-.32.14-.32.14-.33.12-.33.13-.33.11-.33.11-.34.11-.34.09-.34.09-.34.09-.35.07-.35.07-.34.07-.35.05-.36.05-.35.05-.35.03-.36.03-.36.02-.35.02-.36.01-.36.01-.4.01-.4-.01-.4-.01-.39-.02-.4-.03-.39-.04-.4-.04-.39-.05-.39-.06-.39-.07-.38-.08-.39-.08-.38-.09-.39-.1-.37-.11-.38-.11-.38-.12-.37-.13-.37-.14-.36-.14-.37-.15-.36-.16-.36-.16-.35-.18-.35-.18-.35-.18-.35-.2-.34-.2-.34-.21-.33-.21-.33-.22-.32-.23-.33-.24-.31-.24-.31-.25-.31-.26-.31-.26-.29-.27-.3-.27-.29-.27-.27-.28-.26-.28-.26-.29-.26-.29-.24-.29-.25-.3-.23-.31-.23-.3-.22-.32-.22-.31-.21-.32-.2-.32-.2-.33-.18-.33-.19-.33-.17-.34-.17-.34-.17-.34-.15-.35-.15-.35-.14-.35-.14-.36-.13-.35-.12-.36-.11-.37-.11-.36-.1-.37-.09-.37-.09-.37-.07-.37-.08-.37-.06-.38-.05-.38-.05-.37-.04-.38-.04-.39-.02-.38-.02-.38-.01h-.39l-.4-.01h-.41l-.41.01z" id="c"/><path d="M159.9 576v21.33h-21.34V576h21.34z" id="d"/></defs><use xlink:href="#a" fill="#ff5252"/><use xlink:href="#a" fill-opacity="0" stroke="#000" stroke-opacity="0"/><use xlink:href="#b" fill="#ff5252"/><use xlink:href="#b" fill-opacity="0" stroke="#000" stroke-opacity="0"/><use xlink:href="#c" fill="#ff5252"/><use xlink:href="#c" fill-opacity="0" stroke="#000" stroke-opacity="0"/><use xlink:href="#d" fill="#ff5252"/><use xlink:href="#d" fill-opacity="0" stroke="#000" stroke-opacity="0"/></svg>