<svg xmlns="http://www.w3.org/2000/svg" xmlns:xlink="http://www.w3.org/1999/xlink" viewBox="0 0 640 640" width="640" height="640"><defs><path d="M412.09 14.64c-5.31-5.32-11.78-7.98-19.38-7.98-7.61 0-14.08 2.66-19.4 7.98-12.47 12.49-74.82 74.94-187.06 187.35-50.31-50.47-78.25-78.51-83.84-84.12-5.33-5.33-11.79-7.98-19.39-7.98-7.61 0-14.07 2.65-19.39 7.98l-38.79 38.78c-5.32 5.32-7.98 11.79-7.98 19.39 0 7.6 2.66 14.07 7.98 19.4 6.89 6.88 41.29 41.29 103.23 103.22l38.78 38.78c5.33 5.33 11.79 7.99 19.4 7.99 7.6 0 14.06-2.67 19.39-7.99l38.78-38.78C368.29 174.79 437.11 105.97 450.88 92.21c5.31-5.33 7.98-11.79 7.98-19.4 0-7.6-2.67-14.06-7.98-19.39-7.76-7.75-34.91-34.9-38.79-38.78z" id="a"/></defs><use xlink:href="#a" fill="#ff4b4b"/><use xlink:href="#a" fill-opacity="0" stroke="#000" stroke-opacity="0"/></svg>