<svg xmlns="http://www.w3.org/2000/svg" xmlns:xlink="http://www.w3.org/1999/xlink" viewBox="0 0 640 640" width="640" height="640"><defs><path d="M523.54.04l.43.04.43.06.42.08.41.09.41.11.4.12.39.14.39.16.38.17.37.18.36.2.36.21.34.22.34.24.32.25.32.26.3.27.3.28.28.3.28.31.26.31.25.33.23.33.23.35.21.35.19.36.19.38.17.37.15.39.14.4.12.4.11.4.1.42.07.42.06.42.05.43.02.44.01.44V54.4l1.85.41 1.82.48 1.79.53 1.77.6 1.73.65 1.7.71 1.67.77 1.64.81 1.6.87 1.56.93 1.53.97 1.5 1.02 1.45 1.07 1.42 1.12 1.37 1.16 1.33 1.21 1.29 1.25 1.25 1.29 1.2 1.33 1.16 1.37 1.11 1.41 1.06 1.44 1.02 1.48.96 1.51.92 1.55.86 1.58.81 1.61.76 1.64.7 1.67.65 1.69.59 1.72.53 1.74.48 1.77.41 1.79.36 1.81.29 1.82.23 1.85.16 1.86.1 1.88.04 1.9-.04 1.89-.1 1.88-.16 1.86-.23 1.85-.29 1.83-.36 1.81-.41 1.78-.48 1.77-.53 1.74-.59 1.72-.65 1.7-.7 1.66-.76 1.64-.81 1.61-.86 1.58-.92 1.55-.96 1.51-1.02 1.48-1.06 1.45-1.11 1.41-1.16 1.37-1.2 1.33-1.25 1.29-1.29 1.25-1.33 1.2-1.37 1.17-1.42 1.11-1.45 1.07-1.5 1.02-1.53.98-1.56.92-1.6.87-1.64.82-1.67.76-1.7.71-1.73.65-1.77.6-1.79.53-1.82.48-1.85.41v44.13l-.01.06v.13l-.01.06v.07l-.01.06v.07l-.01.06v.07l-.01.06v.07l-.01.06-.01.06-.01.07v.06l-.01.07-.01.06-.01.07-.01.06-.01.06-.01.07-.01.06-.01.06-.01.07-.02.06-.01.07-.01.06-.01.06-.02.07-.01.06-.02.06-.01.07-.02.06-.01.06-.12.43-.13.41-.14.41-.16.4-.18.39-.19.37-.2.37-.22.36-.23.35-.25.34-.25.33-.27.31-.28.31-.29.29-.3.28-.31.27-.32.26-.33.24-.33.23-.35.22-.36.2-.36.19-.37.18-.37.16-.39.15-.39.14-.39.12-.4.1-.4.09-.41.07-.41.06-.42.04-.42.02-.42.01-.43-.01-.42-.03-.43-.04-.43-.06-.42-.08-.43-.1-116.9-29.22 14.37 43.17.23.72.22.72.2.72.19.72.17.73.16.73.15.73.13.73.12.74.11.73.09.74.08.74.06.74.05.73.03.74.02.74.01.74-.01.74-.02.74-.03.74-.05.74-.06.74-.08.73-.09.74-.1.73-.12.73-.13.73-.15.73-.15.72-.18.72-.18.72-.2.72-.22.71-.23.71-.24.71-.25.7-.27.7-.28.69-.3.69-.31.69-.71 1.45-.77 1.42-.81 1.37-.86 1.33-.91 1.28-.95 1.24-1 1.19-1.04 1.15-1.08 1.1-1.12 1.06-1.15 1-1.19.96-1.22.91-1.26.85-1.28.81-1.31.76-1.34.7-1.36.66-1.39.6-1.41.54-1.42.5-1.45.43-1.46.39-1.48.32-1.49.27-1.5.21-1.51.16-1.52.1-1.53.03-1.53-.02-1.53-.08-1.53-.15-1.54-.2-1.53-.27-1.53-.33-1.52-.39-1.52-.46-1.51-.52-1.49-.58-1.49-.66-.05-.02-.04-.02-.05-.03-.04-.02-.05-.02-.05-.03-.04-.02-.05-.03-.04-.03-.04-.02-.05-.03-.04-.03-.05-.02-.04-.03-.05-.03-.04-.03-.04-.02-.05-.03-.04-.03-.04-.03-.05-.03-.08-.05-.05-.03-.04-.03-.04-.03-.05-.03-.04-.02-.04-.03-.05-.03-.04-.03-.05-.02-.04-.03-.05-.03-.04-.02-.05-.03-.04-.03-.05-.02-.04-.03-.05-.02-.29 1.51-.35 1.5-.4 1.47-.44 1.45-.5 1.43-.54 1.4-.59 1.38-.64 1.34-.67 1.33-.73 1.29-.76 1.26-.81 1.23-.85 1.21-.88 1.17-.93 1.13-.96 1.11-1 1.06-1.03 1.04-1.07.99-1.1.96-1.14.93-1.16.88-1.19.84-1.23.8-1.25.76-1.28.72-1.3.68-1.33.63-1.35.58-1.38.54-1.39.49-1.42.45-1.44.39-1.45.35-1.48.3-1.49.24-1.5.2-1.52.14-1.53.08-1.55.03H149.33V576H160l1.32.03 1.31.07 1.29.14 1.27.18 1.26.23 1.24.28 1.22.33 1.21.37 1.18.42 1.16.46 1.13.51 1.12.55 1.09.59 1.06.63 1.03.67 1.01.71.98.75.95.78.91.82.89.85.85.89.82.91.78.95.75.98.71 1.01.67 1.03.63 1.06.59 1.09.55 1.12.51 1.13.46 1.16.42 1.18.37 1.21.33 1.22.28 1.24.23 1.26.18 1.27.13 1.29.08 1.31.03 1.32-.03 1.32-.08 1.3-.13 1.29-.18 1.28-.23 1.26-.28 1.24-.33 1.22-.37 1.2-.42 1.18-.46 1.16-.51 1.14-.55 1.11-.59 1.09-.63 1.07-.67 1.03-.71 1.01-.75.98-.78.94-.82.92-.85.89-.89.85-.91.82-.95.78-.98.74-1.01.71-1.03.67-1.06.64-1.09.59-1.12.55-1.13.5-1.16.47-1.18.42-1.21.37-1.22.33-1.24.28-1.26.23-1.27.18-1.29.13-1.31.08-1.32.03H10.67l-.44-.01-.44-.03-.43-.04-.42-.06-.42-.08-.42-.09-.4-.11-.4-.13-.4-.13-.38-.16-.38-.17-.37-.18-.37-.2-.35-.21-.35-.22-.33-.24-.33-.25-.31-.26-.31-.27-.29-.29-.29-.29-.27-.31-.26-.31-.25-.33-.24-.33-.22-.35-.21-.35-.2-.37-.18-.37-.17-.38-.16-.38-.13-.4-.13-.4-.11-.4-.09-.42-.08-.42-.06-.42-.04-.43-.03-.44-.01-.44V234.67l.05-2.2.13-2.18.22-2.15.31-2.12.39-2.1.46-2.06.55-2.04.63-2 .7-1.97.77-1.93.85-1.9.91-1.85.99-1.81 1.05-1.77 1.12-1.73 1.18-1.68 1.24-1.62 1.31-1.58 1.36-1.53 1.42-1.48 1.48-1.42 1.52-1.36 1.58-1.3 1.63-1.25 1.68-1.18 1.73-1.12 1.77-1.05 1.81-.99 1.85-.91 1.9-.85 1.93-.77 1.97-.7 2-.63 2.03-.54 2.07-.47 2.1-.39 2.12-.3 2.15-.23 2.18-.13 2.19-.05h256l.27.01h.27l.27.01.27.01.27.01.26.01.27.02.27.01.27.02.26.02.27.02.27.03.27.02.26.03.27.02.26.03.27.04.27.03.26.03.27.04.26.04.27.04.26.04.27.04.26.05.27.05.26.04.26.05.27.06.26.05.26.05.26.06.26.06.27.06.26.06.26.07.26.06.26.07.26.07.26.07-4.72-14.13-2.1-.57-2.08-.64-2.04-.7-2-.77-1.97-.83-1.93-.9-1.9-.95-1.85-1.01-1.82-1.07-1.77-1.13-1.73-1.18-1.69-1.23-1.64-1.29-1.6-1.34-1.55-1.39-1.51-1.43-1.45-1.48-1.41-1.53-1.36-1.57-1.3-1.61-1.25-1.66-1.2-1.69-1.14-1.74-1.09-1.77-1.02-1.8-.98-1.85-.91-1.87-.85-1.91-.79-1.93-.73-1.97-.66-1.99-.6-2.02-.53-2.05-.47-2.06-.4-2.09-.33-2.12-.27-2.13-.19-2.15-.12-2.16-.04-2.18.04-2.64.15-2.61.25-2.59.35-2.55.45-2.52.55-2.48.65-2.45.74-2.41.82-2.36.92-2.33 1.01-2.28 1.09-2.23 1.17-2.18 1.25-2.13 1.34-2.07 1.41-2.02 1.48-1.97 1.56-1.9 1.63-1.84 1.69-1.78 1.77-1.71 1.82-1.64 1.89-1.58 1.95-1.5 2.01-1.42L297 52.4l2.12-1.27 2.17-1.2 2.22-1.1 2.27-1.03 2.31-.94 2.36-.85 2.4-.75 2.45-.67 2.47-.57 2.52-.47 2.55-.38 2.58-.27 2.61-.17 2.64-.06h20.03L520.07.32l.07-.02.06-.01.07-.02.06-.01.06-.01.07-.02.06-.01.07-.01.06-.02.06-.01.07-.01.06-.01.07-.01.06-.01.07-.01.06-.01.07-.01.06-.01.07-.01.06-.01.07-.01h.06l.07-.01.06-.01h.07l.06-.01.07-.01h.06l.07-.01h.13l.06-.01h.2l.07-.01h.26l.44.01.43.03zM52.02 202.69l-1.31.08-1.29.13-1.28.19-1.25.23-1.25.28-1.22.32-1.2.38-1.18.42-1.16.46-1.14.51-1.11.55-1.09.59-1.06.63-1.04.67-1 .71-.98.75-.95.78-.92.82-.88.85-.85.88-.82.92-.79.95-.74.98-.71 1-.67 1.04-.63 1.06-.59 1.09-.55 1.11-.51 1.14-.46 1.16-.42 1.18-.38 1.2-.33 1.23-.28 1.24-.23 1.26-.18 1.27-.13 1.29-.08 1.31-.03 1.32v384H64V437.33l.01-.44.03-.43.04-.43.06-.43.08-.42.09-.41.11-.41.13-.4.13-.39.16-.39.17-.38.18-.37.2-.36.21-.36.22-.34.24-.34.25-.32.26-.32.27-.3.29-.3.29-.28.31-.28.31-.26.33-.25.33-.23.35-.23.35-.21.37-.19.37-.19.38-.17.38-.15.4-.14.4-.13.4-.1.42-.1.42-.07.42-.07.43-.04.44-.03h.88l.43.03.43.04.43.07.42.07.41.1.41.1.4.13.39.14.39.15.38.17.37.19.36.19.36.21.34.23.34.23.32.25.32.26.31.28.29.28.28.3.28.3.26.32.25.32.23.34.23.34.21.36.19.36.19.37.17.38.15.39.14.39.13.4.1.41.1.41.07.42.07.43.04.43.03.43v181.78H160l.44-.01.44-.03.43-.04.42-.06.42-.08.41-.09.41-.11.4-.13.4-.14.38-.15.38-.17.37-.19.37-.19.35-.21.34-.23.34-.23.33-.25.31-.26.31-.27.29-.29.29-.29.27-.31.26-.32.25-.32.24-.34.22-.34.21-.36.2-.36.18-.37.17-.38.15-.39.14-.39.13-.4.11-.41.09-.41.08-.42.06-.43.04-.43.03-.43.01-.44-.01-.44-.03-.44-.04-.43-.06-.42-.08-.42-.09-.41-.11-.41-.13-.4-.14-.4-.15-.38-.17-.38-.18-.37-.2-.37-.21-.35-.22-.34-.24-.34-.25-.33-.26-.31-.27-.31-.29-.29-.29-.29-.31-.27-.31-.26-.33-.25-.34-.24-.34-.22-.35-.21-.37-.2-.37-.18-.38-.17-.38-.15-.4-.14-.4-.13-.41-.11-.41-.09-.42-.08-.42-.06-.43-.04-.44-.03-.44-.01h-21.33l-.44-.01-.44-.02-.43-.05-.42-.06-.42-.07-.42-.1-.4-.11-.4-.12-.4-.14-.38-.16-.38-.17-.37-.18-.37-.2-.35-.21-.35-.22-.33-.24-.33-.24-.31-.27-.31-.27-.29-.28-.29-.3-.27-.3-.26-.32-.25-.33-.24-.33-.22-.35-.21-.35-.2-.36-.18-.37-.17-.38-.16-.39-.14-.39-.12-.4-.11-.41-.09-.41-.08-.42-.06-.43-.04-.43-.03-.43-.01-.44V256l.01-.29.02-.3.03-.29.05-.29.06-.29.07-.28.09-.29.1-.28.11-.28.13-.29.14-.28.15-.27.17-.28.18-.28.19-.27.21-.27.22-.28.23-.27.25-.27.26-.26.27-.27.29-.26.3-.27.31-.26.33-.26.34-.26.35-.26.37-.25.38-.26.39-.25.41-.25.42-.25.43-.25.45-.25.46-.25.47-.24.49-.24.5-.25.51-.24.53-.24h170.66l.88-.01.87-.06.86-.09.85-.12.84-.15.83-.19.82-.22.8-.24.78-.28.78-.31.76-.34.74-.37.72-.39.71-.42.69-.45.67-.47.66-.5.63-.52.61-.55.59-.57.57-.59.54-.61.52-.63.5-.65.47-.67.45-.69.42-.71.4-.73.36-.74.34-.76.31-.77.28-.79.25-.8.22-.81.18-.83.16-.84.12-.85.09-.86.05-.87.02-.88-.02-.88-.05-.87-.09-.86-.12-.85-.16-.84-.18-.83-.22-.81-.25-.8-.28-.79-.31-.77-.34-.76-.36-.74-.4-.73-.42-.71-.45-.69-.47-.67-.5-.65-.52-.63-.54-.62-.57-.59-.59-.56-.61-.55-.63-.52-.66-.5-.67-.47-.69-.45-.71-.42-.72-.39-.74-.37-.76-.34-.78-.31-.78-.28-.8-.25-.82-.21-.83-.19-.84-.15-.85-.13-.86-.08-.87-.06-.88-.01h-256l-1.31.02zm284.78 53.76l-.61.51-.62.5-.62.49-.63.47-.64.47-.65.44-.66.44-.66.43-.67.41-.68.4-.68.38-.69.38-.7.35-.7.35-.71.34-.71.32-.72.3-.73.3-.73.28-.74.26-.74.26-.75.23-.75.23-.75.21-.76.2-.77.18-.76.17-.77.16-.78.14-.78.13-.78.11-.78.1-.79.08-.78.07-.79.05-.8.04-.79.03-.8.01h-160V288h171.29l.3-.01.31-.02.31-.01.3-.03.31-.02.3-.03.31-.04.3-.04.3-.04.3-.05.3-.05.31-.06.29-.06.3-.07.3-.07.3-.07.29-.08.29-.08.3-.09.29-.09.29-.09.29-.1.28-.11.29-.11.28-.11.29-.11.28-.12.28-.13.27-.13.28-.13.27-.13.28-.15.27-.14.27-.15.26-.15.27-.16.26-.16.26-.16.72-.49.7-.51.68-.53.64-.56.62-.58.59-.6.56-.62.54-.64.51-.65.48-.67.45-.69.42-.71.4-.71.36-.74.34-.74.31-.75.28-.77.24-.77.22-.79.19-.79.16-.8.13-.8.09-.81.07-.81.03-.81.01-.82-.03-.81-.06-.82-.09-.82-.13-.81-.15-.81-.19-.81-.22-.81-.26-.79-.28-.79-.32-.79-.36-.77-.39-.77-.42-.75-.46-.75-.59.54-.59.52zm26.37-11.36l.01.02.01.03v.03l.01.02.01.03.01.02.01.03.01.03.01.02.01.03.01.02v.03l.01.02.01.03.01.03.01.02.01.03.01.02.01.03.01.02.01.03.01.03.01.02.01.03.01.02.01.03.01.02.01.03v.03l.01.02.01.03.01.02.01.03.01.02.01.03.01.02.01.03.01.02.01.03.01.03.29.68.32.66.34.65.36.62.38.61.41.59.43.57.44.55.47.53.48.51.51.48.52.47.53.44.55.42.57.4.58.38.6.35.6.33.62.31.63.28.64.26.65.24.66.21.66.18.68.16.68.13.68.11.7.08.69.06.7.02h.7l.71-.03.7-.05.71-.09.7-.11.71-.15.7-.17.7-.2.7-.23.69-.26.66-.28.64-.3.62-.32.6-.35.59-.36.57-.39.55-.4.54-.43.51-.44.5-.46.48-.47.45-.5.44-.51.42-.52.4-.54.38-.55.35-.56.34-.58.31-.58.29-.6.27-.61.25-.62.22-.63.2-.63.18-.65.15-.65.13-.66.11-.66.08-.67.06-.67.03-.67v-.68l-.02-.68-.05-.69-.07-.68-.1-.69-.13-.68-.15-.68-.19-.68-.21-.68-18.68-56.06-27.95-6.98h-12.34l24.81 74.42zm-.5-93.42L512 189V24.33L362.67 61.66v90.01zm-33.76-87.63l-1.74.1-1.72.18-1.7.24-1.68.31-1.66.37-1.63.44-1.6.5-1.57.55-1.55.62-1.52.68-1.48.73-1.45.79-1.42.84-1.38.9-1.34.94-1.31 1-1.26 1.04-1.22 1.09-1.18 1.14-1.14 1.18-1.09 1.22-1.04 1.26-1 1.31-.94 1.34-.9 1.38-.84 1.42-.79 1.45-.73 1.48-.68 1.52-.61 1.55-.56 1.57-.5 1.6-.44 1.63-.37 1.66-.31 1.68-.24 1.7-.18 1.72-.1 1.74-.04 1.76.04 1.76.1 1.74.18 1.72.24 1.7.31 1.68.37 1.65.44 1.63.5 1.6.56 1.58.61 1.54.68 1.52.73 1.48.79 1.46.84 1.41.9 1.38.94 1.34 1 1.31 1.04 1.26 1.09 1.23 1.14 1.18 1.18 1.13 1.22 1.09 1.26 1.05 1.31.99 1.34.95 1.38.89 1.42.84 1.45.79 1.48.73 1.52.68 1.55.62 1.57.56 1.6.5 1.63.43 1.66.38 1.68.3 1.7.25 1.72.17 1.74.11 1.76.03h10.66V64h-10.66l-1.76.04zm205.43 72.43l.99-.41.97-.44.96-.46.93-.5.92-.53.89-.56.88-.58.86-.61.83-.64.81-.67.79-.69.77-.72.74-.74.72-.77.69-.79.66-.81.64-.83.62-.86.58-.87.56-.9.53-.92.49-.93.47-.96.44-.97.41-.99.37-1 .59-1.86.48-1.87.36-1.87.24-1.87.14-1.87.02-1.86-.09-1.85-.19-1.83-.29-1.81-.4-1.78-.5-1.76-.6-1.72-.69-1.68-.78-1.65-.88-1.59-.97-1.55-1.05-1.48-1.14-1.43-1.22-1.37-1.31-1.3-1.38-1.23-1.47-1.15-1.53-1.06-1.61-.99-1.69-.89-1.75-.81-1.82-.7v60.35l1.01-.37z" id="a"/><path d="M608 96c-5.89 0-10.67 4.78-10.67 10.67s4.78 10.66 10.67 10.66h21.33c5.89 0 10.67-4.77 10.67-10.66 0-5.89-4.78-10.67-10.67-10.67H608z" id="b"/><path d="M590.81 23.44c-.09.09-.18.17-.26.26-1.51 1.51-13.57 13.58-15.08 15.08-4.24 4.1-4.36 10.85-.27 15.09 4.1 4.23 10.85 4.35 15.09.26l.26-.26 15.08-15.09c4.24-4.09 4.36-10.84.26-15.08-4.09-4.24-10.84-4.35-15.08-.26z" id="c"/><path d="M590.55 159.47c-4.09-4.24-10.85-4.36-15.08-.26-4.24 4.09-4.36 10.84-.26 15.08.08.09.17.17.26.26l15.08 15.08c4.24 4.09 10.99 3.98 15.08-.26 3.99-4.13 3.99-10.69 0-14.82-3.01-3.02-13.57-13.58-15.08-15.08z" id="d"/><path d="M160.88.04l.43.04.42.06.42.08.41.09.41.11.4.12.4.14.38.16.38.17.37.18.37.2.35.21.34.22.34.24.33.25.31.26.31.27.29.28.29.3.27.31.26.31.25.33.24.33.22.35.21.35.2.36.18.38.17.37.15.39.14.4.13.4.11.4.09.42.08.42.06.42.04.43.03.44.01.44v74.67l-.05 2.8-.14 2.78-.22 2.76-.31 2.74-.4 2.72-.49 2.7-.57 2.66-.65 2.64-.74 2.61-.81 2.58-.9 2.55-.97 2.51-1.05 2.47-1.12 2.44-1.2 2.39-1.27 2.36-1.35 2.31-1.42 2.27-1.48 2.22-1.55 2.18-1.62 2.12-1.69 2.07-1.75 2.02-1.82 1.97-1.87 1.91-1.94 1.85-2 1.79-2.06 1.73-2.11 1.67-2.17 1.6-2.22 1.54-2.28 1.47-2.33 1.4-2.38 1.33-2.44 1.26-2.48 1.18-2.53 1.1-2.57 1.03-2.62.95-2.66.87-3.39.96-3.39.83-3.39.67-3.39.54-3.39.4-3.38.26-3.37.12-3.36-.01-3.34-.14-3.32-.27-3.3-.4-3.26-.53-3.24-.65-3.2-.78-3.17-.9-3.12-1.01-3.08-1.14-3.03-1.25-2.98-1.36-2.92-1.48-2.87-1.59-2.8-1.69-2.74-1.81-2.67-1.9-2.6-2.01-2.52-2.12-2.44-2.21-2.36-2.31-2.28-2.4-2.18-2.5-2.09-2.6-2-2.68-1.9-2.77-1.79-2.86-1.69-2.94-1.57-3.03-1.47-3.1-1.34-3.19-1.23-3.27-1.1-3.34-.65-.65.38-.38-.17-.59-.17-.6-.17-.59-.16-.6-.15-.6-.15-.6-.15-.6-.14-.6-.14-.6-.14-.6-.13-.6-.12-.61-.12-.6-.12-.61-.11-.6-.11-.61-.1-.61-.1-.61-.1-.61-.09-.61-.08-.61-.08-.61-.08-.61-.07-.61-.07-.61-.07-.62-.06-.61-.05-.62-.05-.61-.05-.61-.04-.62-.03-.62-.04-.61-.03-.62-.02-.62-.02-.61-.01-.62-.01-.62-.01-.62v-.61l.08-3.52.21-3.47.36-3.44.49-3.39.62-3.35.75-3.3.88-3.26 1-3.2 1.12-3.14 1.24-3.08 1.36-3.03 1.46-2.96 1.58-2.89 1.69-2.83 1.79-2.75 1.89-2.68 1.99-2.6 2.09-2.52 2.18-2.44 2.27-2.36 2.36-2.26 2.45-2.17 2.52-2.08 2.61-1.98 2.69-1.89 2.76-1.78 2.83-1.68 2.9-1.56 2.96-1.46 3.03-1.35 3.09-1.23L58.4 4.3l3.2-.99 3.26-.87 3.3-.74 3.35-.61 3.4-.48 3.44-.34 3.47-.2L85.33 0H160l.44.01.44.03zm-18.26 64.95l-3.34.32-3.33.37-3.32.44-3.31.49-3.29.54-3.29.61-3.27.66-3.25.71-3.24.77-3.22.83-3.21.88-3.19.93-3.17.99-3.16 1.04-3.13 1.1-3.12 1.15-3.09 1.2-3.07 1.25-3.05 1.31-3.03 1.36-3.01 1.42-2.98 1.46-2.95 1.51-2.93 1.57-2.91 1.62-2.87 1.66-2.85 1.72-2.83 1.77-2.79 1.82-2.76 1.86-2.74 1.92-2.7 1.96-2.67 2.02-2.64 2.06-2.6 2.11-2.58 2.15-2.53 2.21-2.51 2.25.85 1.56.89 1.54.93 1.51.96 1.47 1 1.44 1.04 1.41 1.07 1.38 1.11 1.35 1.14 1.31 1.18 1.28 1.2 1.24 1.24 1.21 1.27 1.17 1.3 1.14 1.32 1.1 1.36 1.06 1.38 1.03 1.41.99 1.43.94 1.46.92 1.49.87 1.5.83 1.53.79 1.55.75 1.57.71 1.59.66 1.61.63 1.63.58 1.64.53 1.66.5 1.68.45 1.69.4 1.7.36 1.72.31 1.73.27 1.75.22 1.75.17 1.76.12 1.77.08 1.78.02 1.77-.04 1.75-.12 1.75-.2 1.73-.28 1.73-.36 1.72-.45 1.72-.52 1.7-.6 1.7-.68 1.68-.76 1.68-.84 1.67-.92 1.67-1 1.65-1.08 1.65-1.16 1.63-1.24 1.63-1.32 1.62-1.4 1.62-1.48 1.6-1.56 1.6-1.64 1.58-1.72 1.58-1.8 1.57-1.88 1.57-1.96 1.55-2.04 1.55-2.12 1.53-2.2 1.53-2.28 1.52-2.36 1.52-2.44 1.5-2.52 1.5-2.6 1.48-2.68 1.48-2.75 1.47-2.84 1.47-2.92 1.45-3 1.45-3.08 1.43-3.16V64.52l-3.36.21-3.35.26zM84.76 21.33l-.2.01h-.58l-.19.01h-.19l-.2.01h-.19l-.19.01h-.19l-.2.01-.19.01-.19.01-.19.01h-.2l-.19.01-.19.02-.2.01-.19.01-.19.01-.19.01-.2.02-.19.01-.19.02-.19.01-.19.02-.2.01-.19.02-.19.02-.19.02-.2.02-.19.01-.19.02-.19.03-.19.02-.2.02-.19.02-2.6.36-2.57.46-2.52.56-2.48.66-2.44.75-2.39.84-2.34.93L58 27.36l-2.24 1.1-2.19 1.19-2.13 1.27-2.07 1.34-2.02 1.43-1.95 1.49-1.89 1.57-1.83 1.64-1.76 1.7-1.7 1.77-1.62 1.84-1.56 1.89-1.47 1.95-1.41 2-1.33 2.06-1.25 2.11-1.16 2.16-1.09 2.2-1 2.25-.92 2.29-.83 2.33-.73 2.37-.65 2.4-.56 2.44-.46 2.47-.36 2.49-.26 2.52-.17 2.55-.06 2.56.04 2.59.15 2.6.25 2.61 1.84-1.49 1.9-1.47 1.97-1.47 2.05-1.45 2.11-1.43 2.18-1.43 2.25-1.41 2.32-1.4 2.39-1.38 2.46-1.37 2.53-1.36 2.6-1.35 2.67-1.33 2.74-1.32 2.8-1.3 2.88-1.3L62.41 69l3.01-1.26 3.09-1.26 3.15-1.24 3.23-1.23 3.29-1.21 3.36-1.2 3.43-1.19 3.51-1.17 3.57-1.17 3.64-1.14 3.71-1.14 3.78-1.12 3.85-1.11 3.91-1.1 3.99-1.08 4.06-1.07 4.13-1.06 4.19-1.04 4.27-1.03 4.33-1.02 4.41-1 4.47-.99 4.54-.98V21.33H84.76z" id="e"/></defs><use xlink:href="#a" fill="#ff5252"/><use xlink:href="#a" fill-opacity="0" stroke="#000" stroke-opacity="0"/><use xlink:href="#b" fill="#ff5252"/><use xlink:href="#b" fill-opacity="0" stroke="#000" stroke-opacity="0"/><use xlink:href="#c" fill="#ff5252"/><use xlink:href="#c" fill-opacity="0" stroke="#000" stroke-opacity="0"/><use xlink:href="#d" fill="#ff5252"/><use xlink:href="#d" fill-opacity="0" stroke="#000" stroke-opacity="0"/><use xlink:href="#e" fill="#ff5252"/><use xlink:href="#e" fill-opacity="0" stroke="#000" stroke-opacity="0"/></svg>