<svg xmlns="http://www.w3.org/2000/svg" viewBox="0 0 512 512"><path d="M502 308.806V491H10V308.806c0-5.529 4.477-10.011 10-10.011h11v-25.027a5.003 5.003 0 0 1 5-5.005h20c2.761 0 5 2.241 5 5.005v25.027h30v-25.027a5.003 5.003 0 0 1 5-5.005h20c2.761 0 5 2.241 5 5.005v25.027h270v-25.027a5.003 5.003 0 0 1 5-5.005h20c2.761 0 5 2.241 5 5.005v25.027h30v-25.027a5.003 5.003 0 0 1 5-5.005h20c2.761 0 5 2.241 5 5.005v25.027h11c5.523.001 10 4.482 10 10.011z" fill="#f0c087"/><path d="M502 328.827V491H10V328.827h160V136.623h172v192.204h160z" fill="#d5945e"/><path d="M502 328.827V491h-29V328.827h29zm-190 60.064h30V136.623h-30v252.268z" fill="#ce8855"/><path d="M376 128.614H136l30-52.055h180l30 52.055z" fill="#c83741"/><path d="M386.929 118.604c4.455 0 6.685 5.391 3.536 8.545l-20 20.021a4.996 4.996 0 0 1-3.536 1.466H145.071a4.998 4.998 0 0 1-3.536-1.466l-20-20.021c-3.15-3.153-.919-8.545 3.536-8.545h261.858z" fill="#963737"/><path d="M512 463.971v22.023a5.003 5.003 0 0 1-5 5.005H5c-2.761 0-5-2.241-5-5.005v-22.023a5.003 5.003 0 0 1 5-5.005h146V213.705a5.003 5.003 0 0 1 5-5.005h20c2.761 0 5 2.241 5 5.005v25.027h30v-25.027a5.003 5.003 0 0 1 5-5.005h20c2.761 0 5 2.241 5 5.005v25.027h30v-25.027a5.003 5.003 0 0 1 5-5.005h20c2.761 0 5 2.241 5 5.005v25.027h30v-25.027a5.003 5.003 0 0 1 5-5.005h20c2.761 0 5 2.241 5 5.005v245.261h146c2.761 0 5 2.241 5 5.005z" fill="#e6af78"/><g fill="#963737"><path d="M347 80.563H165V48.529h182v32.034z"/><path d="M180 28.508v40.043c0 4.147-3.358 7.508-7.5 7.508s-7.5-3.361-7.5-7.508V28.508c0-4.147 3.358-7.508 7.5-7.508s7.5 3.361 7.5 7.508zM339.5 21c-4.142 0-7.5 3.361-7.5 7.508v40.043c0 4.147 3.358 7.508 7.5 7.508s7.5-3.361 7.5-7.508V28.508c0-4.147-3.358-7.508-7.5-7.508z"/></g><path d="M361 213.705v55.059H151v-55.059a5.003 5.003 0 0 1 5-5.005h20c2.761 0 5 2.241 5 5.005v25.027h30v-25.027a5.003 5.003 0 0 1 5-5.005h20c2.761 0 5 2.241 5 5.005v25.027h30v-25.027a5.003 5.003 0 0 1 5-5.005h20c2.761 0 5 2.241 5 5.005v25.027h30v-25.027a5.003 5.003 0 0 1 5-5.005h20c2.761 0 5 2.241 5 5.005z" fill="#f0c087"/><path d="M211 323.822v30.032a5.003 5.003 0 0 1-5 5.005h-20c-2.761 0-5-2.241-5-5.005v-30.032c0-8.293 6.716-15.016 15-15.016s15 6.723 15 15.016zm105-15.016c-8.284 0-15 6.723-15 15.016v30.032a5.003 5.003 0 0 0 5 5.005h20c2.761 0 5-2.241 5-5.005v-30.032c0-8.293-6.716-15.016-15-15.016zm-60 0c-8.284 0-15 6.723-15 15.016v30.032a5.003 5.003 0 0 0 5 5.005h20c2.761 0 5-2.241 5-5.005v-30.032c0-8.293-6.716-15.016-15-15.016zm161.5 90.096c0 4.146-3.358 7.508-7.5 7.508h-20c-4.142 0-7.5-3.361-7.5-7.508s3.358-7.508 7.5-7.508h20c4.142 0 7.5 3.362 7.5 7.508zm60-40.043c0-4.147-3.358-7.508-7.5-7.508h-20c-4.142 0-7.5 3.361-7.5 7.508 0 4.146 3.358 7.508 7.5 7.508h20c4.142 0 7.5-3.361 7.5-7.508zM110 381.383H90c-4.142 0-7.5 3.361-7.5 7.508 0 4.146 3.358 7.508 7.5 7.508h20c4.142 0 7.5-3.361 7.5-7.508 0-4.146-3.358-7.508-7.5-7.508zm-72.5-22.524c0-4.147-3.358-7.508-7.5-7.508H10v15.016h20c4.142 0 7.5-3.361 7.5-7.508zM60 411.415H40c-4.142 0-7.5 3.361-7.5 7.508s3.358 7.508 7.5 7.508h20c4.142 0 7.5-3.361 7.5-7.508 0-4.146-3.358-7.508-7.5-7.508zm440 10.011h-20c-4.142 0-7.5 3.361-7.5 7.508s3.358 7.508 7.5 7.508h20a7.5 7.5 0 0 0 2-.278v-14.459a7.46 7.46 0 0 0-2-.279z" fill="#c37a4f"/></svg>