<svg xmlns="http://www.w3.org/2000/svg" viewBox="0 0 480 480"><path d="M133.285 264c-22.091 0-40 17.909-40 40s17.909 40 40 40c22.08-.026 39.974-17.92 40-40 0-22.091-17.909-40-40-40zm0 64c-13.255 0-24-10.745-24-24s10.745-24 24-24 24 10.745 24 24-10.745 24-24 24z"/><path d="M259.149 359.008l-39.128-55.912c-7.166-10.209-21.251-12.676-31.46-5.51-10.025 7.036-12.614 20.781-5.836 30.982L198.341 352H68.229l15.616-23.432c6.902-10.389 4.075-24.406-6.314-31.308-10.201-6.777-23.946-4.188-30.982 5.836L7.421 359.008c-8.249 11.791-5.377 28.037 6.414 36.286A26.055 26.055 0 0 0 28.765 400h56.52v72a8 8 0 0 0 8 8h80a8 8 0 0 0 8-8v-72h56.52c14.39-.003 26.053-11.672 26.05-26.062a26.052 26.052 0 0 0-4.706-14.93zm-15.533 23.173a10.059 10.059 0 0 1-5.811 1.819h-64.52a8 8 0 0 0-8 8v72h-64v-72a8 8 0 0 0-8-8h-64.52c-5.554.001-10.057-4.5-10.059-10.053a10.05 10.05 0 0 1 1.819-5.771l39.16-55.912a6.585 6.585 0 0 1 10.872 7.432L46.629 355.56A8 8 0 0 0 53.285 368h160a8 8 0 0 0 6.656-12.44l-23.904-35.864a6.585 6.585 0 0 1 10.872-7.432l39.176 55.912c3.186 4.549 2.08 10.82-2.469 14.005zM149.285 120h-24c-13.255 0-24 10.745-24 24h16a8 8 0 0 1 8-8h24a8 8 0 0 1 0 16c-13.255 0-24 10.745-24 24h16a8 8 0 0 1 8-8c13.255 0 24-10.745 24-24s-10.745-24-24-24zm-24 64h16v16h-16z"/><path d="M133.285 88c-48.52 0-88 32.296-88 72 0 32.352 26.12 60.448 63.896 69.192l17.704 23.608a8 8 0 0 0 12.8 0l17.704-23.608c37.776-8.744 63.896-36.84 63.896-69.192 0-39.704-39.48-72-88-72zm17.912 126.168a8.003 8.003 0 0 0-4.8 3.04l-13.112 17.456-13.096-17.456a7.998 7.998 0 0 0-4.8-3.04C83.525 207.776 61.285 185.504 61.285 160c0-30.872 32.296-56 72-56s72 25.128 72 56c0 25.504-22.24 47.776-54.088 54.168zM365.285 160c-22.08.026-39.974 17.92-40 40 0 22.091 17.909 40 40 40s40-17.909 40-40-17.909-40-40-40zm0 64c-13.255 0-24-10.745-24-24s10.745-24 24-24 24 10.745 24 24-10.745 24-24 24zm48-224h-96c-22.08.026-39.974 17.92-40 40v48c.026 22.08 17.92 39.974 40 40h20.688l21.656 21.656a8 8 0 0 0 11.312 0L392.597 128h20.688c22.08-.026 39.974-17.92 40-40V40c-.026-22.08-17.92-39.974-40-40zm24 88c0 13.255-10.745 24-24 24h-24a8 8 0 0 0-5.656 2.344l-18.344 18.344-18.344-18.344a8 8 0 0 0-5.656-2.344h-24c-13.255 0-24-10.745-24-24V40c0-13.255 10.745-24 24-24h96c13.255 0 24 10.745 24 24v48z"/><path d="M457.285 216.32c-13.069-2.209-25.455 6.595-27.664 19.664a24.018 24.018 0 0 0-.336 4.016v8h-128v-39.144c.15-11.941-8.274-22.276-20-24.536-13.069-2.209-25.455 6.595-27.664 19.664a24.018 24.018 0 0 0-.336 4.016v40c.026 26.499 21.501 47.974 48 48h16v39.296l-19 107.68c-2.945 17.176 8.592 33.487 25.768 36.432 17.176 2.945 33.487-8.592 36.432-25.768l4.8-28.968 4.8 28.976c2.947 17.167 19.253 28.695 36.42 25.748 17.167-2.947 28.695-19.253 25.748-36.42l-18.968-107.68V296h16c26.499-.026 47.974-21.501 48-48v-7.144c.15-11.941-8.274-22.276-20-24.536zm4 31.68c0 17.673-14.327 32-32 32h-24a8 8 0 0 0-8 8v48c-.001.467.041.933.128 1.392l19.12 108.368c1.497 8.453-4.143 16.519-12.596 18.016-8.453 1.497-16.519-4.143-18.016-12.596l-.028-.164-12.72-76.328a8 8 0 0 0-15.776 0l-12.72 76.32c-1.358 8.477-9.331 14.247-17.807 12.889-8.477-1.358-14.247-9.331-12.889-17.807.018-.11.036-.22.056-.33l19.12-108.368c.087-.459.13-.925.128-1.392v-48a8 8 0 0 0-8-8h-24c-17.673 0-32-14.327-32-32v-40a8 8 0 0 1 9.4-7.88 8.665 8.665 0 0 1 6.6 8.736V248c0 8.837 7.163 16 16 16h128c8.837 0 16-7.163 16-16v-8a8.002 8.002 0 0 1 2.824-6.104 7.936 7.936 0 0 1 6.576-1.776 8.665 8.665 0 0 1 6.6 8.736V248zM403.137 34.344a8 8 0 0 0-11.508 0l-42.344 42.344-10.344-10.344a8 8 0 0 0-11.312.196 8 8 0 0 0 0 11.116l16 16a8 8 0 0 0 11.312 0l48-48a8 8 0 0 0 .196-11.312z"/></svg>