<svg xmlns="http://www.w3.org/2000/svg" xmlns:xlink="http://www.w3.org/1999/xlink" viewBox="0 0 640 640" width="640" height="640"><defs><path d="M346.23 1.09l12.9 1.32 12.75 1.83 12.58 2.32 12.4 2.81 12.22 3.28 12.01 3.75 11.81 4.2 11.6 4.64 11.36 5.08 11.12 5.5 10.88 5.92 10.62 6.31 10.35 6.71 10.06 7.09 9.78 7.46 9.48 7.83 9.17 8.18 8.85 8.51 8.51 8.85 8.18 9.17 7.83 9.48 7.46 9.78 7.09 10.06 6.71 10.35 6.31 10.62 5.92 10.88 5.5 11.12 5.08 11.36 4.64 11.6 4.2 11.81 3.75 12.01 3.28 12.22 2.81 12.4 2.32 12.58 1.83 12.75 1.32 12.9.81 13.05L640 320l-.27 13.19-.79 13.05-1.31 12.91-1.82 12.76-2.31 12.58-2.8 12.41-3.27 12.22-3.74 12.02-4.2 11.82-4.64 11.6-5.07 11.37-5.5 11.13-5.91 10.88-6.31 10.62-6.71 10.35-7.09 10.08-7.46 9.78-7.83 9.48-8.18 9.17-8.52 8.85-8.85 8.52-9.17 8.18-9.48 7.83-9.78 7.46-10.08 7.09-10.35 6.71-10.62 6.31-10.88 5.91-11.13 5.5-11.37 5.07-11.6 4.64-11.82 4.2-12.02 3.74-12.22 3.27-12.41 2.8-12.58 2.31-12.76 1.82-12.91 1.31-13.05.79L320 640l-13.19-.27-13.05-.79-12.91-1.31-12.76-1.82-12.58-2.31-12.41-2.8-12.22-3.27-12.02-3.74-11.82-4.2-11.6-4.64-11.37-5.07-11.13-5.5-10.88-5.91-10.62-6.31-10.35-6.71-10.08-7.09-9.78-7.46-9.48-7.83-9.17-8.18-8.85-8.52-8.52-8.85-8.18-9.17-7.83-9.48-7.46-9.78-7.09-10.08-6.71-10.35-6.31-10.62-5.91-10.88-5.5-11.13-5.07-11.37-4.64-11.6-4.2-11.82-3.74-12.02L9.3 396.9l-2.8-12.41-2.31-12.58-1.82-12.76-1.31-12.91-.79-13.05L0 320l.27-13.19.79-13.05 1.31-12.91 1.82-12.76 2.31-12.58 2.8-12.41 3.27-12.22 3.74-12.02 4.2-11.82 4.64-11.6 5.07-11.37 5.5-11.13 5.91-10.88 6.31-10.62 6.71-10.35 7.09-10.08 7.46-9.78 7.83-9.48 8.18-9.17 8.52-8.85 8.85-8.52 9.17-8.18 9.48-7.83 9.78-7.46 10.08-7.09 10.35-6.71 10.62-6.31 10.88-5.91 11.13-5.5 11.37-5.07 11.6-4.64 11.82-4.2 12.02-3.74L243.1 9.3l12.41-2.8 12.58-2.31 12.76-1.82 12.91-1.31 13.05-.79L320 0l13.18.28 13.05.81zm-36.9 41.58V21.6l-1.81.07-1.81.08-1.82.09-1.81.11-1.81.11-1.81.13-1.8.13-1.81.15-1.81.16-1.8.17-1.81.18-1.8.19-1.8.2-1.8.21-1.8.23-1.79.23-1.8.25-1.79.26-1.8.26-1.79.28-1.78.29-1.79.3-1.79.31-1.78.33-1.78.33-1.78.34-1.78.36-1.77.36-1.77.38-1.78.39-1.76.4-1.77.41-1.76.42-1.77.43-1.75.44-1.76.45-1.76.46-1.75.48-1.75.48-1.74.5 6.52 20.04-20.27 6.6-6.54-20.12-1.7.62-1.7.64-1.69.65-1.69.66-1.68.66-1.68.68-1.67.69-1.68.7-1.66.71-1.66.72-1.66.72-1.65.74-1.65.75-1.64.76-1.64.77-1.64.77-1.62.79-1.63.8-1.62.81-1.61.81-1.61.83-1.61.84-1.6.84-1.59.86-1.59.87-1.58.87-1.58.89-1.57.89-1.57.9-1.56.92-1.56.92-1.55.93-1.55.95-1.54.95-1.53.96-1.53.97-1.53.98-1.51.99-1.52 1-1.5 1.01 12.37 17.06-17.26 12.55-12.31-16.94-1.42 1.12-1.42 1.13-1.4 1.14-1.41 1.15-1.39 1.16-1.39 1.16-1.38 1.18-1.37 1.18-1.37 1.19-1.35 1.19-1.36 1.21-1.34 1.21-1.34 1.22-1.32 1.23-1.33 1.24-1.31 1.24-1.31 1.26-1.29 1.26-1.3 1.26-1.28 1.28-1.28 1.28-1.26 1.3-1.26 1.29-1.26 1.31-1.24 1.31-1.24 1.33-1.23 1.32-1.22 1.34-1.21 1.34-1.21 1.36-1.19 1.35-1.19 1.37-1.18 1.37-1.18 1.38-1.16 1.39-1.16 1.39-1.15 1.41-1.14 1.4-1.13 1.42-1.12 1.42 17.03 12.3-12.54 17.26-17.07-12.37-1.01 1.5-1 1.52-.99 1.51-.98 1.53-.98 1.53-.96 1.53-.95 1.54-.95 1.55-.93 1.55-.93 1.56-.92 1.56-.9 1.57-.9 1.57-.89 1.58-.88 1.58-.86 1.59-.86 1.6-.85 1.59-.84 1.61-.83 1.61-.82 1.61-.81 1.62-.8 1.63-.79 1.63-.78 1.63-.77 1.64-.76 1.64-.75 1.65-.74 1.65-.73 1.66-.72 1.66-.71 1.67-.7 1.67-.69 1.68-.68 1.68-.67 1.68-.66 1.69-.65 1.69-.64 1.7-.63 1.7 20.07 6.58-6.6 20.27-20.04-6.52-.5 1.75-.48 1.74-.47 1.75-.47 1.76-.45 1.75-.44 1.76-.43 1.76-.41 1.76-.41 1.77-.4 1.77-.39 1.77-.37 1.77-.37 1.77-.35 1.78-.34 1.78-.33 1.78-.32 1.78-.31 1.78-.3 1.79-.29 1.79-.28 1.79-.27 1.79-.25 1.79-.25 1.79-.23 1.8-.22 1.8-.22 1.8-.2 1.8-.19 1.8-.18 1.8-.16 1.8-.16 1.81-.15 1.8-.13 1.81-.13 1.81-.11 1.81-.1 1.81-.09 1.81-.08 1.81-.07 1.81h21.07v21.34H21.6l.07 1.81.08 1.81.09 1.82.11 1.81.11 1.81.13 1.81.13 1.8.15 1.81.16 1.81.17 1.8.18 1.81.19 1.8.2 1.8.21 1.8.23 1.8.23 1.79.25 1.8.26 1.79.26 1.8.28 1.79.29 1.78.3 1.79.31 1.79.33 1.78.33 1.78.34 1.78.36 1.78.36 1.77.38 1.77.39 1.78.4 1.76.41 1.77.42 1.76.43 1.77.44 1.75.45 1.76.46 1.76.48 1.75.48 1.75.5 1.74 20.04-6.52 6.6 20.27-20.12 6.54.62 1.7.64 1.69.65 1.7.66 1.68.66 1.68.68 1.68.69 1.68.7 1.67.71 1.66.71 1.66.73 1.66.74 1.65.75 1.65.76 1.64.76 1.64.78 1.63.79 1.63.8 1.62.8 1.62.82 1.61.83 1.61.83 1.6.85 1.6.86 1.59.86 1.59.88 1.58.88 1.58.9 1.57.9 1.57.91 1.56.93 1.56.93 1.55.94 1.54.95 1.54.96 1.54.97 1.52.98 1.53.99 1.51 1 1.51 1.01 1.51 17.06-12.37 12.55 17.25-16.94 12.31 1.12 1.43 1.13 1.41 1.14 1.41 1.15 1.4 1.16 1.4 1.16 1.38 1.18 1.38 1.18 1.38 1.19 1.36 1.19 1.36 1.21 1.35 1.21 1.35 1.22 1.33 1.23 1.33 1.24 1.32 1.24 1.32 1.26 1.3 1.26 1.3 1.26 1.29 1.28 1.29 1.28 1.27 1.29 1.27 1.3 1.26 1.31 1.25 1.31 1.25 1.32 1.24 1.33 1.22 1.34 1.23 1.34 1.21 1.35 1.2 1.36 1.2 1.37 1.19 1.37 1.18 1.38 1.17 1.39 1.17 1.39 1.15 1.41 1.15 1.4 1.14 1.42 1.13 1.42 1.13 12.31-16.94 17.26 12.54-12.37 17.07 1.5 1.01 1.52 1 1.51.99 1.53.99 1.53.97 1.53.96 1.54.96 1.55.94 1.55.94 1.56.92 1.56.92 1.57.91 1.57.89 1.58.89 1.58.88 1.59.87 1.6.86 1.59.84 1.61.84 1.61.83 1.61.82 1.62.81 1.63.8 1.63.79 1.63.78 1.64.77 1.64.76 1.65.75 1.65.74 1.66.73 1.66.73 1.67.71 1.67.7 1.68.69 1.68.68 1.68.67 1.69.66 1.69.65 1.7.64 1.7.63 6.58-20.13 20.27 6.6-6.52 20.04 1.75.5 1.74.48 1.75.47 1.76.47 1.75.45 1.76.44 1.76.43 1.76.41 1.77.41 1.77.4 1.77.39 1.77.37 1.77.37 1.78.35 1.78.34 1.78.33 1.78.32 1.78.31 1.79.3 1.79.29 1.79.28 1.79.27 1.79.25 1.79.25 1.8.23 1.8.22 1.8.22 1.8.2 1.8.19 1.8.18 1.8.16 1.81.16 1.8.15 1.81.13 1.81.13 1.81.11 1.81.1 1.81.09 1.81.08 1.81.07v-21.07h21.34v21.07l1.81-.07 1.81-.08 1.82-.09 1.81-.1 1.81-.11 1.81-.13 1.8-.13 1.81-.15 1.81-.16 1.8-.16 1.81-.18 1.8-.19 1.8-.2 1.8-.21 1.8-.23 1.79-.23 1.8-.25 1.79-.25 1.79-.27 1.79-.28 1.79-.28 1.79-.3 1.79-.31 1.78-.32 1.78-.34 1.78-.34 1.78-.35 1.77-.37 1.77-.37 1.77-.39 1.77-.4 1.77-.4 1.76-.42 1.77-.43 1.75-.44 1.76-.45 1.76-.47 1.75-.47 1.75-.48 1.74-.5-6.52-20.04 20.27-6.6 6.54 20.13 1.7-.63 1.7-.64 1.69-.65 1.69-.66 1.68-.67 1.68-.68 1.68-.69 1.67-.7 1.66-.71 1.66-.71 1.66-.73 1.65-.74 1.65-.75 1.65-.76 1.63-.77 1.64-.78 1.63-.79 1.62-.8 1.62-.81 1.61-.82 1.61-.82 1.61-.84 1.6-.85 1.59-.86 1.59-.86 1.58-.88 1.58-.89 1.58-.89 1.56-.91 1.57-.91 1.55-.93 1.55-.93 1.55-.95 1.54-.95 1.53-.96 1.53-.98 1.53-.98 1.51-.99 1.52-1 1.5-1.01-12.37-17.06 17.26-12.55 12.31 16.94 1.42-1.12 1.41-1.14 1.41-1.14 1.4-1.15 1.4-1.15 1.38-1.17 1.38-1.17 1.37-1.19 1.37-1.19 1.35-1.19 1.35-1.21 1.35-1.21 1.33-1.23 1.33-1.22 1.32-1.24 1.31-1.25 1.31-1.25 1.3-1.26 1.29-1.27 1.28-1.28 1.27-1.28 1.27-1.29 1.26-1.3 1.25-1.31 1.24-1.32 1.24-1.32 1.23-1.33 1.22-1.33 1.21-1.35 1.2-1.35 1.2-1.36 1.19-1.37 1.18-1.37 1.17-1.38 1.16-1.39 1.16-1.39 1.15-1.41 1.13-1.41 1.14-1.41 1.12-1.43-16.94-12.3 12.54-17.26 17.07 12.37 1.01-1.51 1-1.51.99-1.52.99-1.52.97-1.53.96-1.53.96-1.54.94-1.55.94-1.55.92-1.56.92-1.56.91-1.57.89-1.57.89-1.58.88-1.58.87-1.59.86-1.6.84-1.6.84-1.6.83-1.61.82-1.62.81-1.62.8-1.62.79-1.63.78-1.63.77-1.64.76-1.65.75-1.64.74-1.66.73-1.65.73-1.67.71-1.66.7-1.67.69-1.68.68-1.68.67-1.68.66-1.69.65-1.69.64-1.7.63-1.7-20.13-6.54 6.6-20.27 20.04 6.52.5-1.75.48-1.74.47-1.75.47-1.76.45-1.75.44-1.76.43-1.76.41-1.76.41-1.77.4-1.77.39-1.77.37-1.77.37-1.77.35-1.78.34-1.78.33-1.78.32-1.78.31-1.78.3-1.79.29-1.79.28-1.79.27-1.79.25-1.79.25-1.79.23-1.8.22-1.8.22-1.8.2-1.8.19-1.8.18-1.8.16-1.8.16-1.81.15-1.8.13-1.81.13-1.81.11-1.81.1-1.81.09-1.81.08-1.81.07-1.81h-21.07v-21.34h21.07l-.07-1.81-.08-1.81-.09-1.82-.1-1.81-.11-1.81-.13-1.81-.13-1.8-.15-1.81-.16-1.81-.16-1.8-.18-1.81-.19-1.8-.2-1.8-.21-1.8-.23-1.8-.23-1.79-.25-1.8-.25-1.79-.27-1.79-.28-1.79-.28-1.79-.3-1.79-.31-1.79-.32-1.78-.34-1.78-.34-1.78-.35-1.78-.37-1.77-.37-1.77-.39-1.77-.4-1.77-.4-1.77-.42-1.76-.43-1.77-.44-1.75-.45-1.76-.47-1.76-.47-1.75-.48-1.75-.5-1.74-20.04 6.52-6.6-20.27 20.13-6.54-.63-1.7-.64-1.69-.65-1.69-.66-1.69-.67-1.68-.68-1.68-.69-1.67-.7-1.67-.71-1.66-.72-1.66-.73-1.65-.74-1.65-.74-1.65-.76-1.64-.77-1.64-.78-1.63-.79-1.62-.8-1.63-.81-1.61-.82-1.62-.82-1.6-.84-1.6-.85-1.6-.86-1.59-.86-1.59-.88-1.58-.89-1.58-.89-1.57-.91-1.56-.91-1.56-.93-1.56-.93-1.55-.94-1.54-.95-1.54-.97-1.53-.97-1.53-.98-1.52-.99-1.51-1-1.51-1.01-1.51-17.06 12.38-12.55-17.26 16.94-12.31-1.12-1.42-1.13-1.42-1.14-1.41-1.15-1.4-1.16-1.39-1.16-1.39-1.18-1.38-1.18-1.37-1.19-1.37-1.19-1.36-1.21-1.35-1.21-1.34-1.22-1.34-1.23-1.33-1.24-1.32-1.24-1.31-1.26-1.31-1.26-1.3-1.26-1.29-1.28-1.28-1.28-1.28-1.29-1.27-1.3-1.26-1.31-1.25-1.31-1.24-1.32-1.24-1.33-1.23-1.34-1.22-1.34-1.21-1.35-1.21-1.36-1.2-1.37-1.19-1.37-1.18-1.38-1.17-1.39-1.16-1.39-1.16-1.41-1.15-1.4-1.14-1.42-1.13-1.42-1.12-12.31 16.93-17.26-12.54 12.37-17.07-1.5-1.01-1.52-1-1.51-.99-1.53-.98-1.53-.98-1.53-.96-1.54-.95-1.55-.95-1.55-.93-1.56-.93-1.56-.92-1.57-.9-1.57-.9-1.58-.89-1.58-.88-1.59-.86-1.6-.86-1.59-.85-1.61-.84-1.61-.83-1.61-.82-1.62-.81-1.63-.8-1.63-.79-1.63-.78-1.64-.77-1.64-.76-1.65-.75-1.65-.74-1.66-.73-1.66-.72-1.67-.71-1.67-.7-1.68-.69-1.68-.68-1.68-.67-1.69-.66-1.69-.65-1.7-.64-1.7-.63-6.58 20.07-20.27-6.6 6.52-20.04-1.75-.5-1.74-.48-1.75-.47-1.76-.47-1.75-.45-1.76-.44-1.76-.43-1.76-.41-1.77-.41-1.77-.4-1.77-.39-1.77-.37-1.77-.37-1.78-.35-1.78-.34-1.78-.33-1.78-.32-1.78-.31-1.79-.3-1.79-.29-1.79-.28-1.79-.27-1.79-.25-1.79-.25-1.8-.23-1.8-.22-1.8-.22-1.8-.2-1.8-.19-1.8-.18-1.8-.16-1.81-.16-1.8-.15-1.81-.13-1.81-.13-1.81-.11-1.81-.1-1.81-.09-1.81-.08-1.81-.07v21.07h-21.34z" id="a"/><path d="M339.24 86.13l9.46.97 9.35 1.34 9.22 1.71 9.09 2.05 8.96 2.41 8.82 2.75 8.66 3.08 8.5 3.41 8.33 3.72 8.16 4.03 7.97 4.34 7.79 4.63 7.59 4.92 7.38 5.2 7.17 5.47 6.95 5.74 6.73 6 6.49 6.24 6.24 6.49 6 6.73 5.74 6.95 5.47 7.17 5.2 7.38 4.92 7.59 4.63 7.79 4.34 7.97 4.03 8.16 3.72 8.33 3.41 8.5 3.08 8.66 2.75 8.82 2.41 8.96 2.05 9.09 1.71 9.22 1.34 9.35.97 9.46.59 9.57.21 9.67-.2 9.67-.58 9.58-.96 9.46-1.33 9.35-1.7 9.23-2.05 9.1-2.4 8.97-2.75 8.81-3.07 8.67-3.4 8.5-3.73 8.34-4.03 8.16-4.33 7.98-4.63 7.79-4.92 7.59-5.2 7.39-5.47 7.17-5.74 6.96-6 6.72-6.25 6.49-6.49 6.25-6.72 6-6.96 5.74-7.17 5.47-7.39 5.2-7.59 4.92-7.79 4.63-7.98 4.33-8.16 4.03-8.34 3.73-8.5 3.4-8.67 3.07-8.81 2.75-8.97 2.4-9.1 2.05-9.23 1.7-9.35 1.33-9.46.96-9.58.58-9.67.2-9.67-.2-9.58-.58-9.46-.96-9.35-1.33-9.23-1.7-9.1-2.05-8.97-2.4-8.81-2.75-8.67-3.07-8.5-3.4-8.34-3.73-8.16-4.03-7.98-4.33-7.79-4.63-7.59-4.92-7.39-5.2-7.17-5.47-6.96-5.74-6.72-6-6.49-6.25-6.25-6.49-6-6.72-5.74-6.96-5.47-7.17-5.2-7.39-4.92-7.59-4.63-7.79-4.33-7.98-4.03-8.16-3.73-8.34-3.4-8.5-3.07-8.67-2.75-8.81-2.4-8.97-2.05-9.1-1.7-9.23-1.33-9.35-.96-9.46-.58-9.58-.2-9.67.2-9.67.58-9.58.96-9.46 1.33-9.35 1.7-9.23 2.05-9.1 2.4-8.97 2.75-8.81 3.07-8.67 3.4-8.5 3.73-8.34 4.03-8.16 4.33-7.98 4.63-7.79 4.92-7.59 5.2-7.39 5.47-7.17 5.74-6.96 6-6.72 6.25-6.49 6.49-6.25 6.72-6 6.96-5.74 7.17-5.47 7.39-5.2 7.59-4.92 7.79-4.63 7.98-4.33 8.16-4.03 8.34-3.73 8.5-3.4 8.67-3.07 8.81-2.75 8.97-2.4 9.1-2.05 9.23-1.7 9.35-1.33 9.46-.96 9.58-.58 9.67-.2 9.67.21 9.57.59zm-36.74 21.24l-8.6.88-8.5 1.21-8.39 1.54-8.28 1.87-8.14 2.18-8.02 2.49-7.88 2.8-7.73 3.09-7.58 3.38-7.42 3.67-7.25 3.94-7.09 4.21-6.9 4.47-6.71 4.73-6.52 4.97-6.33 5.22-6.11 5.45-5.9 5.68-5.68 5.9-5.45 6.11-5.22 6.33-4.97 6.52-4.73 6.71-4.47 6.9-4.21 7.09-3.94 7.25-3.67 7.42-3.38 7.58-3.09 7.73-2.8 7.88-2.49 8.02-2.18 8.14-1.87 8.28-1.54 8.39-1.21 8.5-.88 8.6-.53 8.71-.17 8.79.17 8.79.53 8.71.88 8.6 1.21 8.5 1.54 8.39 1.87 8.28 2.18 8.14 2.49 8.02 2.8 7.88 3.09 7.73 3.38 7.58 3.67 7.42 3.94 7.25 4.21 7.09 4.47 6.9 4.73 6.71 4.97 6.52 5.22 6.33 5.45 6.11 5.68 5.9 5.9 5.68 6.11 5.45 6.33 5.22 6.52 4.97 6.71 4.73 6.9 4.47 7.09 4.21 7.25 3.94 7.42 3.67 7.58 3.38 7.73 3.09 7.88 2.8 8.02 2.49 8.14 2.18 8.28 1.87 8.39 1.54 8.5 1.21 8.6.88 8.71.53 8.79.17 8.79-.18 8.7-.54 8.6-.88 8.5-1.22 8.38-1.55 8.27-1.87 8.14-2.19 8.02-2.5 7.87-2.8 7.73-3.1 7.57-3.38 7.42-3.67 7.25-3.94 7.08-4.21 6.9-4.47 6.71-4.73 6.52-4.98 6.32-5.21 6.11-5.45 5.9-5.68 5.68-5.9 5.45-6.11 5.21-6.32 4.98-6.52 4.73-6.71 4.47-6.9 4.21-7.08 3.94-7.25 3.67-7.42 3.38-7.57 3.1-7.73 2.8-7.87 2.5-8.02 2.19-8.14 1.87-8.27 1.55-8.38 1.22-8.5.88-8.6.54-8.7.18-8.79-.17-8.79-.53-8.71-.88-8.6-1.21-8.5-1.54-8.39-1.87-8.28-2.18-8.14-2.49-8.02-2.8-7.88-3.09-7.73-3.38-7.58-3.67-7.42-3.94-7.25-4.21-7.09-4.47-6.9-4.73-6.71-4.97-6.52-5.22-6.33-5.45-6.11-5.68-5.9-5.9-5.68-6.11-5.45-6.33-5.22-6.52-4.97-6.71-4.73-6.9-4.47-7.09-4.21-7.25-3.94-7.42-3.67-7.58-3.38-7.73-3.09-7.88-2.8-8.02-2.49-8.14-2.18-8.28-1.87-8.39-1.54-8.5-1.21-8.6-.88-8.71-.53-8.79-.17-8.79.17-8.71.53z" id="b"/><path d="M334.87 139.28l7.31.75 7.22 1.04 7.13 1.31 7.03 1.6 6.92 1.86 6.81 2.12 6.69 2.38 6.57 2.63 6.44 2.88 6.3 3.11 6.16 3.36 6.02 3.58 5.87 3.8 5.7 4.02 5.54 4.22 5.37 4.44 5.2 4.63 5.01 4.83 4.83 5.01 4.63 5.2 4.44 5.37 4.22 5.54 4.02 5.7 3.8 5.87 3.58 6.02 3.36 6.16 3.11 6.3 2.88 6.44 2.63 6.57 2.38 6.69 2.12 6.81 1.86 6.92 1.6 7.03 1.31 7.13 1.04 7.22.75 7.31.45 7.4.16 7.47-.15 7.47-.45 7.4-.74 7.32-1.03 7.22-1.31 7.14-1.59 7.03-1.85 6.92-2.12 6.82-2.38 6.69-2.63 6.57-2.87 6.45-3.12 6.3-3.35 6.17-3.57 6.02-3.81 5.87-4.01 5.7-4.23 5.55-4.44 5.37-4.63 5.2-4.83 5.01-5.01 4.83-5.2 4.63-5.37 4.44-5.55 4.23-5.7 4.01-5.87 3.81-6.02 3.57-6.17 3.35-6.3 3.12-6.45 2.87-6.57 2.63-6.69 2.38-6.82 2.12-6.92 1.85-7.03 1.59-7.14 1.31-7.22 1.03-7.32.74-7.4.45-7.47.15-7.47-.15-7.4-.45-7.32-.74-7.22-1.03-7.14-1.31-7.03-1.59-6.92-1.85-6.82-2.12-6.69-2.38-6.57-2.63-6.45-2.87-6.3-3.12-6.17-3.35-6.02-3.57-5.87-3.81-5.7-4.01-5.55-4.23-5.37-4.44-5.2-4.63-5.01-4.83-4.83-5.01-4.63-5.2-4.44-5.37-4.23-5.55-4.01-5.7-3.81-5.87-3.57-6.02-3.35-6.17-3.12-6.3-2.87-6.45-2.63-6.57-2.38-6.69-2.12-6.82-1.85-6.92-1.59-7.03-1.31-7.14-1.03-7.22-.74-7.32-.45-7.4-.15-7.47.15-7.47.45-7.4.74-7.32 1.03-7.22 1.31-7.14 1.59-7.03 1.85-6.92 2.12-6.82 2.38-6.69 2.63-6.57 2.87-6.45 3.12-6.3 3.35-6.17 3.57-6.02 3.81-5.87 4.01-5.7 4.23-5.55 4.44-5.37 4.63-5.2 4.83-5.01 5.01-4.83 5.2-4.63 5.37-4.44 5.55-4.23 5.7-4.01 5.87-3.81 6.02-3.57 6.17-3.35 6.3-3.12 6.45-2.87 6.57-2.63 6.69-2.38 6.82-2.12 6.92-1.85 7.03-1.59 7.14-1.31 7.22-1.03 7.32-.74 7.4-.45 7.47-.15 7.47.16 7.4.45zm14.38 95.48l-.25.57-.28.57-.28.57-.29.55-.3.55-.31.54-.33.54-.33.53-.34.52-.36.52-.36.5-.37.5-.38.5-.39.48-.4.48-.41.47-.42.46-.42.45-.44.44-.44.44-.46.42-.46.42-.46.41-.48.4-.49.39-.49.38-.5.37-.5.37-.52.35-.52.34-.53.33-.54.33-.54.31-.55.3-.56.29-.56.29-.57.27-.57.26-.59.25-1.22.48-1.24.43-1.24.37-1.25.32-1.25.28-1.25.21-1.26.17-1.25.12-1.25.07-1.25.01-1.25-.03-1.24-.08-1.23-.13-1.22-.17-1.21-.22-1.21-.27-1.19-.31-1.17-.36-1.16-.4-1.15-.45-1.12-.49-1.11-.53-1.09-.57-1.06-.62-1.05-.66-1.01-.7-.99-.73-.97-.78-.93-.82-.91-.85-.87-.89-.84-.93-.81-.97-.77-1-.74-1.04-.7-1.07-.65-1.11-.62-1.14-.58-1.18-.53-1.2-26.58-63.82-2.02.77-2.01.81-2 .83-1.98.85-1.97.88-1.96.91-1.94.93-1.93.96-1.92.98-1.9 1.01-1.88 1.04-1.88 1.05-1.85 1.09-1.84 1.1-1.83 1.13-1.81 1.16-1.8 1.18-1.77 1.2-1.77 1.23-1.74 1.25-1.73 1.27-1.71 1.3-1.7 1.32-1.67 1.34-1.66 1.37-1.64 1.38-1.62 1.41-1.61 1.43-1.58 1.46-1.57 1.47-1.55 1.5-1.52 1.51-1.51 1.54-1.49 1.56-1.47 1.58-1.44 1.6-1.43 1.63-1.41 1.64-1.38 1.66-1.36 1.68 52.48 45.02.47.41.47.43.45.43.45.44.44.45.43.46.42.46.41.47.4.48.39.49.38.49.37.5.36.51.35.51.33.52.33.53.32.53.31.54.3.54.29.55.27.56.27.56.25.56.25.57.23.58.22.58.21.58.2.59.19.59.18.6.16.6.15.61.15.61.13.61.11.61.11.62.1.62.08.62.07.63.06.63.08 1.32.02 1.3-.02 1.3-.08 1.29-.13 1.27-.17 1.26-.23 1.24-.27 1.23-.33 1.22-.36 1.19-.42 1.17-.45 1.16-.5 1.13-.55 1.11-.58 1.09-.62 1.06-.67 1.04-.7 1-.74.99-.78.95-.81.92-.85.89-.88.86-.91.82-.95.79-.97.75-1.01.72-1.04.68-1.06.64-1.09.59-1.12.56-1.15.52-1.16.47-1.19.42-1.22.38-1.23.34-1.26.28-1.28.24-1.29.18-1.31.14-68.89 5.57.11 2.16.13 2.16.17 2.16.19 2.15.22 2.15.26 2.14.28 2.14.31 2.13.33 2.13.37 2.12.4 2.11.42 2.11.45 2.1.48 2.1.51 2.09.54 2.08.56 2.07.59 2.07.62 2.05.65 2.05.68 2.04.7 2.03.73 2.02.76 2.01.78 2 .81 1.99.84 1.98.87 1.96.89 1.96.92 1.95.95 1.93.97 1.92 1 1.91 1.03 1.9 1.05 1.88 1.08 1.87 1.1 1.86 1.13 1.84 1.16 1.83 1.18 1.82 59.03-36.04.54-.32.55-.31.56-.3.55-.29.57-.28.56-.27.58-.25.57-.25.58-.23.59-.22.58-.21.59-.2.6-.18.6-.18.6-.16.6-.15.61-.14.6-.12.61-.12.62-.1.61-.09.62-.08.61-.07.62-.06.62-.04.62-.03.63-.02.62-.01.62.01.63.01.62.03.62.05.63.05.62.06.62.08.62.09.62.11.62.11.62.13.62.14 1.27.33 1.26.38 1.22.43 1.2.47 1.17.51 1.14.56 1.12.6 1.08.65 1.05.68 1.02.72.99.75.96.8.92.82.89.86.85.9.82.92.78.95.74.98.7 1.01.66 1.03.63 1.06.58 1.08.54 1.11.5 1.12.46 1.14.41 1.17.37 1.18.32 1.19.28 1.21.23 1.23.19 1.23.13 1.25.09 1.25.03 1.27-.01 1.27-.07 1.28-.12 1.28-.17 1.29-.22 1.29-.28 1.28-16 67.29h.02l2.09.58 2.09.54 2.11.52 2.1.49 2.11.46 2.12.43 2.12.4 2.13.37 2.12.34 2.13.31 2.14.28 2.14.25 2.14.22 2.14.2 2.14.16 2.15.13 2.14.11 2.15.07 2.15.05 2.15.01 2.15-.01 2.15-.05 2.14-.07 2.15-.11 2.15-.13 2.14-.16 2.14-.2 2.14-.22 2.14-.25 2.13-.28 2.14-.31 2.12-.34 2.13-.37 2.12-.4 2.11-.43 2.12-.46 2.1-.49 2.1-.52 2.1-.54 2.09-.58-16-67.29-.14-.61-.13-.62-.12-.62-.1-.62-.09-.62-.08-.63-.06-.62-.06-.62-.04-.63-.03-.62-.02-.62v-.63l.01-.62.01-.62.04-.62.04-.63.05-.61.07-.62.08-.62.09-.61.11-.62.11-.61.13-.61.14-.6.15-.61.16-.6.17-.59.19-.6.2-.59.21-.59.22-.58.23-.58.24-.58.26-.57.27-.57.27-.56.29-.56.31-.56.31-.54.32-.55.48-.74.51-.72.54-.69.57-.67.6-.64.64-.62.67-.6.7-.57.73-.55.76-.52.8-.5.83-.47.86-.45.89-.43.92-.4.96-.37.99-.35 1.02-.33 1.05-.3 1.08-.28 1.12-.26 1.14-.23 1.18-.2 1.22-.18 1.24-.16 1.27-.13 1.31-.11 1.34-.08 1.37-.06 1.41-.04h1.43l1.47.01 1.5.04 1.53.06 1.56.09 1.6.11 1.62.14 1.66.16 1.69.18 1.73.21 59.1 36.05 1.18-1.82 1.16-1.83 1.13-1.84 1.11-1.86 1.07-1.87 1.06-1.88 1.02-1.9 1-1.91.97-1.92.95-1.93.92-1.95.89-1.96.87-1.96.84-1.98.81-1.99.78-2 .76-2.01.73-2.02.71-2.03.67-2.04.65-2.05.62-2.05.59-2.07.57-2.07.53-2.08.51-2.09.48-2.1.45-2.1.43-2.11.39-2.11.37-2.12.34-2.13.31-2.13.28-2.14.25-2.14.22-2.15.19-2.15.17-2.16.13-2.16.11-2.16-68.89-5.57-.63-.06-.62-.07-.63-.08-.62-.09-.62-.11-.61-.12-.62-.13-.6-.14-.61-.15-.6-.17-.6-.17-.59-.19-.59-.2-.59-.21-.58-.22-.57-.24-.58-.24-.56-.25-.56-.27-.56-.28-.55-.28-.54-.3-.54-.31-.54-.32-.52-.33-.52-.34-.52-.35-.51-.36-.5-.37-.49-.38-.49-.39-.48-.4-.47-.41-.46-.42-.46-.43-.45-.43-.44-.45-.43-.46-.43-.47-.42-.47-.83-1.02-.79-1.04-.75-1.07-.69-1.08-.64-1.11-.6-1.12-.54-1.14-.5-1.16-.46-1.17-.4-1.18-.35-1.19-.31-1.21-.26-1.21-.21-1.21-.17-1.23-.12-1.22-.07-1.23-.02-1.23.02-1.23.07-1.23.12-1.22.16-1.22.21-1.21.26-1.2.3-1.2.35-1.18.4-1.17.44-1.16.48-1.14.54-1.12.58-1.11.62-1.09.67-1.07.71-1.04.76-1.02.81-1 .85-.96.89-.94.94-.91.98-.88 52.42-45.02-1.36-1.68-1.39-1.66-1.4-1.64-1.43-1.62-1.45-1.61-1.47-1.58-1.48-1.56-1.51-1.53-1.53-1.52-1.55-1.5-1.56-1.47-1.59-1.46-1.6-1.43-1.62-1.41-1.65-1.38-1.65-1.37-1.68-1.34-1.69-1.32-1.72-1.29-1.72-1.28-1.75-1.25-1.76-1.23-1.78-1.2-1.79-1.18-1.82-1.15-1.82-1.13-1.84-1.11-1.86-1.08-1.87-1.06-1.89-1.04-1.9-1.01-1.91-.98-1.93-.96-1.95-.93-1.95-.91-1.97-.88-1.99-.85-1.99-.83-2.01-.81-2.02-.77-26.6 63.82-.25.58zm-87.72 153.98l-.41.04-.41.05-.41.07-.41.09-.41.1-.41.12-.4.14-.4.15-.39.17-.39.19-.38.2-.38.22-57.09 34.83h.03l1.19 1.35 1.21 1.34 1.22 1.32 1.23 1.31 1.25 1.3 1.26 1.28 1.27 1.26 1.29 1.25 1.31 1.24 1.31 1.22 1.33 1.21 1.34 1.19 1.36 1.17 1.36 1.16 1.38 1.14 1.39 1.13 1.41 1.11 1.42 1.1 1.43 1.08 1.44 1.07 1.45 1.05 1.46 1.03 1.48 1.01 1.49 1 1.49.99 1.51.96 1.52.95 1.53.94 1.55.91 1.55.9 1.56.88 1.57.87 1.59.85 1.59.83 1.6.81 1.62.79 1.62.78 1.63.76 1.64.74 1.65.72 15.49-65.25.05-.21.04-.21.04-.2.03-.21.03-.21.03-.2.02-.21.02-.21.01-.21.01-.21.01-.2v-.42l-.01-.21-.01-.2-.01-.21-.02-.21-.02-.2-.03-.21-.03-.2-.03-.21-.04-.2-.05-.21-.04-.2-.05-.2-.06-.2-.05-.2-.07-.2-.06-.19-.07-.2-.08-.19-.07-.2-.08-.19-.09-.19-.09-.19-.09-.19-.1-.18-.1-.19-.1-.18-.11-.18-.24-.37-.25-.36-.26-.35-.27-.33-.29-.32-.29-.3-.31-.29-.31-.28-.33-.26-.33-.25-.34-.24-.35-.22-.36-.2-.36-.2-.38-.17-.37-.17-.38-.15-.39-.13-.39-.12-.4-.1-.4-.09-.4-.07-.41-.06-.41-.04-.41-.03-.41-.01h-.41l-.41.02zm115.72-.01l-.2.01-.21.01-.21.02-.21.02-.21.03-.2.03-.21.03-.21.04-.2.04-.21.05-.42.11-.42.13-.41.14-.4.16-.39.17-.38.18-.37.2-.36.22-.35.23-.34.24-.33.25-.32.26-.31.28-.29.29-.29.29-.27.31-.26.32-.25.32-.23.34-.22.35-.21.35-.19.36-.19.37-.16.37-.15.38-.14.39-.12.39-.11.4-.09.41-.08.4-.06.41-.05.42-.03.42-.01.42.01.42.02.43.04.43.06.43.07.43.09.43 15.52 65.25h.04l1.65-.72 1.64-.74 1.63-.76 1.62-.78 1.61-.79 1.6-.82 1.6-.83 1.58-.84 1.57-.87 1.56-.88 1.55-.9 1.55-.92 1.53-.93 1.52-.95 1.5-.97 1.5-.98 1.49-1 1.47-1.02 1.47-1.03 1.45-1.05 1.44-1.06 1.43-1.08 1.41-1.1 1.4-1.11 1.4-1.13 1.38-1.14 1.36-1.16 1.36-1.18 1.34-1.19 1.32-1.2 1.32-1.22 1.3-1.24 1.29-1.25 1.27-1.26 1.26-1.28 1.25-1.3 1.23-1.31 1.22-1.32 1.21-1.34 1.19-1.35-57.09-34.83-.18-.11-.18-.1-.19-.1-.18-.1-.19-.09-.19-.09-.19-.08-.19-.09-.2-.07-.19-.08-.2-.07-.2-.06-.19-.06-.2-.06-.2-.06-.21-.05-.2-.04-.2-.05-.2-.03-.21-.04-.2-.03-.21-.03-.2-.02-.21-.02-.21-.01-.21-.01-.2-.01h-.42l-.21.01zM181.01 241.15l-.88 1.57-.87 1.58-.85 1.58-.83 1.6-.81 1.6-.79 1.61-.78 1.62-.75 1.63-.74 1.64-.72 1.64-.7 1.65-.68 1.66-.66 1.67-.64 1.67-.62 1.68-.61 1.69-.58 1.69-.57 1.7-.55 1.7-.53 1.72-.5 1.72-.49 1.72-.47 1.73-.45 1.73-.43 1.74-.41 1.75-.4 1.75-.37 1.76-.35 1.76-.33 1.76-.31 1.77-.29 1.77-.28 1.78-.25 1.78-.23 1.78-.21 1.79-.19 1.79-.18 1.8 66.81-5.4.21-.02.21-.02.21-.03.2-.03.21-.04.21-.04.2-.04.2-.05.21-.05.2-.05.2-.06.19-.06.2-.07.2-.07.19-.07.19-.08.19-.08.19-.09.19-.09.18-.09.19-.1.18-.09.18-.11.18-.1.17-.11.18-.12.17-.11.17-.12.16-.13.17-.12.16-.13.16-.14.16-.13.15-.14.16-.15.15-.14.14-.15.15-.16.14-.15.14-.16.28-.34.26-.35.25-.35.23-.36.21-.37.2-.38.18-.38.17-.38.15-.39.13-.4.12-.4.1-.4.09-.4.07-.41.06-.4.03-.41.03-.41.01-.41-.01-.41-.03-.41-.04-.41-.05-.4-.07-.41-.09-.4-.1-.4-.11-.39-.14-.39-.14-.39-.17-.38-.17-.37-.2-.37-.2-.36-.23-.36-.24-.35-.25-.34-.27-.33-.28-.32-.3-.31-.31-.31-.33-.29-50.76-43.55-.92 1.54-.91 1.56zm225.23 40.59l-.15.14-.15.14-.15.15-.15.15-.14.15-.14.15-.13.16-.13.16-.13.16-.13.16-.12.17-.12.17-.11.17-.12.17-.11.18-.1.17-.1.18-.1.18-.1.18-.09.19-.09.18-.08.19-.08.19-.08.19-.07.19-.07.2-.07.19-.06.2-.06.2-.06.2-.05.2-.04.2-.05.2-.04.2-.03.21-.03.2-.03.21-.03.21-.02.21-.02.44-.01.43v.43l.03.43.04.43.06.42.07.41.09.41.11.41.12.39.14.4.15.38.17.38.18.37.19.36.21.36.22.34.23.34.25.33.26.31.27.31.28.3.29.29.3.27.32.26.32.26.34.24.34.22.36.22.36.2.37.18.39.17.38.16.4.15.41.12.41.12.42.09.42.08.43.06.44.05 66.8 5.4-.11-1.21-.14-1.24-.17-1.26-.18-1.28-.21-1.31-.23-1.33-.25-1.36-.28-1.38-.29-1.41-.32-1.43-.34-1.46-.37-1.48-.38-1.5-.41-1.53-.43-1.56-.45-1.58-.48-1.6-.5-1.63-.52-1.66-.54-1.68-.56-1.7-.59-1.73-.61-1.75-.63-1.78-.65-1.8-.68-1.83-.69-1.85-.72-1.88-.74-1.9-.77-1.93-.79-1.95-.8-1.97-.84-2.01-.85-2.02-.87-2.05-.9-2.08-.92-2.1-.95-2.12-.96-2.15-.99-2.17-50.76 43.55-.16.14zm-89.83-121.7l-1.79.05-1.79.08-1.79.09-1.79.11-1.79.14-1.79.15-1.78.18-1.79.19-1.78.22-1.78.24-1.78.26-1.78.28-1.77.3-1.77.32-1.77.34-1.77.36-1.76.39-1.76.4 25.77 61.87.09.19.08.19.09.19.1.19.1.18.1.19.1.18.11.18.11.17.11.18.12.17.12.17.13.16.12.17.13.16.14.16.13.15.14.16.14.15.15.14.15.15.15.14.15.14.16.14.15.13.17.13.16.13.17.12.16.12.18.12.17.11.18.11.17.11.19.1.18.11.18.09.19.1.19.09.19.08.2.09.41.16.41.14.41.13.42.1.41.09.42.08.42.05.42.04.41.02.42.01.42-.01.41-.03.41-.04.41-.06.4-.07.4-.09.4-.1.39-.12.39-.14.38-.14.38-.17.36-.18.37-.19.35-.2.35-.22.34-.23.33-.25.32-.26.31-.27.3-.28.3-.3.28-.31.27-.32.25-.34.25-.34.23-.36.22-.37.21-.38.19-.39.18-.4 25.77-61.87-1.76-.4-1.76-.39-1.77-.36-1.77-.34-1.77-.32-1.77-.3-1.78-.28-1.78-.26-1.78-.24-1.78-.22-1.79-.19-1.78-.18-1.79-.15-1.79-.14-1.79-.11-1.79-.09-1.79-.08-1.79-.05-1.8-.03L320 160l-1.79.01-1.8.03z" id="c"/><path d="M323.5 277.47l1.72.18 1.7.24 1.68.31 1.65.37 1.63.44 1.61.5 1.57.56 1.55.62 1.51.67 1.49.74 1.45.78 1.41.85 1.39.89 1.34.95 1.3.99 1.27 1.04 1.22 1.09 1.18 1.14 1.14 1.18 1.09 1.22 1.04 1.27.99 1.3.95 1.34.89 1.39.85 1.41.78 1.45.74 1.49.67 1.51.62 1.55.56 1.57.5 1.61.44 1.63.37 1.65.31 1.68.24 1.7.18 1.72.1 1.74.04 1.76-.04 1.76-.1 1.74-.18 1.72-.24 1.7-.31 1.68-.37 1.65-.44 1.63-.5 1.61-.56 1.57-.62 1.55-.67 1.51-.74 1.49-.78 1.45-.85 1.41-.89 1.39-.95 1.34-.99 1.3-1.04 1.27-1.09 1.22-1.14 1.18-1.18 1.14-1.22 1.09-1.27 1.04-1.3.99-1.34.95-1.39.89-1.41.85-1.45.78-1.49.74-1.51.67-1.55.62-1.57.56-1.61.5-1.63.44-1.65.37-1.68.31-1.7.24-1.72.18-1.74.1-1.76.04-1.76-.04-1.74-.1-1.72-.18-1.7-.24-1.68-.31-1.65-.37-1.63-.44-1.61-.5-1.57-.56-1.55-.62-1.51-.67-1.49-.74-1.45-.78-1.41-.85-1.39-.89-1.34-.95-1.3-.99-1.27-1.04-1.22-1.09-1.18-1.14-1.14-1.18-1.09-1.22-1.04-1.27-.99-1.3-.95-1.34-.89-1.39-.85-1.41-.78-1.45-.74-1.49-.67-1.51-.62-1.55-.56-1.57-.5-1.61-.44-1.63-.37-1.65-.31-1.68-.24-1.7-.18-1.72-.1-1.74-.04-1.76.04-1.76.1-1.74.18-1.72.24-1.7.31-1.68.37-1.65.44-1.63.5-1.61.56-1.57.62-1.55.67-1.51.74-1.49.78-1.45.85-1.41.89-1.39.95-1.34.99-1.3 1.04-1.27 1.09-1.22 1.14-1.18 1.18-1.14 1.22-1.09 1.27-1.04 1.3-.99 1.34-.95 1.39-.89 1.41-.85 1.45-.78 1.49-.74 1.51-.67 1.55-.62 1.57-.56 1.61-.5 1.63-.44 1.65-.37 1.68-.31 1.7-.24 1.72-.18 1.74-.1 1.76-.04 1.76.04 1.74.1zm-6.18 21.36l-1.3.21-1.27.28-1.25.35-1.21.43-1.18.5-1.14.57-1.1.63-1.06.69-1.01.75-.97.81-.92.86-.86.92-.81.97-.75 1.01-.69 1.06-.63 1.1-.57 1.14-.5 1.18-.43 1.21-.35 1.25-.28 1.27-.21 1.3-.12 1.33-.04 1.35.04 1.35.12 1.33.21 1.3.28 1.27.35 1.25.43 1.21.5 1.18.57 1.14.63 1.1.69 1.06.75 1.01.81.97.86.92.92.86.97.81 1.01.75 1.06.69 1.1.63 1.14.57 1.18.5 1.21.43 1.25.35 1.27.28 1.3.21 1.33.12 1.35.04 1.35-.04 1.33-.12 1.3-.21 1.27-.28 1.25-.35 1.21-.43 1.18-.5 1.14-.57 1.1-.63 1.06-.69 1.01-.75.97-.81.92-.86.86-.92.81-.97.75-1.01.69-1.06.63-1.1.57-1.14.5-1.18.43-1.21.35-1.25.28-1.27.21-1.3.12-1.33.04-1.35-.04-1.35-.12-1.33-.21-1.3-.28-1.27-.35-1.25-.43-1.21-.5-1.18-.57-1.14-.63-1.1-.69-1.06-.75-1.01-.81-.97-.86-.92-.92-.86-.97-.81-1.01-.75-1.06-.69-1.1-.63-1.14-.57-1.18-.5-1.21-.43-1.25-.35-1.27-.28-1.3-.21-1.33-.12-1.35-.04-1.35.04-1.33.12z" id="d"/></defs><use xlink:href="#a" fill="#ff5252"/><use xlink:href="#a" fill-opacity="0" stroke="#000" stroke-opacity="0"/><use xlink:href="#b" fill="#ff5252"/><use xlink:href="#b" fill-opacity="0" stroke="#000" stroke-opacity="0"/><use xlink:href="#c" fill="#ff5252"/><use xlink:href="#c" fill-opacity="0" stroke="#000" stroke-opacity="0"/><use xlink:href="#d" fill="#ff5252"/><use xlink:href="#d" fill-opacity="0" stroke="#000" stroke-opacity="0"/></svg>